<?xml version="1.0" encoding="utf-8"?>
<!-- Generator: Adobe Illustrator 22.1.0, SVG Export Plug-In . SVG Version: 6.00 Build 0)  -->
<svg version="1.1" id="Layer_1" xmlns="http://www.w3.org/2000/svg" xmlns:xlink="http://www.w3.org/1999/xlink" x="0px" y="0px"
	 viewBox="0 0 1440 900" style="enable-background:new 0 0 1440 900;" xml:space="preserve">
<style type="text/css">
	.st0{fill:none;stroke:#333333;stroke-width:1.5;stroke-linecap:round;stroke-linejoin:round;}
	.st1{fill:none;stroke:#000000;stroke-width:1.5;stroke-linecap:round;stroke-linejoin:round;}
	.st2{fill:none;stroke:#FFFFFF;stroke-linecap:round;stroke-linejoin:round;}
	.st3{fill:none;stroke:#333333;stroke-linecap:round;stroke-linejoin:round;}
	.st4{fill:none;stroke:#646464;stroke-width:1.5;stroke-linecap:round;stroke-linejoin:round;}
	.st5{fill:none;stroke:#000000;stroke-linecap:round;stroke-linejoin:round;}
	.st6{fill:none;stroke:#646464;stroke-linecap:round;stroke-linejoin:round;}
</style>
<g>
	<g>
		<path class="st0" d="M72.6,106.9c0,0,1.1-0.6,1.1-0.6c0.2,0.3-1.5,4.2-1.5,4.2c0.1,0.2,7-4.3,7.1-4.1c0.3,0.4-6.9,8.4-6.7,8.8
			c0.2,0.4,15.4-9,15.4-8.9c0,0-16.6,11.1-15.9,12.4c0.6,1,21.2-12.6,21.3-12.3c0.6,1-21.5,15.4-21.3,15.7c0,0,25.6-17.4,26.7-15.4
			c0.6,1.1-27.4,15.3-26.4,17c0.9,1.6,29.7-17.1,29.7-17.1c0.2,0.4-30.5,21-29.8,22.4c0.4,0.8,37.2-24.4,38.5-22.2
			c0.5,0.9-39.1,22.6-38.7,23.2c1,1.7,39.1-26.5,40.8-23.5c1.2,2-42.3,25.7-40.9,28.1c1.5,2.7,46.2-31.3,48.2-27.9
			c1.6,2.7-49.9,25.5-47.9,28.9c0.9,1.6,49.6-30.6,50.5-29.1c0,0-52.1,28.7-50.6,31.4c1.5,2.6,53.4-33.2,54.4-31.4
			c2.4,4.1-54.6,33.2-54.6,33.2c1.8,3.1,57.4-33.1,57.4-33.1c1,1.7-57.9,36-56.9,37.8c1.9,3.4,64.6-39.3,65.4-37.8
			c1.8,3.1-67.9,36.9-65.7,40.7c2.1,3.6,69.1-42.9,70.4-40.6c0.7,1.3-66.9,37.9-65,41.3c1.5,2.6,71.3-42,71.6-41.4
			c0.8,1.3-66.9,39.1-65.7,41.2c1.5,2.6,69.3-44.4,71.2-41.1c2.8,4.8-71,40-70.4,41.1c2.7,4.6,69.7-43.5,71.2-41.1
			c2,3.5-66,40.1-65.3,41.3c1.5,2.6,69.4-44.9,71.4-41.2c0.3,0.5-64.2,36.9-61.7,41.3c0.1,0.2,70.1-44.3,71.8-41.5
			c2.1,3.7-66.4,38.9-65.1,41.2c0,0,70.9-41.5,71.1-41.1c2.5,4.3-72.4,36.5-69.8,41c1.9,3.4,69.5-43.5,71-41
			c2.7,4.7-72.5,37.2-70.1,41.3c2.9,5,69.7-44.3,71.5-41.3c0.5,0.8-70.9,40.6-70.7,41c3,5.2,70.4-43.1,71.4-41.2
			c2.3,4-62.9,40.8-62.6,41.2c2.7,4.7,70.2-42.6,71.1-41c1.4,2.4-67.6,40.1-67,41.1c1.8,3.1,70.3-42.6,71.2-41.1
			c0.6,1.1-73.9,36-70.9,41.2c2.4,4.2,69.8-44,71.4-41.2c0.1,0.2-71,40.5-70.7,41c0.9,1.6,69.8-43.5,71.2-41.1
			c0.1,0.2-66.4,38.9-65.1,41.1c1.8,3,70-42.8,71-41c1.2,2.1-67.8,36.3-65,41.2c0.8,1.4,69-44.6,71.1-41
			c1.2,2.1-72.3,37.1-69.9,41.1c0.2,0.3,71.2-41.9,71.6-41.3c0.5,0.8-71.6,41-71.3,41.4c1.3,2.2,69.6-44.6,71.5-41.3
			c1.6,2.8-67.2,40-66.6,41.1c2,3.5,68.6-44.7,70.8-40.9c1.8,3.2-65.6,36.2-62.9,40.8c0.4,0.7,69.5-43.6,71-41
			c1.8,3.1-66.7,39.5-65.8,41.1c2.8,4.9,68.6-45.3,71.1-41c0.8,1.5-66.4,37.5-64.3,41.1c0.8,1.4,70-44,71.5-41.3
			c1,1.8-65,40.7-64.7,41.2c1.1,2,68.7-46.1,71.5-41.3c2.3,4.1-64.7,39.7-63.7,41.3c2.1,3.6,71-41.5,71.2-41.1
			c0,0-65.3,38.1-63.6,41.1c1.1,2,69.4-43.7,71-41c1.8,3.2-71.3,40.3-70.9,41.1c0.4,0.7,71.7-41.4,71.7-41.4
			c0.9,1.6-66.9,38.8-65.3,41.5c1.8,3.2,69.2-46.1,71.8-41.5c2.9,5-73,36.4-70.3,41.2c2.2,3.9,70.9-41.2,71-41
			c2.1,3.6-69.2,36.8-66.7,41.1c2.6,4.6,69.8-44.5,71.6-41.4c1.3,2.3-68.6,41-68.4,41.3c0.6,1,70.5-43.1,71.6-41.3
			c0,0-69.1,39.9-68.2,41.5c3,5.1,68.5-46.4,71.4-41.2c1.9,3.2-71.4,38.5-70,40.9c2.6,4.5,67.8-45.9,70.8-40.9
			c1.8,3.1-70.7,38.8-69.3,41.2c1.6,2.8,69.1-45.6,71.6-41.3c2.6,4.4-62.7,40-62,41.1c2.3,4,68.7-45.4,71.2-41.1
			c2.4,4.1-71.6,37.5-69.6,41c1.1,1.9,69.6-44.1,71.3-41.2c0.4,0.7-68.7,37.2-66.2,41.5c2.6,4.6,70.2-44,71.7-41.4
			c0,0-66.2,36.8-63.6,41.4c0,0,69.9-44,71.5-41.3c2.5,4.4-71.6,39-70.3,41.3c0.9,1.5,71.3-41.7,71.5-41.3
			c0.4,0.7-71.7,37.2-69.4,41c0.3,0.5,68.4-45.9,71.2-41.1c2.6,4.5-65.5,39.1-64.3,41.1c1.8,3.2,70.5-41.6,70.9-41
			c2.4,4.2-63.5,39.5-62.6,41c2.1,3.6,71.1-41.7,71.4-41.2c2.3,3.9-68.7,36.3-65.9,41.2c1,1.8,70.8-41.2,70.9-41
			c0.5,0.9-63.2,39.7-62.3,41.2c2.9,5,70.5-43.2,71.6-41.3c2.4,4.1-70.9,39.7-69.9,41.4c1.7,2.9,68.8-46.3,71.6-41.4
			c0.5,0.9-67.1,39.9-66.4,41.2c2.5,4.4,70.7-42.2,71.3-41.2c2.5,4.3-67.9,39.5-67,41.1c1.7,2.9,71-41.9,71.4-41.2
			c0.5,0.9-63.7,39.9-62.9,41.2c2.6,4.5,68.4-46.1,71.3-41.2c0,0-71,38.5-69.5,41.2c2.1,3.6,70.2-42.9,71.2-41.1
			c1.7,3-68.3,41-68.3,41s69.5-44.2,71.3-41.1c2.8,4.8-67.9,40.4-67.4,41.3c1.1,1.8,68.3-46,71.1-41.1c0.6,1-67.8,40.2-67.3,41.1
			c1.2,2.1,69.5-45.4,71.7-41.4c1.7,2.9-63.6,39.8-62.7,41.3c1.8,3.1,69.8-43.3,71.1-41.1c0,0.1-69.5,37.8-67.6,41.2
			c2,3.4,70.1-43,71.2-41.1c0.9,1.6-63.9,36.6-61.3,41c0.3,0.5,71.3-41.2,71.3-41.2c0.1,0.2-71.2,40-70.4,41.3
			c1.4,2.4,69.1-45.9,71.7-41.4c2.3,4-64.9,36.8-62.4,41.2c0.7,1.2,70.4-42.9,71.4-41.2c0.5,0.8-68,38.3-66.2,41.3
			c1.6,2.8,70.7-42.1,71.3-41.1c2.5,4.3-62,39.1-61,41c0.9,1.6,68.3-45.8,71-41c1,1.7-70.9,36.6-68.4,41.1c0.6,1.1,69-44.6,71.1-41
			c2.4,4.1-63.5,38.5-62.1,40.9c0.5,0.9,70.6-41.5,70.9-41c1.6,2.7-71.3,37.1-68.9,41.2c0.2,0.3,68.5-46.5,71.5-41.3
			c2.7,4.7-62.5,40.1-61.8,41.3l71.8-41.4c0.8,1.5-64.8,39.6-63.7,41.5c0.7,1.3,63.7-40.1,65.1-37.6c2.6,4.6-63.6,34.9-62.1,37.5
			c2.1,3.7,60.3-38.7,62-35.8c1.5,2.5-53.6,35.9-53.6,35.9c0.7,1.1,51.8-33,53.1-30.7c1.4,2.4-52.8,27-50.8,30.4
			c0.7,1.3,49-32.5,50.8-29.4c0.3,0.6-48.4,28.7-47.8,29.6c1.7,3,46.9-30.5,48.4-27.9c1.4,2.5-45.1,25.6-43.8,27.7
			c0.2,0.3,43.6-25.2,43.6-25.2c0.8,1.5-38.5,22.9-37,25.4c0.8,1.5,37.1-21.6,37.2-21.5c1.3,2.3-36,19.8-35.1,21.3
			c0,0.1,33.6-21.8,34.6-20c0.6,1.1-34,18.6-33.2,19.9c1.1,1.9,33.2-20.7,33.9-19.5c0,0-34.2,17-32.8,19.5
			c0.5,0.9,31.3-21,32.6-18.8c0.8,1.3-27.8,18.3-27.4,19c0,0,26.8-17.5,27.7-16c0.1,0.1-25.7,14.8-25.1,15.8
			c0.9,1.6,24.5-14.3,24.6-14.2c0,0-16.1,13.4-15.6,14.3c0.2,0.3,15.4-9.3,15.5-9c0,0.1-5.9,8.3-5.6,8.8c0,0.1,5.8-3.9,6-3.5
			c0.1,0.2-1.1,3.4-1,3.5c0,0,0.9-0.6,0.9-0.5"/>
		<path class="st1" d="M73.9,106.9c0,0,1.8-1.2,1.8-1.1c0,0-2.2,1.1-2.1,1.2c0.1,0.1,1.8-1.1,1.8-1.1c0.3,0.5,8.2,0.9,8.2,1
			c0,0,1.8-1.1,1.8-1c0.1,0.3,7.2,1.2,7.3,1.3c0,0,2.5-1.5,2.6-1.5c0.2,0.4,7.2,1.5,7.2,1.5c0,0,2.4-1.5,2.5-1.4
			c0,0.1,1.3,1,1.3,1.1c0.1,0.1,1.8-1.1,1.8-1.1c0,0,0.2,1.1,0.2,1.1c0.1,0.1,1.8-1,1.8-1c0.2,0.3,4,1,4.1,1.1
			c0,0.1,2.2-1.3,2.2-1.3c0,0-0.4,1.4-0.4,1.4c0,0.1,2.3-1.3,2.3-1.3c0,0-0.1,1.1-0.1,1.1c0,0.1,2-1.2,2-1.2c0,0.1,0.8,1.1,0.8,1.1
			c0,0.1,2.1-1.4,2.2-1.3c0,0-0.1,1.2-0.1,1.3c0,0.1,1.9-1.1,1.9-1.1c0.1,0.2,4.4,1.2,4.4,1.2c0.1,0.1,2.1-1.3,2.1-1.2
			c0,0,6.5,0.7,6.7,1c0,0,2-1.1,2-1.1c0,0,4.4,0.8,4.5,1c0,0.1,1.4-0.9,1.4-0.8c0.1,0.1,3.4,0.8,3.4,0.8c0,0.1,1.7-1.1,1.8-1
			c0.2,0.3,7.4,0.8,7.6,1.1c0.1,0.1,2-1.2,2-1.2c0,0,0.6,1.4,0.6,1.4c0,0.1,2.1-1.2,2.1-1.2c0,0,3.3,0.8,3.4,1c0,0,1.7-1,1.7-1
			c0.1,0.2,4.5,0.6,4.6,0.9c0,0,1.4-0.9,1.4-0.8c0,0,4.4,0.9,4.5,1c0,0,1.9-1.2,2-1.1c0.1,0.2,7.1,0.7,7.4,1.1c0.1,0.1,2-1.2,2-1.2
			c0.1,0.2,6.7,1.1,6.7,1.1c0.1,0.1,1.4-0.9,1.4-0.8c0,0,1.8,0.8,1.8,0.8c0,0,1.9-1.2,1.9-1.1c0.1,0.1,2.4,1.2,2.5,1.2
			c0.1,0.1,1.7-1,1.7-1c0,0,2.8,0.8,2.9,0.9c0,0,1.9-1.2,2-1.1c0.1,0.1,3.3,0.8,3.5,1.1c0,0,1.8-1.2,1.9-1.1c0,0,1.2,1.3,1.3,1.4
			c0.1,0.1,1.8-1.1,1.8-1c0.1,0.1-1.5,1-1.5,1c0.1,0.1,1.9-1.2,2-1.1c0,0,2.9,1,3,1.1c0.1,0.1,2.1-1.3,2.2-1.2c0,0-1,1.1-1,1.1
			c0,0.1,2.1-1.3,2.1-1.2c0.1,0.1,5.9,0.9,6,1.1c0,0.1,1.4-0.8,1.4-0.8c0,0.1,3.6,0.6,3.8,0.9c0,0,1.7-1,1.7-1c0,0,4.1,1,4.2,1.2
			c0,0.1,1.9-1.3,2-1.2c0,0-0.8,0.9-0.7,0.9c0,0,2-1.2,2-1.2c0,0-0.2,1.1-0.2,1.1c0,0,2-1.2,2-1.2c0.1,0.2,6,1.1,6,1.2
			c0,0.1,1.6-0.9,1.6-0.9c0.1,0.1-1.4,0.8-1.4,0.8c0.1,0.1,1.8-1.1,1.9-1.1c0,0,1.3,1,1.4,1.1c0.1,0.1,1.7-1.1,1.8-1
			c0,0,7.7,0.5,7.9,1c0,0,1.5-0.9,1.6-0.9c0,0,2.5,0.8,2.6,0.9c0,0.1,1.8-1.2,1.8-1.1c0.1,0.1,3.4,1.1,3.4,1.1c0,0,1.4-1,1.5-0.8
			c0.1,0.2,7.2,1.1,7.2,1.1c0.1,0.1,1.9-1.2,1.9-1.1c0.2,0.3,5.3,0.5,5.4,0.8c0,0,1.9-1.2,1.9-1.1c0.1,0.1,4.5,1.2,4.5,1.3
			c0,0,2.3-1.3,2.3-1.3c0,0,5.4,1,5.5,1.3c0.1,0.1,2.2-1.4,2.2-1.3c0.1,0.2,3.7,1,3.7,1.1c0,0,1.6-1,1.6-0.9
			c0.1,0.2,3.7,1.3,3.7,1.3c0,0,2.2-1.3,2.2-1.3c0.1,0.2,3.9,1,4,1.3c0,0.1,2-1.2,2-1.2c0,0,1.4,1,1.4,1c0.1,0.1,2-1.1,2-1.1
			c0,0.1-0.3,0.9-0.3,0.9c0.1,0.1,1.9-1.2,2-1.1c0.2,0.3,5.2,1.4,5.3,1.4c0,0,2.1-1.3,2.1-1.2c0,0.1,4,1,4.2,1.2
			c0,0.1,2.2-1.3,2.2-1.3c0,0-1.3,1-1.3,1.1c0,0,1.5-1,1.6-0.9c0.1,0.1,3.2,1.1,3.2,1.1c0,0.1,2-1.2,2-1.1c0,0,1.8,1,1.9,1.1
			c0,0,2.1-1.3,2.2-1.3c0.2,0.3,7.3,1.1,7.4,1.3c0,0,2-1.3,2-1.2c0,0-1.2,0.8-1.2,0.9c0,0,1.7-1,1.7-1c0,0,0.1,1.1,0.1,1.1
			c0,0,2.2-1.4,2.2-1.3c0.2,0.3,4.2,1.2,4.4,1.4c0,0.1,2.4-1.4,2.4-1.4c0.1,0.2,4,1.2,4.1,1.4c0,0.1,2-1.2,2-1.2
			c0,0.1-0.7,0.9-0.7,0.9c0,0.1,1.6-1.1,1.7-1c0.1,0.2,3.9,0.8,4,1c0,0,1.9-1.2,2-1.2c0,0-2,1.2-1.9,1.3c0,0.1,1.8-1.1,1.8-1
			c0,0-0.6,0.8-0.6,0.9c0.1,0.1,1.9-1.2,1.9-1.1c0,0,0,1.3,0,1.3c0,0,2.2-1.3,2.2-1.3c0,0.1-2.1,1.2-2.1,1.3c0,0.1,1.8-1.1,1.8-1
			c0,0.1-1.1,0.9-1,1c0,0.1,2-1.2,2-1.2c0.2,0.4,7.1,1,7.2,1.3c0,0,2.4-1.4,2.4-1.4c0.3,0.4,7.1,0.9,7.2,1.1c0,0,1.5-0.9,1.5-0.9
			c0,0,0,1.1,0,1.2c0,0,2-1.3,2.1-1.2c0,0.1,1.4,1,1.4,1.1c0,0.1,1.9-1.1,1.9-1.1c0,0,2.1,0.8,2.1,0.9c0,0,1.5-0.9,1.5-0.9
			c0,0-0.7,0.9-0.7,1c0,0,1.9-1.2,2-1.1c0,0.1,2.9,1.3,2.9,1.4c0,0,2.3-1.3,2.3-1.3c0,0.1,7.2,0.8,7.2,1c0,0.1,1.3-0.8,1.4-0.8
			c0.1,0.1,3.2,0.9,3.3,1c0,0.1,1.8-1.2,1.8-1.1c0,0-0.8,1.4-0.7,1.5c0,0,1.2-0.7,1.2-0.7c0.1,0.1-1.2,5.2-1.1,5.3
			c0,0,1.4-0.9,1.5-0.8c0.1,0.1-1.4,5.2-1.2,5.5c0,0,0.9-0.6,0.9-0.5c0,0-1,1-1,1c0,0,1-0.6,1-0.6c0.1,0.1-1.5,5.5-1.5,5.6
			c0,0,1.8-1.1,1.9-1.1c0,0.1-1.6,4.9-1.5,5c0,0.1,1.2-0.7,1.2-0.7c0,0-1.1,2-1.1,2c0,0.1,1-0.6,1.1-0.6c0,0.1-0.9,6.2-0.9,6.2
			c0,0,1.3-0.8,1.3-0.8c0.1,0.3-1.7,5.1-1.6,5.3c0,0.1,1.6-1,1.6-0.9c0,0-1.4,5-1.4,5c0,0,0.9-0.6,0.9-0.5c0,0.1-0.9,4.5-0.8,4.6
			c0,0.1,1-0.7,1.1-0.6c0,0-1.6,1.5-1.6,1.7c0,0,1.6-0.9,1.6-0.9"/>
		<path class="st1" d="M72.1,106.4c0,0,1.1-0.6,1.1-0.6c0.2,0.3-1.5,4.2-1.5,4.2c0,0,1.5-0.9,1.5-0.8c0.1,0.2-1.1,5.3-1,5.5
			c0,0,1.2-0.7,1.2-0.7c0,0-1.8,3.9-1.7,4.2c0,0,1.6-1,1.6-0.9c0.1,0.2-1.6,4.3-1.6,4.3c0,0,1-0.7,1.1-0.6c0,0.1-0.8,2-0.7,2.2
			c0,0,1-0.6,1-0.6c0,0.1-1.2,5.6-1.1,5.8c0,0,0.8-0.5,0.9-0.5c0,0-1.1,1.5-1.1,1.5c0,0,1.6-1,1.7-1c0.1,0.2-1.9,5.2-1.8,5.5
			c0,0.1,1.3-0.9,1.4-0.8c0.1,0.1-1.1,1.7-1.1,1.9c0,0,1.4-0.9,1.5-0.8c0,0-1.7,2.9-1.6,3.1c0,0,1.7-1,1.7-1
			c0.1,0.2-1.8,2.8-1.8,2.8c0,0.1,1.6-1,1.6-1c0.1,0.1-1.3,5.5-1.2,5.6c0,0,1.1-0.7,1.1-0.6c0.1,0.2-1.5,3.4-1.4,3.6
			c0,0,1.3-0.8,1.3-0.7c0,0.1,2.4,2.2,2.4,2.3c0,0.1,2.3-1.3,2.3-1.3c0,0.1,3.6,1.1,3.6,1.2c0,0.1,1.8-1.1,1.8-1c0.1,0.1-1,1-1,1.1
			c0.1,0.1,1.8-1.1,1.8-1c0.1,0.2,4.1,1.2,4.1,1.3c0,0.1,2.1-1.3,2.1-1.2c0,0.1,7.4,0.8,7.7,1.2c0,0,2.4-1.5,2.4-1.4
			c0.1,0.2,4.2,1,4.2,1.1c0,0,1.8-1,1.8-1c0,0.1-0.5,0.9-0.4,0.9c0,0.1,1.6-1,1.6-0.9c0,0.1-0.8,1.2-0.8,1.2
			c0.1,0.1,2.1-1.3,2.1-1.2c0,0-1.3,1-1.3,1c0.1,0.1,2.1-1.2,2.1-1.2c0.2,0.4,6.7,1.2,6.7,1.2c0.1,0.1,1.7-1,1.7-1
			c0,0.1,2.3,1,2.4,1.1c0,0.1,1.8-1.1,1.8-1c0,0-1.6,1-1.5,1.2c0.1,0.1,2-1.3,2.1-1.2c0,0-1.4,1-1.4,1c0,0,1.8-1.1,1.8-1.1
			c0,0,4.1,0.9,4.2,1c0,0.1,1.7-1,1.7-1c0.1,0.1,4.2,0.9,4.4,1.2c0,0,1.7-1.1,1.7-1c0,0-0.6,1-0.6,1c0,0,2.2-1.3,2.2-1.3
			c0,0-2,1.3-2,1.3c0,0.1,2.1-1.3,2.2-1.3c0.1,0.1,2.7,1,2.8,1c0,0.1,1.4-0.9,1.5-0.8c0.2,0.3,6.2,0.4,6.4,0.8c0,0,1.6-1,1.7-1
			c0.1,0.1,3.5,1,3.6,1c0.1,0.1,1.7-1.1,1.7-1c0.1,0.1,4.9,0.8,5.1,1.1c0,0,2.1-1.3,2.2-1.2c0.1,0.1,4.6,1.1,4.6,1.1
			c0,0,2-1.3,2.1-1.2c0.2,0.3,5.5,1.2,5.6,1.3c0,0.1,1.8-1.1,1.8-1.1c0,0,5.6,0.8,5.7,1c0,0,1.6-1,1.6-0.9c0,0.1-1.5,1-1.5,1
			c0,0,2.4-1.4,2.4-1.4c0.1,0.1,4,1.3,4.1,1.5c0,0.1,2.4-1.5,2.5-1.4c0.1,0.1-1,1.1-0.9,1.1c0.1,0.1,1.7-1,1.7-1
			c0.1,0.1,2.5,0.9,2.6,1.1c0.1,0.1,2.2-1.4,2.3-1.3c0,0,0.9,1.3,0.9,1.3c0,0,2.2-1.3,2.2-1.3c0,0,1.1,1.5,1.2,1.5
			c0.1,0.1,2-1.3,2.1-1.2c0,0-0.6,0.8-0.6,0.8c0.1,0.1,1.3-0.9,1.4-0.8c0,0,0.1,1.1,0.1,1.2c0,0.1,2.2-1.4,2.2-1.3
			c0.3,0.4,7.3,1,7.3,1.1c0.1,0.1,1.8-1.1,1.8-1c0,0-0.2,0.9-0.2,0.9c0,0,1.9-1.2,2-1.1c0,0,3,1.2,3.1,1.4c0.1,0.1,2.3-1.4,2.3-1.3
			c0,0,5.6,1,5.8,1.3c0,0,2.1-1.3,2.1-1.2c0,0.1-0.9,1.2-0.9,1.3c0,0,2.2-1.3,2.2-1.2c0,0-0.1,1-0.1,1c0,0,1.7-1.2,1.8-1
			c0.2,0.3,5,0.9,5,1c0,0.1,1.6-0.9,1.6-0.9c0.2,0.4,6.7,0.8,6.7,0.9c0,0.1,2-1.2,2-1.2c0.1,0.2,3.3,0.9,3.4,1.1
			c0,0,1.6-0.9,1.6-0.9c0,0.1,7,1,7.1,1.1c0.1,0.1,2.2-1.3,2.2-1.3c0,0.1-0.5,1.3-0.5,1.3c0,0.1,2.2-1.4,2.3-1.3c0,0,3,1.1,3,1.1
			c0.1,0.1,1.9-1.1,1.9-1.1c0.1,0.1,2.3,1,2.3,1.1c0,0.1,2-1.2,2-1.2c0,0.1,6.4,1.1,6.5,1.2c0.1,0.1,1.8-1.2,1.9-1.1
			c0,0-0.1,1.1-0.1,1.2c0,0.1,1.8-1.1,1.9-1.1c0,0.1,1.1,1,1.1,1s1.9-1.2,1.9-1.1c0.1,0.1,2,1.2,2,1.2c0,0,1.7-1.1,1.7-1
			c0,0,2,1,2,1c0,0,2.3-1.5,2.4-1.4c0.2,0.3,6.6,1.1,6.6,1.3c0,0.1,1.7-1.1,1.8-1c0,0,1.8,1,1.8,1.1c0,0.1,1.8-1.1,1.8-1.1
			c0.1,0.2,7.8,0.5,8.1,1c0,0,1.9-1.1,1.9-1.1c0,0-1.1,1.3-1,1.3c0,0.1,2.2-1.4,2.3-1.3c0.2,0.4,6.7,0.7,6.9,1.1c0,0,2-1.2,2-1.1
			c0,0,3.1,1.1,3.2,1.2c0,0.1,1.9-1.1,1.9-1.1c0.3,0.5,8.3,0.7,8.4,0.9c0,0,1.6-1.1,1.7-1c0,0,1,1,1,1.1c0,0,1.6-1,1.7-1
			c0.2,0.4,7.1,0.6,7.3,0.9c0,0,1.5-0.9,1.6-0.9c0,0,0.4,1.1,0.5,1.1c0,0,2-1.3,2.1-1.2c0.3,0.5,7.5,1.1,7.6,1.2l2.4-1.4
			c0.1,0.1,5.6,1.2,5.7,1.4c0,0,2.4-1.5,2.5-1.4c0.1,0.1,0.5,1.3,0.6,1.3c0.1,0.1,2.1-1.3,2.1-1.2c0.1,0.3,6.2,1.3,6.2,1.3
			c0,0,1.9-1.2,1.9-1.1c0,0,0.4,0.7,0.4,0.8c0,0,1.3-0.9,1.4-0.8c0,0,1.6,1,1.6,1c0.1,0.1,2.2-1.4,2.3-1.3c0.1,0.1,2.2,1,2.2,1.1
			c0,0,1.7-1,1.7-1c0.1,0.2,4.7,0.9,4.8,1.2c0,0.1,2.2-1.3,2.2-1.3c0,0.1-0.2,1.1-0.2,1.2c0,0,1.5-1,1.5-0.9c0,0-0.2,0.8-0.2,0.8
			c0.1,0.1,2-1.2,2.1-1.2c0,0-1,1.1-1,1.1c0,0,1.7-1.1,1.8-1c0.1,0.1,3.3,1.2,3.4,1.3c0,0,2.4-1.5,2.5-1.4c0,0,0,1.2,0.1,1.2
			c0.1,0.1,1.6-0.9,1.6-0.9c0,0,7.3,0.7,7.5,1c0,0,1.7-1,1.8-1c0,0.1,8,0.5,8.2,0.8c0,0,1.8-1.2,1.9-1.1c0.2,0.3,5.7,1,5.7,1.1
			c0,0,0.9-0.6,0.9-0.5"/>
	</g>
</g>
<g>
	<g>
		<path class="st2" d="M73.9,227.5c0,0-0.4-0.3-0.4-0.3c0.4-0.5,11.6,1.2,12,0.7c0.4-0.6-12.8-8.7-12.4-9.3
			c1.1-1.4,34,10.1,35.1,8.6c1.3-1.8-35.7-24.1-34.4-25.9c1.6-2.1,43.8,28.1,45.4,26c1.7-2.3-47.9-32.5-46.1-34.8
			c2.2-2.9,61.9,37.5,64.1,34.6c2.3-3.1-64.6-43.8-62.2-46.9c2.7-3.6,72.5,51,75.2,47.5c2.3-3.1-65.2-44.2-62.8-47.4
			c2.6-3.5,71.4,51,74,47.5c2.3-3.1-65.3-44.3-62.9-47.4c2.9-3.9,82.5,51.2,85.4,47.3c2.3-3.1-65.6-44.6-63.3-47.7
			c3-4,84.6,51.4,87.6,47.4c2.3-3.1-65-44.1-62.6-47.2c2.8-3.7,77.5,51.1,80.3,47.3c2.3-3.1-65.4-44.4-63.1-47.5
			c2.8-3.7,77.3,51.7,80.2,48c2.3-3.1-65.3-44.3-62.9-47.4c3-3.9,83.5,51.3,86.4,47.4c2.3-3.1-65.4-44.4-63.1-47.5
			c2.6-3.4,69.2,50.1,71.8,46.7c2.3-3.1-63.7-43.1-61.4-46.2c2.7-3.6,75.8,50,78.5,46.3c2.3-3.1-65-44.1-62.7-47.2
			c2.8-3.7,75.9,51.7,78.7,48c2.3-3.1-65.9-44.8-63.5-47.9c2.7-3.5,71.4,51.4,74,47.8c2.3-3.1-64.5-43.7-62.1-46.8
			c2.8-3.7,78.1,50,80.9,46.3c2.3-3.1-63.8-43.2-61.5-46.3c2.6-3.4,68.8,50,71.4,46.6c2.3-3.1-65.5-44.4-63.1-47.6
			c2.9-3.8,79.4,51.6,82.3,47.8c2.3-3.1-65.5-44.5-63.2-47.6c2.6-3.5,69.7,51,72.3,47.6c2.3-3.1-64.9-44.1-62.6-47.2
			c2.7-3.6,72.7,50.9,75.4,47.3c2.3-3.1-66.1-44.9-63.7-48c3-3.9,83.5,51.8,86.5,47.9c2.3-3.1-65.1-44.2-62.8-47.3
			c3-3.9,83.3,51.1,86.3,47.1c2.3-3.1-65.1-44.2-62.8-47.3c2.9-3.8,80.7,51,83.6,47.2c2.3-3.1-65.1-44.2-62.7-47.3
			c3-3.9,83.7,50.6,86.7,46.7c2.3-3.1-64.8-44-62.5-47.1c2.9-3.9,81.8,51.2,84.7,47.3c2.3-3.1-65.1-44.1-62.7-47.3
			c2.7-3.6,74.4,51.7,77.1,48.1c2.3-3.1-65.7-44.6-63.4-47.7c2.8-3.8,79.1,50.5,81.9,46.7c2.3-3.1-64.8-43.9-62.4-47.1
			c2.6-3.5,70.3,50.9,72.9,47.4c2.3-3.1-65.3-44.3-62.9-47.4c2.7-3.5,72,51.5,74.7,48c2.3-3.1-65.6-44.5-63.2-47.7
			c2.8-3.7,75.9,50.4,78.7,46.7c2.3-3.1-64.9-44-62.5-47.1c3-3.9,82.8,52,85.8,48.1c2.3-3.1-65.2-44.2-62.8-47.3
			c2.3-3,63.4,40.3,65.6,37.3c1.9-2.5-52-35.3-50.1-37.7c1.7-2.2,47.5,27.5,49.2,25.3c1.3-1.7-33.7-22.8-32.5-24.5
			c1-1.4,32.4,11.1,33.5,9.7c0.5-0.7-13.5-9.2-13-9.8c0.4-0.5,12.2,0.4,12.6-0.1c0,0-0.4-0.3-0.4-0.3"/>
		<path class="st3" d="M75.2,225.8c0.1-0.1-2.5-1.7-2.4-1.8c0.3-0.4,1.4-9.4,1.7-9.8c0.1-0.1-2.7-1.8-2.6-2
			c0.5-0.7,3.2-15.2,3.7-15.9c0.1-0.1-3.7-2.6-3.6-2.7c0.3-0.4,2.6-8.2,2.8-8.5c0.1-0.1-3.5-2.4-3.3-2.5c0.4-0.5,11.6-0.4,11.9-0.9
			c0.1-0.2-3.2-2.1-3-2.3c0.7-1,23.6,3.7,24.3,2.7c0.1-0.2-4.8-3.3-4.6-3.5c0.6-0.8,17.9,4.4,18.4,3.7c0.1-0.2-4.2-2.9-4.1-3.1
			c0.4-0.6,13.3,3.4,13.7,2.9c0.1-0.2-4.8-3.3-4.7-3.5c0.5-0.7,15.7,4.1,16.2,3.4c0.1-0.2-3.9-2.6-3.7-2.8
			c0.4-0.5,12.5,3.5,12.9,2.9c0.1-0.2-3.9-2.6-3.7-2.8c0.6-0.8,18.4,3.3,19,2.5c0.1-0.2-3.7-2.5-3.6-2.7c0.8-1,25.4,3.5,26.2,2.5
			c0.1-0.2-3.5-2.3-3.4-2.5c0.6-0.8,19,3.1,19.6,2.3c0.1-0.2-3.6-2.4-3.4-2.6c0.5-0.6,14.9,3.3,15.4,2.7c0.1-0.2-2.9-1.9-2.8-2.1
			c0.5-0.7,16.9,2.6,17.4,1.9c0.1-0.2-3.5-2.3-3.3-2.5c0.7-0.9,21.9,4.3,22.6,3.4c0.1-0.2-3.9-2.6-3.7-2.8
			c0.4-0.5,12.8,2.9,13.2,2.4c0.1-0.2-4.3-2.9-4.2-3.1c0.6-0.8,19.1,4.2,19.7,3.4c0.1-0.2-4.9-3.4-4.8-3.6c0.6-0.8,19,4.3,19.6,3.5
			c0.1-0.2-4.2-2.8-4-3c0.4-0.5,12.3,3.2,12.7,2.6c0.1-0.2-4-2.7-3.9-2.9c0.4-0.5,12.6,3.9,13,3.4c0.1-0.2-3.5-2.3-3.3-2.5
			c0.5-0.7,15.7,3.2,16.2,2.5c0.1-0.2-4.4-3-4.2-3.2c0.8-1,24.9,3.7,25.7,2.7c0.1-0.2-3-2-2.9-2.2c0.6-0.8,18.3,2.7,18.9,2
			c0.1-0.2-3.9-2.6-3.8-2.8c0.6-0.8,20.1,3.8,20.7,3c0.1-0.2-3.3-2.2-3.2-2.4c0.6-0.8,19.5,3.2,20.1,2.3c0.1-0.2-2.8-1.8-2.6-2
			c0.6-0.8,20,3.2,20.6,2.4c0.1-0.2-3.6-2.4-3.4-2.6c0.4-0.5,12.7,3.1,13.1,2.6c0.1-0.2-3.5-2.4-3.4-2.5c0.7-1,23.5,3,24.2,2
			c0.1-0.2-2.6-1.6-2.4-1.8c0.8-1.1,25.5,4,26.3,2.9c0.1-0.2-4.9-3.4-4.8-3.6c0.4-0.6,13.1,4.1,13.5,3.6c0.1-0.2-5-3.5-4.9-3.7
			c0.6-0.8,19.8,3.8,20.4,3c0.1-0.2-4.5-3.1-4.3-3.2c0.8-1.1,25.8,4.2,26.6,3.2c0.1-0.2-4-2.7-3.8-2.9c0.6-0.8,19.7,3.8,20.3,3
			c0.1-0.2-3.9-2.6-3.7-2.8c0.6-0.8,19,3.9,19.6,3.1c0.1-0.2-4.5-3.1-4.4-3.3c0.4-0.6,13.8,4.2,14.3,3.6c0.1-0.2-4.2-2.9-4-3
			c0.6-0.9,20.8,2.9,21.4,2c0.1-0.2-3.4-2.3-3.3-2.5c0.6-0.8,18.4,4.4,19,3.6c0.1-0.2-4.4-3-4.2-3.2c0.4-0.5,12.2,2.9,12.6,2.4
			c0.1-0.2-3.8-2.6-3.7-2.8"/>
		<path class="st3" d="M72.5,228.9c0,0-0.4-0.3-0.4-0.3c0.4-0.5,11.6,1.2,12,0.7c0.1-0.2-4.8-3.3-4.7-3.5c0.8-1.1,26.6,4,27.4,2.9
			c0.1-0.2-3.2-2.1-3.1-2.3c0.4-0.6,13.6,3,14.1,2.4c0.1-0.2-4.1-2.8-4-3c0.7-0.9,21.3,3.7,22,2.8c0.1-0.2-3.9-2.6-3.7-2.8
			c0.5-0.7,16.2,4.1,16.7,3.4c0.1-0.2-4.5-3.1-4.4-3.3c0.5-0.6,15.1,4.1,15.6,3.5c0.1-0.2-4.6-3.2-4.5-3.4c0.8-1.1,26.1,4.3,27,3.3
			c0.1-0.2-5-3.4-4.8-3.6c0.9-1.2,28.3,4.5,29.2,3.3c0.1-0.2-4.3-3-4.2-3.1c0.7-0.9,21.2,4.2,21.9,3.3c0.1-0.2-4.8-3.3-4.6-3.5
			c0.7-0.9,21,4.8,21.7,3.9c0.1-0.2-4.6-3.2-4.5-3.4c0.8-1.1,27.1,4.5,28,3.3c0.1-0.2-4.8-3.3-4.6-3.5c0.4-0.5,12.9,3.1,13.3,2.6
			c0.1-0.2-3.1-2-2.9-2.2c0.6-0.8,19.5,3.1,20.1,2.3c0.1-0.2-4.4-3-4.3-3.2c0.6-0.8,19.6,4.8,20.3,3.9c0.1-0.2-5.2-3.6-5.1-3.8
			c0.5-0.6,15.1,4.4,15.6,3.8c0.1-0.2-3.8-2.6-3.7-2.8c0.7-0.9,21.8,3.2,22.5,2.3c0.1-0.2-3.2-2.1-3-2.3c0.4-0.5,12.6,3.1,12.9,2.6
			c0.1-0.2-4.8-3.3-4.7-3.5c0.7-1,23.1,4.7,23.9,3.8c0.1-0.2-4.9-3.4-4.7-3.6c0.4-0.6,13.5,4.1,13.9,3.5c0.1-0.2-4.3-2.9-4.2-3.1
			c0.5-0.7,16.5,4,17,3.3c0.1-0.2-5.4-3.8-5.3-4c0.9-1.1,27.2,5,28,3.9c0.1-0.2-4.5-3.1-4.3-3.3c0.8-1.1,27,4.2,27.8,3.1
			c0.1-0.2-4.5-3.1-4.3-3.3c0.8-1,24.4,4.2,25.2,3.2c0.1-0.2-4.4-3-4.3-3.2c0.9-1.1,27.4,3.8,28.3,2.7c0.1-0.2-4.2-2.9-4-3
			c0.8-1.1,25.5,4.3,26.3,3.2c0.1-0.2-4.4-3-4.3-3.2c0.6-0.8,18.1,4.8,18.7,4c0.1-0.2-5.1-3.5-4.9-3.7c0.7-0.9,22.8,3.6,23.5,2.7
			c0.1-0.2-4.2-2.8-4-3c0.4-0.6,14.1,4,14.5,3.4c0.1-0.2-4.6-3.2-4.5-3.4c0.5-0.7,15.8,4.6,16.3,4c0.1-0.2-5-3.4-4.8-3.6
			c0.6-0.8,19.6,3.5,20.3,2.7c0.1-0.2-4.3-2.9-4.1-3.1c0.8-1.1,26.5,5.1,27.3,4c0.1-0.2-4.5-3.1-4.4-3.3c0.3-0.4,9.8-4.1,10.2-4.5
			c0.1-0.1-3.7-2.6-3.6-2.7c0.3-0.4,2.4-9.3,2.7-9.7c0.1-0.1-1.7-1.1-1.6-1.2c0.4-0.6,2.2-13,2.6-13.6c0.1-0.1-2.9-1.9-2.8-2.1
			c0.4-0.5,2-12.5,2.4-13c0,0-0.4-0.3-0.4-0.3"/>
	</g>
</g>
<g>
	<g>
		<path class="st0" d="M72.2,323.4c0,0,0.9-0.9,0.9-0.9c0.3,0.3-0.9,5.7-0.9,5.7c0.4,0.4,5.7-6.3,6-6c0.2,0.2-6,7-6,7
			c0.4,0.4,7-7.1,7-7c0.5,0.5-7.1,8.9-6.8,9.2c0.2,0.2,8.4-9.6,9-9c0.7,0.7-9.4,12.1-9.3,12.3c0,0,11.7-12.7,12.2-12.2
			c0,0-12.1,18.5-11.9,18.7c0.5,0.5,17.3-19.7,18.5-18.5c1.5,1.5-18.3,22.4-18.3,22.4s22.4-22.5,22.4-22.4c0,0-23.7,23.8-22.7,24.8
			c1.3,1.3,24-25.9,25-25c0.2,0.2-25.9,30.3-24.7,31.5c1.6,1.6,29.2-33.7,31.5-31.5c2,2-32.9,30.9-31.6,32.2
			c1.8,1.8,30.5-34,32.2-32.2c0.2,0.2-33.4,33.3-32.2,34.6c2.6,2.6,33-35.8,34.4-34.4c1,1-35.3,39.9-34.5,40.7
			c0.5,0.5,38.9-42.8,40.9-40.9c1.5,1.5-39.5,40.1-38.4,41.2c0.3,0.3,39.6-42.9,41.2-41.2c1,1-41.4,40.8-40.9,41.4
			c2.7,2.7,39.2-43.9,41.6-41.6c1.8,1.8-39.6,39.6-37.9,41.3c2.7,2.7,38.3-44.3,41.3-41.3c1.4,1.4-43.9,38.8-41.3,41.4
			c0,0,38.8-44.2,41.5-41.5c2.2,2.2-37.4,40-35.8,41.6c2.2,2.2,40.6-42,41.3-41.3c2,2-35.8,39.8-34.5,41c2.5,2.5,39-43.4,41.2-41.2
			c1.6,1.6-36.2,41.2-36,41.3c0.2,0.2,39.3-43.6,41.4-41.4c1.3,1.3-37.4,39.6-35.7,41.3c0.8,0.8,39.9-41.7,40.8-40.8
			c0.4,0.4-39.3,39.8-37.9,41.2c2.3,2.3,39-43.5,41.2-41.2c2.5,2.5-36,41-36,41c0.8,0.8,38.6-43.7,41.2-41.2
			c0.4,0.4-41.4,39.7-40.2,41c2.8,2.8,39.5-42,40.7-40.7c1.7,1.7-40.4,40.2-39.8,40.8c1.8,1.8,38.5-43.2,40.9-40.9
			c2.2,2.2-35.9,40.6-35.3,41.2c0.5,0.5,38.6-44.1,41.3-41.3c1.4,1.4-34.9,40.3-34.1,41.2c1.5,1.5,38.9-43.4,41.1-41.1
			c2.4,2.4-40.2,39.7-38.7,41.2c1,1,41.5-41.5,41.5-41.5c0.4,0.4-37.1,38.8-34.7,41.3c2.4,2.4,38.6-43.7,41.2-41.2
			c1.3,1.3-41.6,39.5-39.7,41.4c2.5,2.5,40.4-42.2,41.3-41.3c1.3,1.3-40.8,39.9-39.7,41c1.3,1.3,38.7-43.5,41.1-41.1
			c0.1,0.1-38.9,38.7-36.2,41.4c2.7,2.7,38.3-44.3,41.3-41.3c1,1-39.9,39.9-38.7,41.2c1.1,1.1,39.8-43.1,41.4-41.4
			c0,0-38.4,39.6-36.9,41.2c2.2,2.2,39.9-42.3,41.1-41.1c2.5,2.5-41.1,41.3-41.1,41.3c1.6,1.6,40-42.9,41.5-41.5
			c1.5,1.5-38,39.7-36,41.6c2.3,2.3,39.5-43.5,41.5-41.5c1.7,1.7-42.8,39.4-40.7,41.5c1.5,1.5,40.9-42.3,41.6-41.6
			c1.6,1.6-38.8,40.3-37.7,41.5c2.2,2.2,40.7-41.8,41.3-41.3c1.7,1.7-36.7,40.5-36,41.1c1.3,1.3,37.8-43.9,40.8-40.8
			c2.7,2.7-41.6,38.5-39,41.1c0.8,0.8,39.2-43.3,41.2-41.2c0.4,0.4-41.3,40.4-40.3,41.4c3,3,39.5-43.8,41.7-41.7
			c2.3,2.3-35.2,40.6-34.4,41.3c2.7,2.7,40.3-42.5,41.4-41.4c2,2-42.7,39.2-40.4,41.6c0.3,0.3,40.6-42.2,41.4-41.4
			c2.9,2.9-40.9,39.1-38.6,41.3c0.9,0.9,39.4-42.9,41.2-41.2c2.3,2.3-38.6,39.6-36.7,41.4c3,3,40.4-42.7,41.6-41.6
			c2.3,2.3-36.9,40.7-36.3,41.4c0.3,0.3,39.5-42.7,41.1-41.1c2,2-37.7,40.7-37.4,41c2.4,2.4,41.1-41.4,41.2-41.2
			c1.3,1.3-35,40.8-34.5,41.3c3.1,3.1,41.1-41.1,41.1-41.1c2.7,2.7-38.3,39.3-36.3,41.4c1.5,1.5,39.5-43.6,41.6-41.6
			c2.8,2.8-40,41.3-40,41.4c2.9,2.9,39.1-43.7,41.4-41.4c1.6,1.6-36.9,40.9-36.4,41.4c2.4,2.4,38.7-44,41.4-41.4
			c0.2,0.2-39.4,41-39.4,41c0.7,0.7,39.4-42.8,41.1-41.1c0.1,0.1-39.3,39.3-37.2,41.4c1.8,1.8,39.1-43.4,41.2-41.2
			c1.4,1.4-36.7,41.3-36.7,41.3c1.6,1.6,39.4-43.6,41.5-41.5c1,1-42,39.7-40,41.6c1.5,1.5,41.4-41.4,41.4-41.4
			c1.5,1.5-39.3,38.9-36.9,41.3c1.9,1.9,40.4-42.8,41.6-41.6c2.6,2.6-42.3,39.6-40.6,41.3c1.1,1.1,39.5-42.2,40.8-40.8
			c0.6,0.6-36.1,39.4-34.3,41.3c1.6,1.6,40.3-42.1,41.2-41.2c0.3,0.3-38.5,40.6-38.2,40.9c3,3,40.7-41.3,41-41
			c2.5,2.5-41.1,41.3-41.1,41.3c2.4,2.4,38.4-44.2,41.3-41.3c1.8,1.8-37.1,38.8-34.9,41c1.6,1.6,39.8-43,41.4-41.4
			c0.7,0.7-39.1,38.8-36.3,41.7c2.9,2.9,39.6-43.4,41.5-41.5c2.4,2.4-36.7,40-35.2,41.6c2.9,2.9,38.2-41.4,39.8-39.8
			c1.7,1.7-40.4,37-38,39.4c0.4,0.4,35-40.6,37.8-37.8c0.8,0.8-33.6,36.3-31.9,37.9c2.3,2.3,32-32.3,32.1-32.1
			c1.5,1.5-31.4,30.6-29.6,32.4c0,0,29.2-29.5,29.3-29.3c1.7,1.7-24.1,29.2-23.9,29.4c1.5,1.5,22.4-25.2,23.8-23.8
			c1,1-18.6,22.2-17.4,23.4c1.3,1.3,16.8-17.9,17.3-17.3c0.2,0.2-17.2,16.6-16.1,17.7c0.9,0.9,15-17.2,16.1-16.1
			c0.5,0.5-10.1,15.6-9.8,16c0,0,9.8-10.6,10.2-10.2c0.6,0.6-9.1,10.1-9,10.1c0.6,0.6,8.4-9.4,8.9-8.9c0.2,0.2-3.1,8.6-3.1,8.6
			c0.2,0.2,2.7-3,2.8-2.8c0.1,0.1-0.5,2.7-0.4,2.8c0,0,0.4-0.4,0.4-0.4"/>
		<path class="st1" d="M73.5,323c0,0,1.2-1.3,1.2-1.2c0.1,0.1,4.9,1,5.1,1.2c0,0,1.1-1.1,1.1-1.1c0,0,0.2,1.2,0.2,1.3c0,0,0.9-1,1-1
			c0,0,2.9,0.9,2.9,0.9c0,0,1.2-1.3,1.3-1.3c0.1,0.1-0.7,1.5-0.7,1.5c0,0,1.6-1.6,1.6-1.6c0,0,2,1.3,2,1.3c0,0,0.9-0.9,0.9-0.9
			c0.2,0.2,4.2,0.6,4.4,0.8c0,0,1.1-1.2,1.1-1.1c0.1,0.1,2.2,1.4,2.2,1.4c0,0,1.2-1.2,1.2-1.2c0,0,0.1,1,0.2,1c0,0,0.8-0.9,0.8-0.8
			c0.1,0.1,3,1,3,1c0.1,0.1,1.4-1.4,1.4-1.4c0,0,0.4,1.5,0.5,1.6c0,0,1.6-1.8,1.7-1.7c0,0,4.5,1.1,4.6,1.3c0,0,0.8-0.8,0.8-0.8
			c0,0,4.6,1,4.6,1c0,0,1.3-1.3,1.3-1.3c0.1,0.1,3.8,1.5,3.8,1.5c0,0,1.5-1.6,1.5-1.5c0.1,0.1,1.8,1.3,1.9,1.4c0,0,1.2-1.2,1.2-1.2
			c0.1,0.1,2.1,1,2.2,1.1c0,0,0.8-0.9,0.9-0.9c0,0,0.7,1,0.8,1c0,0,1.1-1.2,1.1-1.1c0,0,1,0.8,1.1,0.8c0.1,0.1,1.1-1.2,1.2-1.2
			c0,0,2.4,1,2.5,1.1c0.1,0.1,1-1.1,1.1-1.1c0.2,0.2,4,1.2,4.2,1.4c0,0,1.1-1.2,1.2-1.2c0,0,0.3,1.1,0.4,1.2c0,0,1-1.1,1-1
			c0,0-0.1,0.8-0.1,0.8c0,0,1-1.1,1.1-1.1c0,0-1.2,1.2-1.1,1.3c0.1,0.1,1.3-1.3,1.3-1.3c0,0,4.6,1.1,4.8,1.3
			c0.1,0.1,1.2-1.2,1.2-1.2c0,0,1.2,1.2,1.2,1.3c0.1,0.1,1.5-1.6,1.5-1.5c0.2,0.2,3.5,1.1,3.7,1.2c0,0,1-1.1,1-1
			c0.1,0.1,3.3,0.9,3.3,0.9c0,0,0.9-0.9,0.9-0.9c0,0,1,1.2,1.1,1.2c0.1,0.1,1.4-1.5,1.4-1.4c0,0,5.1,1,5.3,1.2c0,0,1.1-1.1,1.1-1.1
			c0.1,0.1,4.9,0.8,5.1,1.1c0,0,1-1.1,1-1c0,0,0.7,1.1,0.7,1.2c0.1,0.1,0.9-1,1-1c0.1,0.1-1,1.2-1,1.2c0.1,0.1,1.3-1.4,1.4-1.4
			c0.2,0.2,5.7,1.2,5.7,1.2c0,0,1.3-1.4,1.4-1.4c0,0-0.9,1.4-0.9,1.4c0.1,0.1,1.2-1.3,1.2-1.2c0,0,2.2,1.2,2.3,1.2
			c0,0,1.1-1.2,1.1-1.1c0,0,1.6,0.7,1.7,0.8c0,0,1.2-1.3,1.2-1.2c0,0-1.4,1.5-1.3,1.6c0,0,1.1-1.2,1.1-1.1c0.1,0.1,1.5,0.9,1.5,1
			c0,0,1.4-1.5,1.5-1.5c0.2,0.2,5.3,1.3,5.3,1.3c0,0,1.2-1.3,1.2-1.2c0,0,0.8,1.3,0.9,1.3c0,0,0.9-1,1-1c0.1,0.1,3.5,0.7,3.6,0.8
			c0,0,1.1-1.2,1.1-1.1c0,0,0.2,1.2,0.2,1.3c0,0,1.2-1.4,1.3-1.3c0.2,0.2,3.6,1.1,3.7,1.1c0,0,1-1,1-1c0,0,0.8,1.4,0.8,1.5
			c0,0,1.4-1.5,1.5-1.5c0.1,0.1,2.5,1.1,2.6,1.1c0,0,1.2-1.2,1.2-1.2c0.1,0.1,4.3,0.8,4.5,1c0,0,1.2-1.2,1.2-1.2
			c0.1,0.1,3.9,1.5,4,1.5c0,0,1.5-1.5,1.5-1.5c0.2,0.2,5.2,1,5.4,1.3c0.1,0.1,1-1.1,1-1c0,0,0.7,0.9,0.7,1c0,0,0.9-1,1-1
			c0,0,2.4,0.9,2.4,0.9c0.1,0.1,0.9-1,1-1c0,0,0.6,1,0.6,1c0,0,1.2-1.3,1.3-1.3c0.1,0.1,1.3,1.3,1.4,1.4c0,0,1-1.1,1-1
			c0,0,2.9,1.3,3,1.4c0,0,1.7-1.8,1.8-1.8c0,0,0.6,1.6,0.7,1.7c0,0,1.4-1.5,1.5-1.5c0,0-0.5,1.2-0.4,1.3c0.1,0.1,1.4-1.5,1.4-1.4
			c0.1,0.1,4.3,1.4,4.4,1.6c0,0,1.6-1.7,1.6-1.6c0.2,0.2,4.4,1.5,4.5,1.7c0,0,1.6-1.7,1.7-1.7c0,0,2.9,1.4,3.1,1.6
			c0,0,1.1-1.2,1.2-1.2c0,0,5,1.2,5.2,1.3c0,0,1.4-1.4,1.4-1.4c0.2,0.2,4.4,1.1,4.4,1.1c0,0,1-1,1-1c0.2,0.2,5.8,0.6,6.1,0.9
			c0.1,0.1,1.2-1.2,1.2-1.2c0.1,0.1,1,4.5,1.1,4.6c0.1,0.1,1.2-1.3,1.3-1.3c0,0-1.4,6.8-1.4,6.9c0,0,1.8-1.8,1.8-1.8
			c0.1,0.1-1.8,2.8-1.7,2.9c0,0,1.5-1.5,1.5-1.5c0.3,0.3-1.3,7.9-1.1,8.1c0,0,0.8-0.9,0.9-0.9c0.3,0.3-1.3,5.7-1,6
			c0,0,1.2-1.3,1.2-1.2c0,0-1.2,7.2-1.1,7.3c0.1,0.1,1.1-1.2,1.2-1.2c0.2,0.2-1.4,6.3-1.4,6.3c0.1,0.1,1.4-1.5,1.4-1.4
			c0.2,0.2-1.6,7.3-1.2,7.6c0,0,0.8-0.9,0.9-0.9c0,0-1.2,1.2-1.1,1.3c0.1,0.1,1.2-1.2,1.2-1.2"/>
		<path class="st1" d="M71.7,322.9c0,0,0.9-0.9,0.9-0.9c0.3,0.3-0.9,5.7-0.9,5.7c0.1,0.1,1.5-1.6,1.5-1.5c0,0-1.5,2.5-1.5,2.5
			c0.1,0.1,1.5-1.6,1.6-1.6c0.2,0.2-1.4,3.6-1.3,3.7c0,0,1.1-1.2,1.1-1.1c0.2,0.2-1.4,4.3-1.4,4.3c0,0,1.3-1.3,1.3-1.3
			c0,0-1.1,7.7-1,7.8c0,0,0.8-0.9,0.8-0.8c0.2,0.2-0.7,4.8-0.7,4.8s0.7-0.7,0.7-0.7c0,0-1.2,3-1.1,3.1c0,0,1.2-1.3,1.3-1.3
			c0,0-1.3,7.6-1,7.8c0,0,0.9-1.1,1-1c0.1,0.1-1.3,1.7-1.2,1.8c0.1,0.1,1.1-1.2,1.2-1.2c0,0-1.3,3.5-1.2,3.6c0.1,0.1,0.9-1,0.9-0.9
			c0.1,0.1-1.2,7.2-1.1,7.3c0,0,1.3-1.4,1.3-1.3c0.1,0.1,0.2,2.6,0.2,2.6c0,0,1.2-1.2,1.2-1.2c0,0-0.8,1.3-0.8,1.3
			c0.1,0.1,1.5-1.6,1.5-1.5c0.1,0.1,2,1.2,2.1,1.3c0.1,0.1,1.2-1.3,1.3-1.3c0,0-1.4,1.2-1.3,1.3c0,0,1.4-1.5,1.5-1.5
			c0.2,0.2,4.1,1.4,4.2,1.6c0.1,0.1,1.3-1.3,1.3-1.3c0.2,0.2,5.4,0.9,5.6,1c0.1,0.1,1.1-1.2,1.2-1.2c0.1,0.1,4,1.3,4,1.3
			c0,0,1.3-1.4,1.4-1.4c0.1,0.1,4.2,1.1,4.3,1.3c0,0,0.7-0.8,0.7-0.7c0,0,2.1,1.1,2.2,1.1c0.1,0.1,1.1-1.2,1.2-1.2
			c0.2,0.2,4.1,0.9,4.1,0.9c0,0,1.1-1.2,1.1-1.1c0,0-0.2,0.9-0.1,0.9c0.1,0.1,0.7-0.7,0.7-0.7c0,0,0.2,0.8,0.3,0.8
			c0,0,0.8-0.9,0.8-0.8c0.2,0.2,4.7,1.1,4.7,1.2c0,0,1.2-1.4,1.3-1.3c0.2,0.2,5.8,1,5.9,1.1c0,0,1-1.1,1.1-1.1
			c0.1,0.1,1.3,1.1,1.4,1.2c0,0,1.4-1.4,1.4-1.4c0,0,5.1,1,5.4,1.2c0.1,0.1,1.1-1.2,1.1-1.1c0,0,0.3,1.3,0.3,1.3
			c0.1,0.1,1.2-1.3,1.3-1.3c0,0,0.3,1,0.3,1c0,0,1-1.1,1.1-1.1c0,0,3.6,1.2,3.8,1.3c0.1,0.1,1.2-1.3,1.3-1.3c0,0,1.4,1.1,1.4,1.2
			c0,0,1.4-1.4,1.4-1.4c0,0,3.1,1,3.2,1.1c0,0,1-1.1,1.1-1.1c0.1,0.1-1.1,1.3-1.1,1.3c0,0,1.4-1.4,1.4-1.4c0.1,0.1,3.9,1.4,4,1.6
			c0.1,0.1,1.4-1.5,1.5-1.5c0,0-0.7,1.4-0.7,1.4c0,0,1.5-1.6,1.6-1.6c0.1,0.1,2.3,1.4,2.4,1.4c0.1,0.1,1.2-1.2,1.2-1.2
			c0.1,0.1,4,1,4,1.1c0,0,0.7-0.9,0.8-0.8c0.1,0.1,0.9,0.9,1,1c0,0,1.2-1.2,1.2-1.2c0,0-0.3,1.4-0.2,1.4c0.1,0.1,1.6-1.7,1.6-1.6
			c0.2,0.2,5.5,1.2,5.6,1.3c0.1,0.1,1.3-1.4,1.3-1.3c0.1,0.1-0.4,1.4-0.3,1.5c0,0,1.3-1.4,1.4-1.4c0.1,0.1,1.4,1.2,1.4,1.3
			c0,0,1.1-1.2,1.1-1.1c0.1,0.1,3.2,1.3,3.3,1.4c0.1,0.1,1.5-1.5,1.5-1.5c0.2,0.2,3.7,1.3,3.7,1.3c0,0,1.1-1.1,1.1-1.1
			c0.1,0.1,2.6,0.9,2.6,0.9c0.1,0.1,1.2-1.2,1.2-1.2c0.1,0.1,5.5,1.2,5.5,1.2c0.1,0.1,1-1,1-1c0.2,0.2,3.7,1.2,3.8,1.3
			c0,0,1.5-1.5,1.5-1.5c0.1,0.1,0.1,1.4,0.1,1.4c0.1,0.1,1.3-1.4,1.4-1.4c0.1,0.1,3.6,1.3,3.7,1.4c0.1,0.1,1.3-1.4,1.3-1.3
			c0,0,0.6,1,0.6,1c0,0,1-1.1,1.1-1.1c0,0,2.7,1.2,2.8,1.4c0,0,1.1-1.2,1.2-1.2c0.1,0.1,3.3,1.2,3.3,1.2c0,0,1.4-1.5,1.5-1.5
			c0,0,0,1.5,0,1.6c0,0,1.4-1.4,1.4-1.4c0.1,0.1,3,1.1,3.2,1.3c0,0,1.5-1.6,1.5-1.5c0.1,0.1-0.5,1.2-0.5,1.3c0,0,0.8-0.8,0.8-0.8
			c0.1,0.1,5.6,1,5.8,1.2c0,0,1.2-1.2,1.2-1.2c0,0,1.9,0.8,1.9,0.9c0.1,0.1,0.9-1,0.9-0.9c0.1,0.1-1.1,1.3-1.1,1.3
			c0.1,0.1,1.2-1.3,1.3-1.3c0.2,0.2,4.9,0.7,5.1,0.9c0,0,1.3-1.4,1.3-1.3c0.1,0.1,3.6,1.4,3.8,1.6c0.1,0.1,1.4-1.5,1.4-1.4
			c0.2,0.2,4.7,1.4,4.9,1.5c0.1,0.1,1.6-1.7,1.6-1.6c0,0,0.1,1.2,0.2,1.3c0,0,1-1.2,1.1-1.1c0.1,0.1,4.6,1,4.8,1.2
			c0.1,0.1,1.4-1.4,1.4-1.4c0.1,0.1,1,1.6,1.1,1.6c0,0,1.3-1.3,1.3-1.3c0.2,0.2,4.1,1.4,4.1,1.4c0.1,0.1,1.3-1.4,1.4-1.4
			c0.2,0.2,4.9,0.7,5.1,0.9c0.1,0.1,0.9-0.9,0.9-0.9c0,0,0.3,1.2,0.3,1.3c0.1,0.1,1.2-1.3,1.2-1.2c0.1,0.1,5,1,5.1,1.1
			c0,0,1.5-1.6,1.5-1.5c0.1,0.1-0.4,1.5-0.4,1.5c0.1,0.1,1.3-1.4,1.3-1.3c0.1,0.1,4.4,1,4.5,1.1c0.1,0.1,0.8-0.9,0.8-0.8
			c0.1,0.1,3.5,0.7,3.5,0.8c0,0,0.4-0.4,0.4-0.4"/>
	</g>
</g>
<g>
	<g>
		<path class="st2" d="M73.9,443.5c0,0-0.4-0.3-0.4-0.3c0.5-0.6,15.4,1.1,15.8,0.5c0.6-0.8-16-10.9-15.4-11.6
			c1.2-1.6,37.2,13.5,38.5,11.9c1.4-1.9-39.7-26.9-38.3-28.8c2-2.7,59.5,31.2,61.5,28.5c2.3-3.1-65.2-44.3-62.8-47.4
			c2.7-3.5,72.6,50.5,75.3,46.9c2.3-3.1-63.7-43.1-61.4-46.2c2.6-3.4,70,49.9,72.6,46.4c2.3-3.1-64.6-43.8-62.3-46.9
			c2.9-3.9,81.5,51.2,84.4,47.3c2.3-3.1-64.2-43.5-61.9-46.6c2.9-3.9,82.7,50.2,85.7,46.4c2.3-3.1-65.1-44.2-62.8-47.3
			c2.9-3.9,82.5,51.4,85.4,47.5c2.3-3.1-64-43.4-61.7-46.5c2.9-3.9,82.4,49.9,85.3,46c2.3-3.1-64.5-43.7-62.1-46.8
			c2.9-3.9,82.3,50.5,85.2,46.6c2.3-3.1-63.7-43.1-61.4-46.3c2.9-3.8,79.9,50.9,82.7,47.1c2.3-3.1-65-44.1-62.7-47.2
			c2.6-3.4,68.6,50.8,71.2,47.4c2.3-3.1-65.8-44.7-63.4-47.8c2.9-3.8,79.3,51.5,82.1,47.7c2.3-3.1-65.8-44.7-63.5-47.8
			c2.9-3.9,81.2,51.2,84.1,47.4c2.3-3.1-63.9-43.3-61.6-46.4c2.6-3.4,68.6,49.9,71.2,46.5c2.3-3.1-64.8-43.9-62.4-47
			c2.8-3.7,76.9,50.8,79.7,47.1c2.3-3.1-64.7-43.9-62.3-47c3-3.9,83.8,51,86.7,47c2.3-3.1-65.1-44.2-62.8-47.3
			c2.8-3.8,79.3,50.7,82.2,47c2.3-3.1-64.9-44-62.5-47.1c2.9-3.9,82,51,84.9,47.1c2.3-3.1-65-44.1-62.6-47.2
			c2.8-3.7,75.6,51.3,78.4,47.6c2.3-3.1-64.5-43.7-62.1-46.8c2.8-3.8,79.2,50.9,82.1,47.1c2.3-3.1-66.1-44.9-63.8-48
			c2.7-3.5,72.5,50.9,75.2,47.4c2.3-3.1-64.3-43.6-62-46.7c2.9-3.8,80,50.8,82.9,47c2.3-3.1-65.4-44.4-63.1-47.5
			c2.9-3.9,82.2,50.8,85.1,46.9c2.3-3.1-64.7-43.9-62.4-47c2.6-3.4,69.4,50.7,72,47.3c2.3-3.1-65.3-44.3-62.9-47.4
			c2.8-3.7,76.7,51,79.5,47.3c2.3-3.1-64.9-44-62.5-47.1c2.8-3.7,75.8,50.5,78.5,46.9c2.3-3.1-63.6-43.1-61.3-46.2
			c2.5-3.4,67.7,49.7,70.2,46.4c2.3-3.1-65.1-44.1-62.7-47.3c2.6-3.4,69.1,50.6,71.7,47.2c2.3-3.1-64.1-43.4-61.7-46.5
			c2.5-3.4,70.1,46,72.6,42.6c2.2-2.9-58.9-39.9-56.8-42.8c2-2.7,55.3,38.1,57.3,35.4c1.8-2.3-49.2-33.4-47.4-35.7
			c1.7-2.2,45.7,31,47.4,28.8c1.4-1.9-38.5-26.1-37.1-28c1.3-1.7,36.2,19.6,37.5,18c0.9-1.2-25.8-17.5-24.9-18.8
			c0.8-1,24.2,8.5,25,7.5c0.3-0.5-10.4-7.2-10.1-7.6c0.3-0.4,9.9,1.6,10.2,1.2c0,0-1.4-1-1.4-1"/>
		<path class="st3" d="M75,441.7c0.1-0.1-3.1-2.1-3-2.3c0.4-0.5,1.8-11.9,2.2-12.4c0.1-0.1-1.7-1-1.6-1.2c0.5-0.7,1.8-15.6,2.3-16.3
			c0.1-0.1-2.8-1.9-2.7-2c0.2-0.3,2.8-5.3,3-5.5c0.1-0.1-2.6-1.7-2.4-1.8c0.7-0.9,20.8-1.4,21.5-2.3c0.1-0.2-3.9-2.7-3.8-2.9
			c0.7-0.9,22.6,3.8,23.3,2.9c0.1-0.2-4.2-2.9-4.1-3.1c0.9-1.2,28,4.6,28.9,3.4c0.1-0.2-4.8-3.3-4.6-3.5c0.5-0.6,15.1,3.8,15.5,3.1
			c0.1-0.2-4.3-3-4.2-3.2c0.4-0.6,13.6,4.1,14,3.5c0.1-0.2-4.5-3.1-4.4-3.3c0.6-0.8,18.9,3.6,19.5,2.8c0.1-0.2-2.9-1.9-2.8-2.1
			c0.8-1,24.9,3.4,25.6,2.3c0.1-0.2-3.7-2.5-3.6-2.7c0.7-0.9,21.8,3.1,22.4,2.2c0.1-0.2-3.1-2.1-3-2.3c0.6-0.8,18.4,3.8,19,3.1
			c0.1-0.2-4-2.7-3.9-2.9c0.5-0.7,16.9,3.6,17.4,2.9c0.1-0.2-3.7-2.5-3.5-2.7c0.7-1,23.7,3.5,24.4,2.5c0.1-0.2-4.7-3.2-4.6-3.4
			c0.6-0.9,20.7,4.1,21.3,3.2c0.1-0.2-4.2-2.8-4-3c0.9-1.2,27.8,4.3,28.7,3.2c0.1-0.2-3.6-2.4-3.4-2.6c0.5-0.7,16.3,3.3,16.8,2.7
			c0.1-0.2-4.6-3.2-4.4-3.3c0.6-0.8,18.8,3.4,19.4,2.6c0.1-0.2-3.5-2.3-3.4-2.5c0.8-1.1,26,4.5,26.9,3.4c0.1-0.2-4-2.7-3.9-2.9
			c0.4-0.6,13.9,3.1,14.3,2.5c0.1-0.2-3.5-2.3-3.4-2.5c0.4-0.5,13,3.5,13.4,2.9c0.1-0.2-3.8-2.5-3.6-2.7c0.4-0.6,14.2,3.5,14.6,2.9
			c0.1-0.2-5.4-3.7-5.2-3.9c0.6-0.8,19.2,3.8,19.8,3c0.1-0.2-2.6-1.7-2.5-1.9c0.5-0.7,17,2.7,17.5,2c0.1-0.2-3.2-2.1-3.1-2.3
			c0.7-1,23.3,3.3,24,2.4c0.1-0.2-3-1.9-2.8-2.1c0.7-1,23.8,3.8,24.6,2.8c0.1-0.2-4.3-2.9-4.2-3.1c0.8-1.1,25.5,3.8,26.3,2.8
			c0.1-0.2-4-2.7-3.8-2.9c0.7-1,23.9,4.4,24.6,3.4c0.1-0.2-4-2.7-3.8-2.9c0.7-0.9,22.5,3,23.2,2.1c0.1-0.2-3.4-2.2-3.2-2.4
			c0.9-1.2,28.2,4.4,29.1,3.2c0.1-0.2-4.3-2.9-4.1-3.1c0.8-1,24.8,4.1,25.6,3.1c0.1-0.2-4.4-3-4.3-3.2c0.6-0.7,17.9,3,18.4,2.3
			c0.1-0.2-2.7-1.7-2.5-1.9c0.4-0.5,12.1,3.5,12.5,3c0.1-0.2-4.4-3-4.2-3.2"/>
		<path class="st3" d="M72.5,444.9c0,0-0.4-0.3-0.4-0.3c0.5-0.6,15.4,1.1,15.8,0.5c0.1-0.2-3.8-2.6-3.7-2.8c0.8-1.1,25.9,4,26.7,3
			c0.1-0.2-3.9-2.6-3.7-2.8c0.8-1.1,26.1,3.6,27,2.5c0.1-0.2-4.8-3.3-4.7-3.5c0.5-0.7,16.6,3.8,17.1,3.1c0.1-0.2-3-2-2.9-2.2
			c0.4-0.6,13.7,3,14.1,2.4c0.1-0.2-4-2.7-3.8-2.9c0.8-1,25.2,4.3,26,3.2c0.1-0.2-3.6-2.4-3.4-2.6c0.8-1.1,26.4,3.4,27.2,2.3
			c0.1-0.2-4.5-3.1-4.3-3.2c0.8-1.1,26.2,4.5,27,3.4c0.1-0.2-3.4-2.2-3.2-2.4c0.8-1.1,26,3.1,26.9,2c0.1-0.2-3.8-2.6-3.7-2.8
			c0.8-1.1,25.9,3.7,26.7,2.6c0.1-0.2-3.1-2-2.9-2.2c0.7-1,23.5,4,24.3,3c0.1-0.2-4.4-3-4.2-3.2c0.4-0.5,12.4,3.9,12.8,3.3
			c0.1-0.2-5.1-3.6-5-3.7c0.7-1,23,4.6,23.7,3.7c0.1-0.2-5.2-3.6-5-3.8c0.8-1,24.8,4.4,25.6,3.3c0.1-0.2-3.3-2.2-3.1-2.4
			c0.4-0.5,12.3,3,12.7,2.5c0.1-0.2-4.1-2.8-4-3c0.6-0.9,20.6,3.9,21.3,3c0.1-0.2-4-2.7-3.9-2.9c0.9-1.1,27.4,4.1,28.3,3
			c0.1-0.2-4.5-3.1-4.3-3.3c0.7-1,23,3.9,23.7,2.9c0.1-0.2-4.2-2.9-4.1-3.1c0.8-1.1,25.7,4.1,26.5,3.1c0.1-0.2-4.3-3-4.2-3.2
			c0.6-0.8,19.3,4.4,19.9,3.6c0.1-0.2-3.9-2.6-3.7-2.8c0.7-1,22.9,4,23.6,3.1c0.1-0.2-5.5-3.8-5.3-4c0.5-0.7,16.2,4,16.7,3.4
			c0.1-0.2-3.7-2.5-3.5-2.7c0.7-1,23.7,3.9,24.5,3c0.1-0.2-4.8-3.3-4.6-3.5c0.8-1.1,25.8,4,26.6,2.9c0.1-0.2-4.1-2.8-3.9-3
			c0.4-0.6,13.1,3.8,13.6,3.3c0.1-0.2-4.6-3.2-4.5-3.4c0.6-0.8,20.4,4.1,21,3.2c0.1-0.2-4.2-2.9-4.1-3.1c0.6-0.8,19.5,3.7,20.1,2.9
			c0.1-0.2-3-2-2.9-2.1c0.4-0.5,11.4,2.8,11.8,2.4c0.1-0.2-4.4-3-4.3-3.2c0.4-0.5,12.9,3.7,13.3,3.2c0.1-0.2-3.4-2.3-3.3-2.5
			c0.5-0.7,16.7,1.5,17.2,0.8c0.1-0.1-2.5-1.7-2.4-1.8c0.2-0.3,2.8-5.3,3-5.6c0.1-0.1-3.5-2.4-3.4-2.6c0.2-0.2,3.2-4.1,3.4-4.4
			c0.1-0.1-2.4-1.6-2.3-1.7c0.3-0.3,2.4-7.9,2.7-8.2c0.1-0.1-3.8-2.6-3.7-2.8c0.3-0.4,3.5-8.1,3.8-8.5c0.1-0.1-4.1-2.9-4-3
			c0.3-0.4,3.8-8.2,4.1-8.6c0,0-1.4-1-1.4-1"/>
	</g>
</g>
<g>
	<g>
		<path class="st0" d="M549.5,539.6c0,0.1,1.1,0.4,1.1,0.4c0,0-6.5-0.6-6.6-0.6c-0.2,0.4,6.5,2.2,6.4,2.4c0,0-6.3-2.3-6.4-2.3
			c-0.2,0.4,6.9,2.4,6.9,2.6c-0.1,0.3-12.9-3-13-2.6c0,0,13.1,4.4,12.9,4.9c-0.4,1-15.8-6-16.2-5c-0.4,1.2,16.6,5.9,16.4,6.3
			c-0.2,0.6-21.9-6.7-22-6.4c-0.6,1.5,21.7,7.2,21.3,8.2c-0.4,0.9-27.3-9.5-27.8-8.2c-0.7,1.9,28.3,10.5,28.2,10.8
			c-0.5,1.2-35-13.2-35.9-10.8c-1,2.6,36.7,12,36,13.8c-0.8,2.1-42.6-16.6-43.7-13.7c0,0,44,15.8,43.7,16.8
			c-1.2,3.2-46.7-17.8-47.1-16.8c-0.4,1,47.7,17.2,47.4,18.2c-0.3,0.7-51.4-18.6-51.5-18.4c0,0,51.7,17.1,50.8,19.5
			c-1.6,4.1-57.4-22.2-58.5-19.4c-1.6,4.2,58.9,21.7,58.6,22.5c-1.4,3.5-68.6-24.4-69.3-22.5c-0.7,1.8,71,23.7,69.8,26.8
			c-2.1,5.5-77.9-26.6-77.9-26.6s77.9,28,77.2,29.7c-1,2.7-84.7-29.7-84.7-29.7c-1.2,3,86.5,28.5,84.9,32.6
			c-1.9,5-92.5-37.7-94.4-32.8c0,0,95.8,32.7,94.5,36.3c-2.3,5.9-101-39.9-102.4-36.2c-1.8,4.6,103.8,35.4,102.3,39.3
			c-2.6,6.9-106-45.2-108.3-39.2c-1.3,3.3,109.2,36.2,107.3,41.2c-0.1,0.4-115.4-46.3-117.3-41.3c-1.8,4.6,107.6,39.6,107,41.1
			c-0.2,0.5-117.6-46.3-119.6-41c-0.7,1.8,110,33.7,107.1,41.1c0,0-117.1-47-119.3-41.2c-2.2,5.8,108.2,38.4,107.1,41.1
			c-0.5,1.3-113.6-48.6-116.5-41c-0.5,1.2,107,41.1,107,41.1c-0.9,2.3-113.9-44.7-115.2-41.2c0,0.1,109.7,35,107.3,41.2
			c-1.7,4.5-115.6-47.3-118-41c-0.4,1,107.3,41.1,107.3,41.2c-2.5,6.6-118-41.2-118-41.2c-1.7,4.4,109.4,34.2,106.8,41
			c-0.3,0.7-107.9-42.2-108.3-41c-0.7,1.9,108.8,37.7,107.4,41.2c-1.3,3.5-120.1-42.5-120.6-41.2c-1.9,5,107.1,40.9,107.1,41.1
			c-0.7,1.8-109.2-46.1-111.1-41.2c-2.1,5.5,110.2,33.5,107.3,41.2c-0.7,1.9-117.8-43.2-118.6-41.3c0,0,107.7,39.4,107,41.1
			c-0.1,0.2-116.2-48.9-119.2-41c-1.1,2.9,108.4,36.9,106.8,41c0,0-106.6-42.9-107.4-41c-2.6,6.8,109.3,36.5,107.4,41.2
			c-2.6,6.9-110.4-48.2-113.1-41.2c-2.3,5.9,109,35.8,107,41.1c-0.5,1.2-111.4-49.6-114.7-41.2c-2.4,6.3,108.3,37.7,107,41.1
			c-1.1,2.7-110.3-48.1-112.9-41.1c-2.7,6.9,109.8,34.2,107.2,41.1c-2.8,7.4-107.4-44.7-108.8-41c-1.3,3.3,107.8,38.4,106.8,41
			c-2.3,6-107.4-42.9-108.1-41.1c-2.6,6.8,107.5,41.2,107.5,41.3c-2.3,6-112.9-47.1-115.2-41.1c-0.8,2.2,107,40.9,107,41.1
			c-1.2,3-113.4-44.5-114.6-41.2c-0.5,1.3,108,39,107.2,41.1c-1.5,4-112.8-43.5-113.7-41.2c-2.9,7.6,110.5,33.4,107.5,41.2
			c-2,5.3-119.5-45-121-41.2c-1.7,4.5,107.1,41,107,41.1c-3.1,8.1-117.6-42-118-41.1c-3.1,8,109.2,35.5,107,41.1
			c-2.9,7.6-114.3-48-116.9-41.1c-0.5,1.4,109.2,34.7,106.8,41c-1.3,3.5-110.6-44.8-112-41.1c-2.7,7.1,107.2,40.9,107.1,41.1
			c-3,7.9-113.2-41.2-113.2-41.1c-1,2.6,107.2,40,106.8,41c-3,7.8-108.2-45.4-109.9-41c-0.7,1.9,108.9,35.7,106.9,41
			c-1.8,4.7-114.2-48.5-117.1-40.9c-1.7,4.4,107.3,39.2,106.6,40.9c-3.1,8.1-111.4-42.8-112.1-41c-0.8,2.2,109.1,34.8,106.7,41
			c0,0-116.3-49.5-119.5-41c-1.2,3,108.6,37.2,107.1,41.1c0,0-105.7-45.1-107.3-41c-0.7,1.9,107.2,40.4,107,41.1
			c-0.2,0.5-119.1-45.5-120.8-41.2c-1.9,4.9,110.1,33.2,107.1,41.1c-2.2,5.8-108.2-45.4-109.8-41.1c-3,7.7,107.7,40.8,107.5,41.3
			c-0.2,0.6-107.9-48-110.5-41.2c-1.1,3,107.2,40.7,107.1,41.1c-0.6,1.6-114.2-46.5-116.2-41.2l107.4,41.2
			c-1.6,4.2-116-47-118.1-41.2c-2.2,5.6,108.4,37.2,107,41.1c-2.2,5.8-107-48.6-109.9-41.1c-2.4,6.2,109,36.7,107.3,41.2
			c-0.3,0.7-107.6-41.4-107.8-40.9c-1.6,4.1,109.5,33.9,106.8,41c-2.9,7.5-110.7-42.4-111.2-41c-2.3,5.9,109.1,35.8,107.1,41.1
			c-2.5,6.5-113.7-49.1-116.7-41.3c-0.9,2.2,108.6,37,107,41.1c-0.2,0.6-105.8-46.8-108-41.2c-0.4,1.1,108.4,38.3,107.3,41.2
			c-0.8,2-115.7-41-115.7-41c-1.9,4.9,109.9,33.3,106.9,41.1c-1.5,4-113.8-48.6-116.7-41.1c-1.2,3.1,109.1,35.8,107.1,41.1
			c-0.3,0.9-109.2-47.5-111.7-41.1c-1.7,4.3,110.2,33.4,107.2,41.2c-0.8,2.1-106-45.9-107.8-41.2c-2.4,6.3,109.3,36.7,107.6,41.3
			c-2.2,5.8-113.2-44.1-114.3-41.1c-3,7.7,109.2,36.4,107.4,41.2c0,0-106.4-48.6-109.2-41.2c-2.6,6.7,108.5,37.2,107,41.1
			c-2.9,7.5-118.8-46.5-120.8-41c-1.5,3.9,108.4,37.3,106.9,41c-0.3,0.7-110.7-42.9-111.4-41.1c-2.6,6.7,109.1,35.6,107,41.1
			c-2.3,6.1-110.4-41.4-110.6-41.1c-1.2,3.1,108.7,36.1,106.8,41c-2,5.3-117.2-43.6-118.3-40.9c-1.5,3.8,109.3,34.2,106.7,41
			c0,0-113.8-43.7-115.1-40.4c-1.3,3.3,107.7,33.8,105.2,40.4c-3,7.7-105.2-39.2-105.2-39.2c-0.4,1,102.3,39.2,102.3,39.3
			c-2.1,5.4-102.2-36.4-102.3-36.2c-2.1,5.4,95.9,33,94.7,36.3c-2.1,5.4-93.4-40.6-95.2-36c-1.7,4.5,93.6,35.9,93.6,35.9
			c-1.7,4.4-90.3-39.4-92.9-32.6c-2.1,5.5,85.6,31.6,85.1,32.7c0,0-83.2-35.5-85.1-30.7c-0.1,0.2,81,27.1,79.7,30.6
			c-1.8,4.6-79.3-31.5-80.2-29.2c-1,2.6,78.2,23.8,76.2,29.2c-0.2,0.5-74.1-28.8-75.9-24.1c-1.2,3.1,63.6,22,62.8,24.1
			c-1.1,2.8-62.6-20.9-63.2-19.2c-0.3,0.7,51.6,15.8,50.3,19.3c-0.9,2.4-49.4-15.5-49.9-14.2c-0.7,1.7,37.8,11.5,36.8,14.1
			c-1,2.6-36.2-12.6-36.5-11.6c0,0,30.4,10.7,30.1,11.5c0,0-30.2-8.6-30.3-8.5c0,0.1,22.6,7.9,22.3,8.6c-0.4,1-22-8.5-22.5-7.2
			c-0.1,0.3,18.8,6.1,18.4,7.1c-0.4,1.1-18.1-4.1-18.4-3.4c0,0,9.3,2.9,9.1,3.5c-0.2,0.6-9.3-2-9.3-1.8c-0.1,0.3,5.1,1.6,5,1.9
			c0,0.1-4.9-0.9-5-0.7c0,0.1,1.8,0.7,1.8,0.7"/>
		<path class="st1" d="M549.7,540.3c0,0,1.7,0.6,1.7,0.6c-0.1,0.1-1.2,2.4-1.3,2.6c0,0,1.4,0.5,1.4,0.5c0,0-1.9-0.3-1.9-0.2
			c0,0,1.2,0.4,1.2,0.5c0,0.1-0.7,3.1-0.7,3.1c0,0,1.3,0.5,1.3,0.5c-0.1,0.3-1.3,4.2-1.4,4.4c0,0,1.1,0.4,1.1,0.4
			c-0.1,0.1-1.3,4.2-1.3,4.2c0,0.1,1.2,0.4,1.2,0.5c0,0-1.3,2.7-1.4,2.8c0,0,1.5,0.5,1.4,0.6c0,0.1-1.2,3.6-1.3,3.7
			c0,0,1.6,0.6,1.6,0.6c-0.1,0.2-1.1,3.6-1.2,3.8c0,0.1,1,0.3,1,0.4c-0.1,0.2-1,3.5-1,3.5c0,0,1,0.4,1,0.4c0,0.1-1.1,0.7-1.1,0.7
			c0,0,0.9,0.3,0.9,0.4c0,0.1-1.3,2.1-1.3,2.3c0,0,1.5,0.5,1.4,0.6c0,0-1.2,0.4-1.2,0.4c0,0,1.3,0.5,1.3,0.5c0,0-1,1.2-1,1.2
			c0,0,0.9,0.3,0.9,0.4c0,0.1-6.1,0.5-6.1,0.5s2.5,0.8,2.5,1c-0.1,0.2-4.2-1.2-4.3-1.1c0,0.1,3.1,1.2,3.1,1.2
			c-0.1,0.1-3.2-1.2-3.2-1.2c0,0,3.3,1.3,3.3,1.3c-0.2,0.6-13.7-2-14-1.2c0,0.1,3.2,1.1,3.1,1.2c-0.2,0.4-9.5-1.5-9.6-1.2
			c0,0,3.2,1.2,3.2,1.2c-0.2,0.6-15.3-1.9-15.6-1.1c-0.1,0.2,2.8,1,2.8,1.1c0,0.1-11.3-2-11.6-1.2c0,0.1,2.8,0.9,2.7,1
			c0,0-3.7-1.2-3.8-1c0,0,2.8,1,2.8,1.1c-0.1,0.3-9.3-1.3-9.4-1.1c0,0,2.4,0.8,2.4,0.9c0,0.1-9.8-1.1-9.8-1c0,0.1,2.8,1,2.8,1.1
			c-0.1,0.1-6.4-1.3-6.5-1c0,0,3,1.1,2.9,1.1c-0.2,0.5-13.8-1.6-14-1.1c0,0,2.5,0.9,2.4,0.9c0,0-5.6-1.1-5.6-1
			c0,0.1,2.9,1.1,2.9,1.1c-0.1,0.3-11.3-1.1-11.4-0.9c-0.1,0.2,2.8,1,2.8,1.1c-0.3,0.7-9.9-1.5-10-1.2c0,0,2.6,1,2.6,1
			c-0.3,0.7-10.6-1.3-10.7-1c0,0,2.7,0.9,2.6,1c-0.2,0.4-10-1.5-10.3-0.9c-0.1,0.2,2.8,1.1,2.8,1.1c0,0-4.3-1.3-4.4-1.2
			c0,0,2.7,1,2.7,1c-0.4,1-14.9-1.4-15.1-0.9c0,0.1,2.5,0.8,2.4,0.9c0,0.1-8.7-0.9-8.7-0.9c0,0,2.8,0.9,2.7,1
			c-0.2,0.4-14.2-2-14.5-1.1c0,0.1,2.9,1,2.9,1.1c-0.1,0.1-7.3-1.3-7.4-1c0,0.1,2.9,1.1,2.8,1.1c-0.1,0.2-4.4-1.2-4.4-1.2
			c-0.1,0.1,2.6,0.9,2.6,1c0,0.1-4.9-1.4-5-1.1c-0.1,0.2,3.1,1,3.1,1.2c0,0.1-4.2-1.1-4.2-1c-0.1,0.2,2.6,0.8,2.5,1
			c-0.1,0.3-4.8-1.4-4.9-1.2c0,0,3.5,1.2,3.5,1.3c-0.1,0.4-9-1.4-9.1-1.1c0,0.1,2.6,0.9,2.5,1c-0.1,0.2-12.8-1.4-13-0.9
			c0,0.1,2.5,0.9,2.5,1c-0.1,0.4-11.4-1.8-11.7-1c0,0,2.7,0.9,2.7,1c0,0.1-4.2-1.3-4.3-1.1c0,0.1,3.3,1.3,3.3,1.3
			c-0.1,0.2-3.3-1.3-3.3-1.2c0,0.1,2.8,1,2.7,1.1c0,0.1-3.7-1.4-3.7-1.2c0,0,3.2,1.1,3.1,1.2c-0.2,0.4-5.7-1.2-5.7-1.1
			c0,0.1,3.1,1.2,3.1,1.2c-0.1,0.4-5.3-1.3-5.3-1.3c-0.1,0.2,3,1.1,3,1.1c-0.1,0.2-3.7-1.1-3.7-1.1c0,0.1,3,1,2.9,1.1
			c-0.3,0.7-13-1.8-13.2-1.2c0,0.1,3.1,1.1,3.1,1.2c0,0.1-5.6-1.1-5.6-1.1c-0.1,0.1,2.8,0.9,2.8,1.1c0,0-2.8-0.9-2.8-0.9
			c0,0.1,2.7,0.9,2.6,1c-0.3,0.7-11-1.2-11-0.9c0,0.1,2.8,0.9,2.8,1.1c-0.1,0.3-15.3-2.3-15.7-1.3c0,0.1,2.9,1,2.9,1.1
			c-0.2,0.6-12.4-1.1-12.4-1.1c-0.1,0.2,2.9,1,2.8,1.1c-0.2,0.6-14.1-1.2-14.1-1c0,0,2.9,0.9,2.9,1.1c0,0.1-5.3-1-5.3-0.9
			c0,0.1,2.7,0.9,2.7,1c-0.4,0.9-16.1-2.1-16.4-1.3c0,0.1,3,1.1,3,1.1c-0.1,0.3-15.4-1-15.4-0.9c0,0,2.5,0.8,2.4,0.9
			c-0.2,0.4-10.5-1.2-10.5-1.1c0,0.1,3,1,3,1.1c-0.4,0.9-15-2-15.4-1c0,0.1,2.5,1,2.5,1c-0.1,0.3-6-1.4-6.1-1.1
			c0,0.1,3.2,1.2,3.2,1.2c-0.2,0.6-11.4-2-11.7-1.3c0,0,2.7,0.8,2.7,1c-0.3,0.7-14.4-1.3-14.5-1.1c0,0,3.2,1.1,3.2,1.2
			c-0.3,0.9-13.1-1.8-13.4-1.2c0,0.1,2.8,1.1,2.8,1.1c-0.4,1.1-15.5-1.5-15.7-1.1c0,0.1,3.2,1.1,3.2,1.2c-0.1,0.3-7.5-1.6-7.6-1.2
			c0,0.1,3.1,1,3,1.2c0,0-12.8-1.4-12.9-1.1c0,0.1,2.8,1,2.8,1.1c-0.3,0.7-15-2-15.3-1.2c-0.1,0.2,3,1.1,3,1.1
			c-0.2,0.4-14.9-1.3-15-1c0,0.1,2.9,0.9,2.8,1.1c0,0-14.3-1.3-14.3-1.1c0,0,2.6,0.9,2.5,1c-0.2,0.6-10.5-1.1-10.6-0.9
			c0,0.1,2.8,1,2.8,1.1c0,0-7.8-1.3-7.8-1.1c0,0,2.7,1,2.7,1c0,0.1-9.5-1.2-9.6-1c-0.1,0.2,2.9,1,2.9,1.1c-0.1,0.3-5.1-1.2-5.1-1.2
			c0,0,2.7,0.9,2.6,1c-0.1,0.3-6.9-1.4-7.1-0.9c0,0.1,2.7,0.9,2.7,1c0,0.1-3.8-1.2-3.8-1.2c0,0,3.3,1.3,3.3,1.3
			c0,0.1-4.2-1.3-4.3-1.1c0,0,2.5,0.9,2.5,1c-0.1,0.2-5.8-1-5.8-0.9c0,0,2.8,1,2.7,1c0,0-12.6-1.8-12.8-1.2c0,0.1,3.3,1.1,3.3,1.3
			c-0.1,0.2-8.5-1.6-8.7-1.1c0,0.1,3,1,3,1.1c-0.4,1-14.2-1.6-14.4-1.1c0,0,2.6,1,2.6,1c-0.1,0.3-8.5-1.5-8.8-1
			c-0.1,0.2,2.5,0.8,2.5,0.9c-0.3,0.8-15-1.2-15.1-1c0,0.1,3,1.1,3,1.1c-0.1,0.3-11.6-1.7-11.9-1.2c0,0,3,1,2.9,1.1
			c-0.1,0.2-3.4-1.4-3.4-1.2c0,0,2.9,0.9,2.8,1.1"/>
		<path class="st1" d="M550,539.1c0,0.1,1.1,0.4,1.1,0.4c0,0-6.6-0.6-6.6-0.6c-0.1,0.2,2.6,0.9,2.5,1c0,0-2.5-0.8-2.5-0.8
			c-0.1,0.1,2.6,0.9,2.6,1c-0.1,0.2-8.7-1.2-8.8-1c0,0,2.5,0.8,2.5,0.9c-0.1,0.4-5.6-1.3-5.7-1c-0.1,0.2,2.8,1,2.8,1.1
			c-0.1,0.2-8.3-1.3-8.4-1.2c-0.1,0.2,2.5,0.9,2.5,1c-0.1,0.3-8.8-1.4-9-1c-0.1,0.2,3,1.1,3,1.2c-0.1,0.3-10.5-1.8-10.7-1.1
			c-0.1,0.2,3.1,1,3,1.2c-0.2,0.5-10.5-1.7-10.7-1c0,0,2.6,0.9,2.6,1c-0.1,0.4-6-1.1-6-1c0,0,2.9,1,2.8,1.1c0,0.1-7-1.3-7-1.3
			c0,0,2.8,0.9,2.7,1.1c-0.3,0.7-10.2-1.4-10.4-1c-0.1,0.2,2.7,1,2.7,1c-0.2,0.6-13.2-1.4-13.4-1.1c0,0.1,3.3,1.1,3.3,1.2
			c-0.3,0.8-11.3-1.1-11.3-1.1s2.3,0.8,2.3,0.9c-0.1,0.3-9.7-0.9-9.7-0.9c0,0.1,2.5,0.8,2.5,0.9c-0.2,0.6-11.8-1.7-12-1.1
			c0,0,3,1,2.9,1.1c-0.2,0.6-10.8-1.5-10.9-1.1c0,0.1,2.7,0.9,2.7,1c-0.2,0.5-8.5-1.4-8.7-1c0,0.1,3,1,3,1.1c0,0-12.8-1.8-13-1.3
			c0,0.1,2.7,1,2.7,1c0,0.1-15.1-1.6-15.3-0.9c0,0,2.9,0.9,2.8,1.1c0,0-14.7-1.8-15-1.1c0,0.1,2.8,1,2.8,1.1c0,0.1-11.9-1.7-12.2-1
			c0,0,2.7,1,2.7,1c-0.1,0.2-10.8-1.5-10.9-1.2c0,0,3.1,1,3,1.2c-0.2,0.5-13.4-1.7-13.7-1c0,0,3,1.1,3,1.1
			c-0.3,0.7-13.6-1.2-13.6-1.2c0,0.1,2.6,0.8,2.5,1c0,0-4-1-4-1c0,0,3.2,1.1,3.1,1.2c-0.2,0.4-16.2-1.3-16.3-1.1
			c0,0.1,2.8,1.1,2.8,1.1c0,0.1-6.6-1.4-6.7-1.2c0,0.1,3.1,1,3,1.1c-0.1,0.2-14.2-1.5-14.3-1.2c0,0,2.7,1,2.7,1
			c0,0-14.5-1.9-14.9-0.9c0,0.1,2.6,0.9,2.5,1c0,0-3-1-3-1c-0.1,0.2,3.2,1.1,3.1,1.2c-0.2,0.5-8.6-1.6-8.8-1.1
			c-0.1,0.1,2.7,0.9,2.7,1c0,0.1-10.1-1.9-10.4-1.1c-0.1,0.1,2.7,0.9,2.7,1c-0.1,0.2-8.4-1.6-8.6-1.1c-0.1,0.2,2.9,0.9,2.9,1.1
			c-0.1,0.3-4.5-1.1-4.5-1c0,0.1,2.5,0.9,2.5,1c-0.1,0.2-3.8-1.1-3.8-1c-0.1,0.2,3.2,1.2,3.2,1.2c-0.2,0.5-10.7-1.6-10.9-1
			c0,0,2.7,1,2.7,1c-0.1,0.3-10.2-1.4-10.3-1.2c0,0,2.9,1,2.9,1.1c-0.1,0.3-9.4-1.3-9.4-1.1c-0.1,0.2,3.2,1,3.2,1.2
			c-0.3,0.7-16.5-1.7-16.7-1.2c0,0.1,2.8,1.1,2.7,1.1c-0.3,0.9-13.6-1.1-13.7-1c-0.1,0.2,2.8,0.9,2.7,1c-0.3,0.8-12.4-1.8-12.7-1.1
			c0,0,2.6,0.8,2.5,1c-0.1,0.2-7.7-1.3-7.8-1.1c-0.1,0.2,2.8,1.1,2.8,1.1c-0.2,0.6-8.9-1-8.9-1c0,0.1,2.5,0.9,2.5,1
			c-0.1,0.4-5.5-1.2-5.6-1c0,0,2.6,0.9,2.6,1c-0.2,0.5-12.5-1.7-12.8-0.9c0,0.1,2.3,0.9,2.3,0.9c-0.2,0.5-7.7-1.1-7.8-1
			c0,0,2.5,0.8,2.4,0.9c0,0-14.8-2-15.2-1c0,0.1,2.9,1,2.8,1.1c0,0-3-1.1-3-1c0,0,2.7,1,2.7,1c0,0.1-16.3-1.7-16.5-1.2
			c0,0.1,2.9,0.9,2.8,1.1c-0.1,0.3-5.4-1.3-5.5-1.1c-0.1,0.2,3.2,1.2,3.2,1.2c0,0-6.1-1.6-6.2-1.2c0,0.1,2.8,1.1,2.8,1.1
			c-0.1,0.2-11.7-1.7-11.9-1.1l3.1,1.2c-0.2,0.5-13.6-1.9-13.9-1.2c0,0.1,2.7,0.9,2.7,1c-0.1,0.3-5.5-1.4-5.6-1.1
			c-0.1,0.1,3,1,3,1.1c0,0-3.5-0.9-3.5-0.9c0,0.1,2.5,0.8,2.5,1c-0.2,0.4-6.9-1-7-1c-0.1,0.1,2.9,1,2.8,1.1
			c-0.2,0.7-12.1-2-12.4-1.2c0,0.1,2.8,1,2.7,1c0,0-3.6-1.3-3.7-1.1c0,0,3.1,1.1,3,1.2c-0.1,0.2-11.5-1-11.5-1c0,0.1,2.7,0.9,2.7,1
			c-0.2,0.4-12.1-1.9-12.4-1.1c0,0.1,2.8,1,2.8,1.1c0,0.1-7.2-1.5-7.4-1.1c0,0.1,3,1,3,1.1c0,0.1-3.5-1.4-3.6-1.2
			c-0.1,0.1,3.3,1.2,3.3,1.3c-0.2,0.5-10-1.4-10.1-1.1c-0.1,0.2,3.2,1.1,3.1,1.2c0,0-4.8-1.5-5-1.2c-0.1,0.2,2.8,1,2.7,1.1
			c-0.4,1-16.3-1.7-16.6-1c0,0.1,2.7,0.9,2.7,1c0,0-7.1-1.2-7.2-1.1c-0.1,0.2,2.8,0.9,2.7,1c-0.1,0.3-6.3-1.1-6.3-1.1
			c0,0.1,2.6,0.9,2.6,1c-0.2,0.6-13.9-1.2-14-0.9c0,0.1,2.5,0.8,2.4,0.9c0,0-11.7-1.1-11.8-0.8c0,0.1,2,0.6,1.9,0.7
			c-0.1,0.1-1.9,0.4-1.9,0.4c0,0,0.8,0.3,0.8,0.3c-0.1,0.1-0.8,2.7-0.8,2.7c0,0.1,1.1,0.4,1.1,0.4c0,0.1-1.7-0.1-1.7-0.1
			c0,0,1.6,0.6,1.6,0.6c0,0.1-0.9,2.5-1,2.7c0,0.1,1.1,0.4,1.1,0.4c0,0-1,1.5-1,1.6c0,0,0.9,0.3,0.8,0.3c0,0.1-1.4,1-1.4,1
			c0,0,1.4,0.5,1.4,0.5c0,0-0.9,4.4-1.1,4.7c0,0,1.2,0.4,1.2,0.5c-0.1,0.2-1.6,4.3-1.6,4.4c0,0,1.8,0.6,1.8,0.7
			c-0.1,0.2-1.4,4.3-1.5,4.4c0,0,1.2,0.4,1.2,0.5c-0.1,0.1-0.9,2-0.9,2c0,0,0.6,0.2,0.6,0.2c0,0-0.8,2.8-0.8,2.8
			c0,0,1.1,0.4,1.1,0.4c0,0.1-1.2,0.9-1.3,1c0,0,1,0.3,0.9,0.4c-0.1,0.2-0.9,3.2-0.9,3.3c0,0,1.1,0.4,1.1,0.4c0,0.1-1.3,1.2-1.4,1.3
			c0,0.1,1.7,0.6,1.7,0.6c0,0-1.6,1.8-1.7,1.9c0,0.1,1.8,0.7,1.8,0.7"/>
	</g>
</g>
<g>
	<g>
		<path class="st2" d="M74.7,793c0,0-1.1-0.8-1.1-0.8c0.4-0.6,13.6,0.9,14.1,0.3c0.5-0.7-14.7-9.9-14.1-10.6
			c1.1-1.4,32.1,12.5,33.1,11.1c1.2-1.6-33.9-23-32.6-24.6c1.5-2,41.3,26.3,42.7,24.3c1.6-2.1-44.2-30-42.6-32.1
			c1.8-2.5,50.4,34.8,52.3,32.4c2-2.6-55.4-37.6-53.4-40.2c2.4-3.2,68.2,42.8,70.7,39.6c2.7-3.5-72.6-49.2-69.9-52.7
			c2.9-3.9,78.6,56.7,81.6,52.8c3.1-4.1-85.2-57.8-82.1-61.9c3.4-4.5,89.5,66.2,92.9,61.7c3.5-4.6-96.4-65.3-92.9-70
			c3.8-5,99.8,75.3,103.6,70.3c3.9-5.2-107.3-72.7-103.4-77.9c4.2-5.5,110.4,83.1,114.6,77.6c4.3-5.7-118.6-80.4-114.3-86.1
			c4.8-6.4,130.8,92.4,135.7,86c5.1-6.8-141.6-96-136.5-102.8c5.7-7.5,151.6,110.7,157.3,103.2c5.9-7.8-163.2-110.7-157.3-118.6
			c6.3-8.4,168.5,126.5,174.8,118.1c6.6-8.7-181.4-123-174.8-131.7c7.1-9.4,187.3,141.5,194.3,132.1
			c7.3-9.7-201.1-136.4-193.8-146.1C81.3,636,279,803,286.8,792.7c8-10.7-221.1-149.9-213.1-160.6c8.5-11.3,224.6,171.7,233.1,160.4
			c8.8-11.7-242.8-164.7-234-176.3c9.3-12.3,243.7,188.7,252.9,176.4c8.9-11.9-246.3-167-237.4-178.9
			C97.7,601.2,332,804.4,341.3,792c8.9-11.9-245.6-166.5-236.7-178.3c9.5-12.7,252,191.6,261.5,178.9
			c8.9-11.9-246.5-167.1-237.5-179c9.4-12.5,248.7,191.3,258.2,178.7c8.9-11.9-246.5-167.1-237.6-179
			C158.7,600.8,396.6,805.5,406,793c8.9-11.9-247.1-167.6-238.1-179.5c9.6-12.7,252.5,192,262.1,179.3
			C438.9,781,182.4,625,191.4,613.1c9.5-12.6,249.4,191.6,258.9,179c8.9-11.9-245.9-166.7-236.9-178.5c9.4-12.5,246.6,191.5,256,179
			c8.9-11.9-246.5-167.2-237.6-179c9.2-12.2,238.3,191.2,247.5,179c8.9-11.9-246.9-167.5-238-179.3
			c9.4-12.5,247.4,191.9,256.8,179.4c8.9-11.9-246.8-167.4-237.9-179.2c9.5-12.7,252.1,191.9,261.7,179.3
			c8.9-11.9-247.4-167.8-238.5-179.7c9.5-12.7,251.7,192.7,261.3,180c8.9-11.9-247.1-167.6-238.1-179.4
			C316,601,554.7,805.6,564.1,793.1c8.9-11.9-246.6-167.2-237.7-179.1c9.2-12.2,240.1,190.3,249.3,178.1
			c8.9-11.9-246.4-167-237.4-178.9c9.3-12.4,243.2,192.2,252.5,179.8c8.9-11.9-247.6-167.9-238.6-179.8
			C361.3,601,588.9,804,598,791.9C607,780,352.2,625.2,361.1,613.4c8.7-11.6,228,179.4,236.8,167.8
			c8.4-11.2-230.8-156.4-222.4-167.6c8.2-10.9,214.9,168.3,223.1,157.4c7.9-10.4-217.4-147.4-209.5-157.9
			c7.7-10.3,202.1,158.9,209.8,148.6c7.4-9.8-203.7-138.1-196.3-147.9c7.3-9.6,189,150,196.2,140.4c7-9.3-192.9-130.8-185.9-140.1
			c6.8-9,178.9,138.7,185.8,129.6c6.5-8.6-179.9-122.1-173.4-130.7c6.3-8.4,166.4,127.7,172.7,119.3c6-7.9-163.6-110.9-157.7-118.8
			c5.6-7.5,152.3,108.5,158,101c5.1-6.7-139.7-94.7-134.6-101.5c4.8-6.4,129.4,95.6,134.2,89.2c4.5-5.9-121.9-82.6-117.4-88.5
			c4.2-5.6,114.5,80.3,118.7,74.7c3.7-4.9-102.7-69.7-99-74.6c3.5-4.7,94.8,69.1,98.3,64.4c3.2-4.3-88.9-60.2-85.6-64.5
			c3-4,83.4,53.9,86.4,49.9c2.5-3.3-68.8-46.7-66.3-50c2.3-3.1,63.2,43.4,65.5,40.3c2-2.7-56.1-38.1-54.1-40.8
			c1.8-2.4,51.6,30.6,53.4,28.2c1.4-1.9-39-26.4-37.6-28.3c1.2-1.6,36.6,17.3,37.8,15.6c0.8-1-21.8-14.8-21-15.9
			c0.7-0.9,20.6,5,21.3,4.1c0.2-0.2-4.9-3.3-4.7-3.5"/>
		<path class="st3" d="M74.9,790.6c0.1-0.1-3.7-2.5-3.5-2.7c0.3-0.4,3.9-9.3,4.2-9.8c0.1-0.1-3.4-2.4-3.3-2.5
			c0.4-0.5,2.4-12.1,2.8-12.6c0.1-0.1-3.1-2.1-3-2.2c0.3-0.3,3.1-7.5,3.3-7.8c0.1-0.1-3-2.1-2.9-2.2c0.4-0.5,2.9-12.7,3.3-13.2
			c0.1-0.1-3.5-2.4-3.3-2.5c0.2-0.3,2-5.6,2.2-5.9c0.1-0.1-2.8-1.9-2.7-2c0.3-0.4,2.5-8.2,2.8-8.6c0.1-0.1-2.8-1.9-2.7-2
			c0.3-0.4,2.1-9,2.4-9.4c0.1-0.1-2.9-1.9-2.8-2.1c0.3-0.3,3.1-7.6,3.4-7.9c0.1-0.1-2.7-1.8-2.6-2c0.4-0.5,1.8-12.7,2.2-13.2
			c0.1-0.1-3.1-2.1-3-2.3c0.4-0.5,3-12.5,3.4-13.1c0.1-0.1-3.7-2.6-3.6-2.7c0.4-0.5,3.5-11.4,3.9-11.9c0.1-0.1-3.9-2.7-3.8-2.8
			c0.5-0.6,3.5-15,4-15.6c0.1-0.1-3.3-2.3-3.2-2.4c0.3-0.4,2-8.3,2.2-8.7c0.1-0.1-3-2-2.9-2.1c0.4-0.5,12-4.4,12.4-4.9
			c0.1-0.2-3.9-2.6-3.8-2.8c0.4-0.6,13.9,2.9,14.4,2.3c0.1-0.2-4.7-3.2-4.5-3.4c0.4-0.6,13.8,4.1,14.2,3.6c0.1-0.2-3.5-2.3-3.3-2.5
			c0.7-1,23.7,3,24.4,2c0.1-0.2-3.3-2.2-3.2-2.4c0.7-0.9,22.9,3.5,23.6,2.6c0.1-0.2-3.3-2.2-3.2-2.4c0.8-1,24.2,4,25,3
			c0.1-0.2-3.8-2.6-3.7-2.8c0.5-0.7,17,3.3,17.6,2.6c0.1-0.2-4.3-3-4.2-3.2c0.6-0.7,17.7,3.9,18.2,3.1c0.1-0.2-5-3.5-4.9-3.7
			c0.8-1,24,4.8,24.8,3.8c0.1-0.2-3.6-2.4-3.4-2.6c0.5-0.6,15.6,2.4,16.1,1.8c0.1-0.2-3.6-2.4-3.5-2.6c0.7-0.9,22.3,4.2,23,3.3
			c0.1-0.2-3.7-2.5-3.5-2.7c0.5-0.7,16.5,3.2,17,2.5c0.1-0.2-4.4-3-4.2-3.2c0.5-0.6,14.6,3.4,15,2.8c0.1-0.2-3.5-2.3-3.4-2.5
			c0.5-0.6,15.3,3.4,15.7,2.7c0.1-0.2-4.1-2.8-3.9-2.9c0.6-0.8,18.1,4.1,18.7,3.3c0.1-0.2-3.8-2.5-3.6-2.7
			c0.8-1.1,26.4,3.3,27.3,2.2c0.1-0.2-4-2.7-3.8-2.9c0.8-1.1,26.4,4.6,27.2,3.5c0.1-0.2-4.4-3-4.2-3.2c0.7-1,23.2,4.1,23.9,3.1
			c0.1-0.2-3.7-2.5-3.5-2.6c0.7-1,23.3,3.8,24.1,2.8c0.1-0.2-4.2-2.9-4.1-3.1c0.6-0.8,18.6,4,19.2,3.2c0.1-0.2-4.3-2.9-4.1-3.1
			c0.8-1.1,27.1,4,28,2.9c0.1-0.2-4.8-3.3-4.6-3.5c0.5-0.7,17.4,3.6,18,2.9c0.1-0.2-2.8-1.8-2.6-2c0.8-1.1,25.4,4,26.2,3
			c0.1-0.2-4.6-3.2-4.4-3.4c0.9-1.1,27.5,3.9,28.4,2.8c0.1-0.2-3.7-2.5-3.6-2.7c0.6-0.8,20.3,3,21,2.2c0.1-0.2-2.8-1.8-2.7-2
			c0.7-0.9,21.4,3.6,22,2.7c0.1-0.2-4.4-3-4.2-3.2c0.6-0.7,17.8,4.2,18.4,3.4c0.1-0.2-5.2-3.6-5-3.8c0.5-0.7,17.3,3.9,17.8,3.2
			c0.1-0.2-3.5-2.4-3.4-2.5c0.4-0.5,11.9,3.4,12.3,2.9c0.1-0.2-4.2-2.8-4-3c0.8-1.1,25.8,3.9,26.7,2.8c0.1-0.2-4.1-2.8-4-3
			c0.5-0.7,16.7,4.1,17.2,3.4c0.1-0.2-4-2.7-3.9-2.9"/>
		<path class="st3" d="M73.2,794.5c0,0-1.1-0.8-1.1-0.8c0.4-0.6,13.6,0.9,14.1,0.3c0.1-0.2-4-2.7-3.8-2.9c0.7-0.9,22.1,4.3,22.8,3.4
			c0.1-0.2-4.1-2.8-4-3c0.4-0.6,13.7,3.3,14.1,2.8c0.1-0.2-3.7-2.5-3.6-2.7c0.4-0.5,12.8,3.4,13.2,2.9c0.1-0.2-5.2-3.6-5-3.8
			c0.7-0.9,21.6,4,22.3,3.1c0.1-0.2-3.5-2.4-3.4-2.6c0.5-0.6,14.6,3.3,15.1,2.7c0.1-0.2-4.2-2.9-4.1-3.1c0.5-0.6,14.4,3.5,14.9,2.9
			c0.1-0.2-4-2.7-3.8-2.9c0.4-0.6,14.1,3.8,14.6,3.2c0.1-0.2-4.2-2.9-4-3c0.5-0.6,14.8,3.3,15.3,2.7c0.1-0.2-3.4-2.3-3.3-2.5
			c0.7-1,23.9,3.3,24.7,2.3c0.1-0.2-4-2.7-3.9-2.9c0.8-1,24,4.3,24.7,3.3c0.1-0.2-4.5-3.1-4.4-3.3c0.7-0.9,21.2,3.7,21.9,2.8
			c0.1-0.2-3.8-2.6-3.7-2.8c0.7-0.9,22.5,4.1,23.2,3.2c0.1-0.2-3.8-2.6-3.7-2.8c0.7-0.9,22.5,4,23.2,3.1c0.1-0.2-4.1-2.8-3.9-3
			c0.7-1,23.2,3.7,24,2.7c0.1-0.2-4.6-3.2-4.5-3.4c0.7-0.9,22.7,4.4,23.4,3.4c0.1-0.2-3.9-2.6-3.8-2.8c0.6-0.8,18.7,3.2,19.3,2.4
			c0.1-0.2-3.2-2.1-3.1-2.3c0.8-1.1,27.1,4,27.9,2.9c0.1-0.2-4.1-2.8-3.9-3c0.7-1,23.8,3.7,24.6,2.7c0.1-0.2-4.1-2.8-4-3
			c0.7-0.9,22.5,4.6,23.2,3.7c0.1-0.2-4.7-3.2-4.5-3.4c0.9-1.1,27.6,4.4,28.5,3.3c0.1-0.2-5.1-3.5-5-3.7c0.8-1,24.5,4,25.3,3
			c0.1-0.2-3.5-2.3-3.3-2.5c0.7-0.9,21.7,3.9,22.4,3c0.1-0.2-4.2-2.8-4-3c0.4-0.6,13.5,3.5,13.9,2.9c0.1-0.2-4.5-3.1-4.4-3.3
			c0.7-0.9,22.5,4.3,23.2,3.4c0.1-0.2-4.4-3-4.3-3.2c0.9-1.1,27.3,4.4,28.1,3.3c0.1-0.2-5-3.5-4.9-3.7c0.8-1.1,26.9,5.1,27.7,4
			c0.1-0.2-4.7-3.2-4.5-3.4c0.7-1,23.3,4.5,24,3.5c0.1-0.2-4.2-2.9-4.1-3.1c0.5-0.6,15.2,2.7,15.7,2.1c0.1-0.2-4-2.7-3.9-2.9
			c0.6-0.8,18.3,4.6,18.9,3.8c0.1-0.2-5.2-3.6-5-3.8c0.4-0.5,12.2,3.5,12.6,3c0.1-0.2-3.7-2.5-3.6-2.7c0.3-0.3,5.9-5.7,6.1-6
			c0.1-0.1-2.4-1.6-2.3-1.7c0.3-0.4,2.7-8.1,3-8.5c0.1-0.1-3.7-2.6-3.6-2.7c0.2-0.3,3.7-6.2,3.9-6.6c0.1-0.1-3.2-2.2-3.1-2.3
			c0.2-0.2,2.7-5,2.9-5.3c0.1-0.1-2.6-1.8-2.5-1.9c0.3-0.4,2.2-8.2,2.4-8.5c0.1-0.1-3.9-2.7-3.8-2.9c0.3-0.4,2.8-8.1,3-8.5
			c0.1-0.1-2.5-1.6-2.3-1.8c0.5-0.6,2.2-15.4,2.7-16c0.1-0.1-3.3-2.3-3.2-2.4c0.3-0.4,2.5-9.5,2.8-9.9c0.1-0.1-2-1.3-1.9-1.4
			c0.4-0.5,2.8-11.8,3.2-12.4c0.1-0.1-3.1-2.1-3-2.3c0.2-0.3,2.1-7.6,2.4-7.9c0.1-0.1-2.7-1.8-2.5-1.9c0.4-0.5,2.9-12.2,3.3-12.7
			c0.1-0.1-3.5-2.4-3.4-2.5c0.2-0.3,2.4-6.8,2.6-7.1c0.1-0.1-3.3-2.2-3.2-2.4c0.3-0.4,2.2-9.8,2.5-10.2c0.1-0.1-2.8-1.9-2.7-2
			c0.3-0.4,2.6-10.2,2.9-10.7c0.1-0.1-3.3-2.3-3.2-2.4c0.3-0.4,3.1-8.9,3.4-9.3c0.1-0.1-2.7-1.8-2.6-2c0.2-0.3,2.7-6.2,2.9-6.5
			c0,0-0.4-0.3-0.4-0.3"/>
	</g>
</g>
<g>
	<g>
		<path class="st4" d="M72.9,881.4c0,0-0.4-0.6-0.4-0.6c0.2-0.2,20.2,1,20.3,1c0.3-0.2-20.4-30-20.3-30.1
			c1.3-0.9,21.7,31.2,23.8,29.8c2.3-1.6-25.1-34.7-24-35.5c0.2-0.1,31.2,37.8,34.1,35.8c0,0-35.3-49.8-34.1-50.6
			c0.7-0.5,49.6,53.7,54.2,50.6c2.7-1.8-43.4-59.6-41.2-61.1c1.5-1,55.9,61.2,55.9,61.2c3.3-2.2-45.5-58.4-41.3-61.2
			c2.5-1.7,58.6,62.2,60.6,60.8c4.1-2.8-45.2-57.9-41-60.8c1-0.7,59.1,62.4,61.2,61c1.1-0.7-43.2-59.9-41.3-61.2
			c3.9-2.7,43.3,63,46.5,60.9c1.6-1.1-43.8-58.9-41-60.8c0.2-0.1,44,63.6,47.4,61.3c4.4-3-43.2-60.2-41.4-61.4
			c2.3-1.6,44.2,62.9,47,60.9c0.6-0.4-43.9-59.6-41.3-61.3c0.9-0.6,44.2,64.5,48.4,61.7c1.3-0.9-44-59.9-41.5-61.5
			c1.5-1,52.3,63.7,55.4,61.7c0.9-0.6-45.7-58.7-41.5-61.6c1.3-0.9,60,61.6,60.1,61.6c3.7-2.5-43.9-60-41.5-61.6
			c4.1-2.8,44.2,62,45.3,61.3c3.4-2.3-41.9-61.1-41.5-61.5c2.1-1.4,50.9,62.2,51.5,61.7c3-2-43.2-60.4-41.5-61.6
			c3.4-2.3,49.3,64.1,53,61.7c0.7-0.5-44-60.2-41.7-61.8c3.2-2.1,55.5,64.5,60.2,61.3c2.9-1.9-41.9-60.8-41.3-61.2
			c4.1-2.8,58.3,63,60.4,61.7c0,0-43.6-60-41.4-61.4c0.8-0.5,37,63.7,41.3,60.8c3.9-2.6-41.3-61.2-41.3-61.2
			c1-0.7,42.4,62.1,43.8,61.2c3.9-2.7-42.9-60.3-41.4-61.3c0.9-0.6,53.1,63.4,55.7,61.6c2.4-1.6-45.4-58.6-41.3-61.3
			c3.2-2.1,58.4,59.4,60.1,58.3c0,0-40.9-56.7-39.1-58c0,0,38.1,31.1,38.8,30.7c1.1-0.7-21-31.2-21-31.2c0.3-0.2,20.8,2.8,21.3,2.5
			c0,0-1.7-2.5-1.7-2.5c0.1,0,1.3,1,1.3,0.9c0,0-0.6-0.9-0.6-0.9"/>
		<path class="st4" d="M72.9,880.2c0.1-0.1-0.9-1.2-0.8-1.2c0.3-0.2,0.5-8.8,1-9.1c0.1,0-0.9-1.4-0.9-1.4c0.4-0.3,0.8-8.4,1-8.5
			c0.1,0-1.1-1.6-1.1-1.6c0.9-0.6,1.1-25.6,1.2-25.7c0.1-0.1-1.5-2.2-1.5-2.2c0.2-0.1,1.1-7.4,1.5-7.7c0.1-0.1-1.5-2.2-1.5-2.2
			c0.4-0.3,14.8,1.5,15.7,0.9c0.1,0-0.9-1.3-0.9-1.4c0.3-0.2,5.4,0.9,5.4,0.9c0,0-0.7-1-0.7-1c0.5-0.3,8.8,1.5,9.2,1.2
			c0,0-0.7-1-0.7-1c0.2-0.2,14.8,1.2,15.3,0.9c0,0-0.8-1-0.7-1c0.3-0.2,6.5,1.5,6.5,1.5c0.1,0-0.9-1.3-0.9-1.3
			c0.1,0,4.7,1.3,4.7,1.3c0,0-1.2-1.8-1.2-1.8c0.2-0.2,5.8,1.5,5.9,1.4c0,0-0.8-1.1-0.7-1.1c0.4-0.2,10.1,1.4,10.2,1.3
			c0,0-0.9-1.3-0.9-1.3c0.3-0.2,5.6,1.4,5.6,1.4c0,0-1.1-1.6-1.1-1.6c0.2-0.1,4.7,1.7,4.7,1.6c0.1,0-0.9-1.3-0.9-1.3
			c0.3-0.2,8.4,1.5,8.8,1.2c0.1,0-1.1-1.5-1.1-1.6c0.2-0.1,9.7,1.8,9.7,1.8c0,0-1-1.3-0.9-1.4c0,0,11.6,1.4,12.3,0.9
			c0.1,0-0.9-1.3-0.9-1.3c0.5-0.3,9.3,1.3,9.4,1.3c0,0-1-1.4-0.9-1.4c0,0,1.4,1.8,1.5,1.8c0,0-1.1-1.5-1-1.5
			c0.4-0.3,13.4,1.9,14.2,1.3c0,0-0.7-0.9-0.7-1c0.5-0.4,9.8,1,10.2,0.7c0,0-0.8-1.2-0.8-1.2c1-0.7,17.6,1.8,17.9,1.6
			c0.1,0-0.9-1.2-0.8-1.2c0.1,0,6.3,0.8,6.4,0.8c0,0-0.6-0.8-0.6-0.8c0.5-0.3,20.7,1.9,21.5,1.4c0,0-1.1-1.6-1.1-1.6
			c0.4-0.3,18.1,1.8,18.5,1.5c0,0-0.8-1.1-0.8-1.1c0.1,0,3.8,1.2,3.9,1.1c0.1,0-1.1-1.7-1.1-1.7c0.7-0.5,19.9,1.9,20.7,1.3
			c0,0-0.8-1.1-0.8-1.1c0.2-0.2,8.2,1.8,8.5,1.6c0,0-1.1-1.5-1-1.5c0.6-0.4,13.5,1.5,14.1,1.1c0,0-0.6-0.9-0.6-0.9
			c0.8-0.5,13.7,1.3,13.7,1.3c0,0-1.2-1.7-1.1-1.7c0,0,5.2,1.7,5.4,1.6c0.1,0-1.2-1.6-1.1-1.6c0,0,1.9,1.4,2,1.3
			c0.1,0-0.8-1.1-0.8-1.2c0.1-0.1,5.3,1.5,5.5,1.3c0,0-0.9-1.2-0.9-1.3"/>
		<path class="st4" d="M72.4,881.8c0,0-0.4-0.6-0.4-0.6c0.2-0.2,20.2,1,20.3,1c0,0-0.8-1.2-0.8-1.2c0.2-0.1,4.1,1.1,4.3,0.9
			c0.1,0-0.8-1.2-0.8-1.2c0,0,10.3,1.9,11,1.5c0,0-1-1.5-1-1.5c0.2-0.1,19.7,2.4,21,1.5c0,0-0.7-1-0.7-1c0.3-0.2,15.4,1.2,15.4,1.2
			c0,0-0.9-1.1-0.8-1.2c0.6-0.4,19.6,1.1,20.1,0.7c0.1,0-0.5-0.7-0.5-0.7c0.2-0.2,20.2,1.3,20.7,1c0,0-0.8-1.1-0.8-1.1
			c0.3-0.2,5.7,1,6,0.8c0,0-0.6-0.7-0.5-0.8c0,0,6.6,1.4,6.9,1.2c0.1,0-1-1.4-0.9-1.4c0.2-0.1,6.3,1.1,6.5,0.9c0,0-0.9-1.2-0.8-1.3
			c0.1-0.1,7.5,1.9,7.9,1.7c0,0-1-1.5-1-1.5c0.3-0.2,14.3,2,14.9,1.6c0,0-1.1-1.5-1-1.5c0.3-0.2,19.6,1.6,19.6,1.5
			c0.1,0-1.1-1.5-1.1-1.6c0.3-0.2,4.7,1.3,4.8,1.2c0.1,0-1-1.4-1-1.4c0.3-0.2,11,1.8,11,1.7c0,0-1.1-1.5-1-1.5
			c0.5-0.4,11.9,2,12.5,1.6c0,0-1.2-1.7-1.2-1.8c0.7-0.5,18.6,2,19.7,1.3c0,0-0.8-1.2-0.8-1.2c0.9-0.6,19.4,2,19.9,1.6
			c0,0-1-1.4-0.9-1.4c0,0,0.7,0.8,0.8,0.8c0.1,0-0.8-1.1-0.8-1.1c0,0,3.2,1.2,3.3,1.2c0.1,0-0.9-1.3-0.9-1.3
			c0.2-0.1,14.8,1.9,15.3,1.6c0,0-0.9-1.2-0.9-1.3c0.8-0.5,20.2,0,20.6-0.3c0,0-1.1-1.6-1.1-1.6c0,0,0.4-25.5,0.8-25.7
			c0,0-1.2-1.7-1.2-1.7c0.3-0.2,0.8-26.6,1.4-27c0,0-1.4-2.1-1.4-2.1c0.1,0,1-1.8,1.1-1.8c0,0-0.6-0.9-0.6-0.9"/>
	</g>
</g>
<g>
	<g>
		<path class="st3" d="M890.1,426.6c0,0-0.9-0.6-0.9-0.6c0.1-0.1,1.7,0.8,1.7,0.7c0-0.1-2.3-1.6-2.3-1.7c0.3-0.4,9.8,2.1,10.1,1.7
			c0.3-0.5-9.2-6.2-8.8-6.7c0.6-0.8,17.1,7.2,17.7,6.5c0.7-0.9-19.2-13-18.5-14c1-1.3,28.7,14.9,29.7,13.6
			c1.1-1.5-29.9-20.2-28.7-21.7c1.1-1.5,28.6,23.6,29.7,22.1c1.1-1.5-32.3-22-31.2-23.5c1.3-1.7,33.9,24.5,35.2,22.8
			c1.3-1.8-35.1-23.7-33.8-25.5c1.6-2.1,44.2,27.7,45.8,25.6c1.8-2.3-48.1-32.5-46.3-34.9c1.8-2.3,45.5,37.3,47.2,34.9
			c1.8-2.4-49.2-33.3-47.4-35.7c2-2.7,55.5,38.4,57.5,35.7c2-2.7-56.5-38.4-54.5-41.1c2.3-3,61.5,44.7,63.8,41.6
			c2-2.7-56.5-38.3-54.4-41c2.2-3,59.2,44.2,61.4,41.3c2-2.7-56.9-38.6-54.9-41.4c2.2-3,60,44.1,62.3,41.2
			c2-2.7-56.6-38.4-54.6-41.1c2.3-3,61.5,44,63.8,41c2-2.7-56.8-38.6-54.8-41.3c2.3-3.1,63.7,44.6,66.1,41.5
			c2-2.7-56.7-38.5-54.6-41.2c2.2-3,60.1,43.4,62.3,40.4c2-2.7-55.8-37.8-53.7-40.5c2.3-3,60.1,44.4,62.4,41.4
			c2-2.7-56.9-38.6-54.8-41.3c2.3-3.1,63.3,43.7,65.6,40.7c2-2.7-56.5-38.3-54.4-41c2.2-2.9,57.3,44.7,59.5,41.8
			c2-2.7-57.5-39.1-55.4-41.8c2.2-2.9,58.4,43.8,60.6,40.9c2-2.7-56.2-38.1-54.2-40.8c2.3-3,61.5,44.2,63.8,41.2
			c2-2.7-56-37.9-53.9-40.6c2.3-3.1,63.1,44.1,65.5,41.1c2-2.7-56.8-38.5-54.7-41.3c2.1-2.8,53.9,43.6,56,40.8
			c2-2.7-56.1-38-54.1-40.7c2.3-3.1,63.8,43.9,66.2,40.8c2-2.7-56.7-38.5-54.7-41.2c2.3-3,62.3,43.7,64.6,40.7
			c2-2.7-55.2-37.4-53.2-40.1c2.1-2.8,54.3,43.8,56.4,41c2-2.7-56.3-38.2-54.3-40.9c2.2-2.9,59.3,43.1,61.6,40.2
			c2-2.7-56.4-38.2-54.3-40.9c2.3-3,61.9,43.6,64.2,40.6c2-2.7-55.8-37.8-53.7-40.5c2.3-3.1,63.6,44.4,65.9,41.3
			c2-2.7-56.2-38.1-54.2-40.8c2-2.7,52.8,42.8,54.9,40.1c2-2.7-56.3-38.2-54.2-40.9c2.2-2.9,58.8,44.5,61,41.5
			c2-2.7-56.5-38.3-54.4-41c2-2.7,51.8,43,53.8,40.3c2-2.7-55.4-37.5-53.4-40.2c2.3-3.1,63.9,44.2,66.3,41.1
			c2-2.7-56.7-38.5-54.7-41.2c2.1-2.8,56,44.2,58.1,41.3c2-2.7-57.3-38.9-55.2-41.6c2.2-2.9,56.7,44,58.8,41.2
			c2-2.7-56.1-38-54.1-40.8c2.1-2.8,53.1,44,55.2,41.2c2-2.7-56.4-38.3-54.4-41c2.2-3,59.8,43.5,62,40.5c2-2.7-56.1-38-54-40.7
			c2.1-2.8,54.7,43.6,56.8,40.8c2-2.7-55.8-37.8-53.8-40.5c2.3-3,61.1,43.3,63.3,40.3c2-2.7-55.8-37.8-53.8-40.5
			c2-2.7,52.5,42.8,54.5,40.1c2-2.7-55.9-37.9-53.9-40.6c2.3-3.1,63.3,44.1,65.6,41c2-2.7-56-37.9-53.9-40.6
			c2.4-3.1,64.6,43.7,66.9,40.6c2-2.7-55.5-37.6-53.5-40.3c2.3-3,61.7,43.2,64,40.2c2-2.7-56.8-38.5-54.8-41.3
			c2.2-3,59.3,44.1,61.5,41.1c2-2.7-56.1-38-54-40.7c2.2-2.9,58.6,43.4,60.8,40.5c2-2.7-56.3-38.1-54.2-40.8
			c2.4-3.1,64.4,44.5,66.7,41.4c2-2.7-56.7-38.4-54.6-41.1c2-2.6,54.2,37.4,56.2,34.7c1.7-2.3-47.9-32.5-46.2-34.8
			c1.6-2.1,45.1,28.8,46.7,26.7c1.3-1.7-36.5-24.8-35.2-26.5c1.1-1.5,33.3,17.6,34.5,16.1c0.8-1.1-22.1-14.9-21.3-16
			c0.7-0.9,20.9,8.5,21.6,7.6c0.4-0.5-10.1-6.8-9.8-7.4c0.3-0.4,9,6.6,9.3,6.1c0.3-0.4-8.6-5.8-8.3-6.2c0.3-0.3,8.2,0.4,8.4,0.1
			c0,0-0.2-0.1-0.2-0.1c0,0,1,0.7,1,0.6c0,0-1.5-1.1-1.5-1.1"/>
		<path class="st5" d="M890,425.7c0,0-0.9-0.6-0.9-0.7c0.1-0.1,0.1-2.5,0.2-2.6c0,0-0.8-0.5-0.7-0.6c0.2-0.2,1-5.5,1.2-5.8
			c0,0-0.5-0.3-0.5-0.4c0.2-0.3,0.7-7.8,1-8.1c0,0-1.6-1.1-1.5-1.1c0.2-0.2,0.9-4.7,1-4.9c0,0-0.6-0.4-0.6-0.5
			c0.1-0.2,0.8-4.5,1-4.6c0,0-0.5-0.3-0.4-0.3c0.2-0.2-0.6-5.4-0.5-5.7c0,0-0.7-0.5-0.7-0.5c0,0,0.8-0.5,0.8-0.6c0,0-0.1,0-0.1-0.1
			c0.1-0.1,0.7-2.2,0.7-2.3c0,0-1-0.7-0.9-0.7c0.1-0.1,2.5-0.5,2.5-0.6c0-0.1-0.5-0.3-0.5-0.4c0.2-0.3,7.9,0.5,8.1,0.1
			c0-0.1-0.4-0.2-0.4-0.3c0.2-0.3,6.4,0.6,6.6,0.4c0-0.1-0.6-0.3-0.5-0.4c0.4-0.6,13.6,1.4,14.1,0.8c0-0.1-2-1.4-1.9-1.5
			c0.2-0.3,6.8,1.7,7,1.4c0-0.1-1.8-1.3-1.8-1.3c0.4-0.5,12.9,2.3,13.3,1.8c0-0.1-1.4-1-1.4-1c0.1-0.1,2.9,1.3,3,1.1
			c0-0.1-2.3-1.6-2.2-1.7c0.5-0.6,14.8,2.2,15.2,1.5c0-0.1-1.3-0.9-1.3-0.9c0.1-0.1,3.1,0.4,3.2,0.3c0-0.1-1.5-1-1.4-1.1
			c0.1-0.1,2.7,1.6,2.8,1.5c0-0.1-1.6-1.1-1.6-1.2c0.2-0.3,7.6,1.5,7.9,1.2c0-0.1-0.8-0.5-0.7-0.6c0.2-0.2,5.7,0.3,5.9,0.1
			c0-0.1-0.5-0.3-0.5-0.4c0.1-0.2,4,1,4.1,0.9c0-0.1-1.6-1.1-1.5-1.2c0,0,1,0.4,1,0.3c0-0.1-1.1-0.7-1.1-0.8
			c0.3-0.4,10.6,2.4,10.9,2c0-0.1-2.7-1.9-2.6-2c0.2-0.2,5.4,1.2,5.5,0.9c0-0.1-0.8-0.5-0.8-0.6c0.4-0.5,12.6,1.8,13,1.3
			c0-0.1-1.2-0.8-1.1-0.8c0.4-0.5,12.4,1.4,12.7,0.9c0-0.1-1.3-0.9-1.3-1c0.1-0.1,2.7,0.6,2.8,0.5c0-0.1-1.6-1.1-1.6-1.2
			c0.3-0.3,8.2,1.5,8.5,1.1c0-0.1-0.6-0.4-0.6-0.5c0.3-0.4,10.7,0.7,11.1,0.2c0-0.1-1.2-0.8-1.1-0.8c0.4-0.6,14,1.7,14.5,1.1
			c0-0.1-0.5-0.3-0.5-0.4c0.3-0.4,9.5,0.9,9.8,0.5c0-0.1-1.9-1.3-1.8-1.4c0.2-0.2,5,1.5,5.1,1.3c0-0.1-0.9-0.6-0.8-0.6
			c0.1-0.2,4.2,0.5,4.3,0.3c0-0.1-0.1,0,0,0c0,0,0.6,0.4,0.6,0.3c0-0.1-1.6-1.1-1.6-1.2c0.2-0.2,5.2,1.3,5.4,1.1
			c0-0.1-0.5-0.2-0.4-0.3c0.1-0.1,2.9,1,3,0.9c0-0.1-2.2-1.6-2.2-1.7c0.4-0.5,12.9,2.3,13.3,1.8c0-0.1-2.6-1.9-2.6-1.9
			c0.2-0.3,6.2,1.2,6.4,1c0-0.1-0.8-0.5-0.7-0.6c0.2-0.2,4.8,1.4,4.9,1.2c0-0.1-2.2-1.5-2.1-1.6c0.3-0.3,8.1,1.6,8.4,1.2
			c0-0.1-1.9-1.3-1.8-1.4c0.1-0.1,1.9,1.3,2,1.2c0-0.1-0.3-0.1-0.2-0.2c0.1-0.1,2.6,1.2,2.7,1c0-0.1-1.4-0.9-1.3-1
			c0.1-0.1,2.3,0.2,2.4,0.1c0-0.1-0.8-0.5-0.8-0.6c0.2-0.2,5.8,1.5,6,1.2c0-0.1-1.4-0.9-1.3-1c0.1-0.1,2.7,0.5,2.7,0.4
			c0-0.1-1.6-1.1-1.5-1.1c0.3-0.4,9.5,1.9,9.8,1.5c0-0.1-1-0.7-1-0.8c0-0.1,1.3,0.2,1.3,0.2c0-0.1-0.3-0.2-0.3-0.2
			c0.1-0.1,1.6,1.1,1.6,1c0-0.1-1.4-0.9-1.3-1c0.3-0.4,9.4,1.5,9.7,1.1c0-0.1-1.5-1.1-1.5-1.1c0.1-0.1,1.7,0.5,1.8,0.4
			c0-0.1-1.2-0.8-1.1-0.9c0.2-0.3,6.3,0.9,6.5,0.6c0-0.1-0.4-0.2-0.4-0.3c0.3-0.4,9.3,1.3,9.6,0.9c0-0.1-1.3-0.9-1.2-0.9
			c0.1-0.2,3.9,1.4,4.1,1.3c0-0.1-1.6-1.1-1.6-1.2c0.2-0.3,7.1,1.7,7.3,1.4c0-0.1-2.2-1.6-2.1-1.6c0.3-0.4,9.4,2,9.7,1.6
			c0-0.1-1.9-1.3-1.8-1.4c0.4-0.5,13.1,1.3,13.5,0.7c0-0.1-1.7-1.2-1.6-1.2c0.2-0.3,6.8,1.9,7,1.6c0-0.1-2.2-1.6-2.1-1.6
			c0.3-0.3,8.1,1.9,8.4,1.6c0-0.1-2.3-1.7-2.3-1.7c0.4-0.5,11.7,1.8,12.1,1.3c0-0.1-1.5-1-1.5-1.1c0.3-0.4,8.6,1.2,8.9,0.8
			c0-0.1-0.4-0.2-0.4-0.3c0.3-0.4,9.7,1.3,10,0.9c0-0.1-1.3-0.9-1.2-0.9c0.3-0.3,8.4,1.3,8.7,1c0-0.1-1.9-1.3-1.8-1.4
			c0.2-0.3,6.3,1.7,6.5,1.4c0-0.1-1.5-1-1.5-1.1c0.3-0.4,10.7,1.6,11,1.2c0-0.1-1.5-1.1-1.5-1.1"/>
		<path class="st5" d="M889.7,427.1c0,0-0.9-0.6-0.9-0.6c0.1-0.1,1.7,0.8,1.7,0.7c0-0.1-2.3-1.6-2.3-1.7c0.3-0.4,9.8,2.1,10.1,1.7
			c0-0.1-0.9-0.6-0.9-0.7c0.3-0.4,9.4,0.9,9.7,0.5c0-0.1-1.5-1.1-1.5-1.1c0.4-0.5,12.2,1.2,12.6,0.7c0-0.1-0.1,0,0,0
			c0,0,1,0.5,1,0.5c0-0.1-2.1-1.5-2.1-1.6c0.2-0.3,6.7,1.8,6.9,1.5c0-0.1-1.2-0.8-1.2-0.9c0.4-0.5,12,1,12.4,0.5
			c0-0.1-0.6-0.3-0.5-0.4c0-0.1,1.4,0.5,1.5,0.4c0-0.1-0.8-0.5-0.7-0.5c0.3-0.4,10.5,1,10.9,0.5c0-0.1-1.4-1-1.3-1
			c0.3-0.4,10.4,2,10.7,1.6c0-0.1-1.3-0.9-1.3-1c0.3-0.3,8,1.5,8.3,1.2c0-0.1-1.8-1.3-1.7-1.3c0.3-0.4,8.8,1.5,9.1,1.1
			c0-0.1-1.5-1-1.4-1.1c0.3-0.4,10.3,1.4,10.7,1c0-0.1-1.7-1.2-1.6-1.2c0.4-0.5,12.5,1.9,12.9,1.4c0-0.1-1.5-1.1-1.5-1.1
			c0.3-0.4,8.9,0.7,9.2,0.3c0-0.1-0.6-0.4-0.6-0.4c0.3-0.4,9,1.8,9.3,1.4c0-0.1-1.7-1.2-1.7-1.3c0.4-0.5,12.1,1.1,12.5,0.6
			c0-0.1-1.3-0.9-1.3-1c0.2-0.3,6.1,2,6.3,1.7c0-0.1-2.3-1.7-2.3-1.7c0.2-0.3,7.2,1.2,7.4,0.9c0-0.1-1.1-0.7-1-0.8
			c0.3-0.4,10.3,1.6,10.6,1.1c0-0.1-0.8-0.5-0.8-0.6c0.4-0.5,11.9,1.5,12.3,1c0-0.1-1.7-1.2-1.6-1.2c0.1-0.1,2.8,0.9,2.8,0.7
			c0-0.1-1-0.6-0.9-0.7c0.4-0.5,12.7,1.2,13,0.7c0-0.1-1.6-1.1-1.5-1.2c0.3-0.5,11.1,1.1,11.4,0.6c0-0.1-0.1,0,0,0
			c0.1-0.1,3.2,1.1,3.3,0.9c0-0.1-1.2-0.8-1.2-0.9c0.3-0.3,8.2,0.5,8.4,0.2c0-0.1-1.2-0.8-1.2-0.9c0.3-0.4,10.7,1,11.1,0.6
			c0-0.1-0.6-0.4-0.6-0.4c0.4-0.5,12.4,1.8,12.8,1.3c0-0.1-1.1-0.7-1.1-0.8c0.1-0.1,1.7,0.2,1.8,0.1c0-0.1-1.2-0.8-1.1-0.8
			c0.2-0.3,7.7,1.8,7.9,1.5c0-0.1-1.3-0.9-1.3-1c0,0,0.7,0.3,0.7,0.3c0-0.1-0.3-0.1-0.3-0.2c0.4-0.5,12.8,1.6,13.2,1.1
			c0-0.1-1.6-1.1-1.6-1.2c0.2-0.2,4.9,1.5,5,1.3c0-0.1-2.1-1.5-2.1-1.6c0.2-0.2,5.5,1.4,5.7,1.1c0-0.1-1-0.7-1-0.7
			c0.1-0.1,2,1.3,2.1,1.2c0-0.1-1.3-0.9-1.3-1c0.3-0.4,8.6,0.8,8.9,0.5c0-0.1-0.9-0.6-0.9-0.7c0.1-0.1,3.5,0.9,3.6,0.8
			c0-0.1-0.7-0.4-0.7-0.5c0.3-0.4,9.9,0.7,10.2,0.3c0-0.1-0.7-0.4-0.6-0.5c0-0.1,1.4,0.1,1.4,0.1c0-0.1-0.8-0.5-0.8-0.6
			c0.4-0.5,12.1,1.4,12.5,0.9c0-0.1-0.9-0.6-0.8-0.6c0.4-0.6,13.4,1.1,13.8,0.5c0-0.1-0.4-0.2-0.4-0.3c0.3-0.4,10.5,0.6,10.9,0.2
			c0-0.1-1.7-1.2-1.6-1.2c0.3-0.3,8.1,1.5,8.4,1.1c0-0.1-1-0.6-0.9-0.7c0.2-0.3,7.4,0.8,7.7,0.5c0-0.1-1.1-0.8-1.1-0.8
			c0.4-0.5,13.2,1.9,13.6,1.4c0-0.1-1.5-1.1-1.5-1.1c0.2-0.2,3.9-4.3,4.1-4.6c0,0-1-0.6-0.9-0.7c0.2-0.3,1.3-7.1,1.5-7.4
			c0,0-1.4-1-1.3-1c0.3-0.4,0.3-9.1,0.6-9.4c0,0-0.6-0.4-0.5-0.4c0.2-0.3,0.6-7.7,0.9-8.1c0,0-0.6-0.4-0.6-0.4c0,0,0.1-0.8,0.1-0.8
			c0,0-0.3-0.1-0.3-0.2c0.2-0.2,0.2-5.7,0.4-6c0,0-0.5-0.3-0.5-0.4c0-0.1,1.3-0.7,1.3-0.8c0,0-1.5-1.1-1.5-1.1"/>
	</g>
</g>
<g>
	<g>
		<path class="st2" d="M890.5,506.1C890.5,506.1,890.4,506.1,890.5,506.1c0.7-1,23,0.8,23.7-0.2c0.9-1.2-24.2-16.3-23.3-17.5
			c1.3-1.8,38.8,19.6,40.1,17.8c1.5-2-41.9-28.4-40.4-30.4c2.1-2.8,61.2,33,63.3,30.2c2.3-3.1-63.5-43-61.2-46.1
			c2.9-3.8,79.9,50.3,82.8,46.5c2.3-3.1-64.3-43.5-61.9-46.7c2.8-3.7,78.3,49.9,81.1,46.1c2.3-3.1-64.2-43.5-61.8-46.6
			c2.6-3.5,70.9,50.6,73.5,47.2c2.3-3.1-65.1-44.2-62.7-47.3c2.9-3.9,82.6,51.6,85.5,47.7c2.3-3.1-65.2-44.3-62.9-47.4
			c2.9-3.8,79.5,50.6,82.4,46.8c2.3-3.1-65.2-44.3-62.9-47.4c3-3.9,83.4,51.2,86.4,47.3c2.3-3.1-65-44.1-62.6-47.2
			c2.8-3.8,78.5,51.4,81.3,47.6c2.3-3.1-64.5-43.7-62.1-46.8c2.9-3.8,81.7,50,84.6,46.1c2.3-3.1-63.7-43.1-61.4-46.2
			c3-3.9,83.8,51.1,86.8,47.2c2.3-3.1-65.9-44.8-63.5-47.9c2.8-3.8,78.4,51.3,81.3,47.6c2.3-3.1-64.2-43.5-61.8-46.6
			c2.9-3.8,80.4,50.6,83.3,46.8c2.3-3.1-64.9-44-62.5-47.1c2.7-3.5,72.6,50,75.3,46.5c2.3-3.1-63.9-43.2-61.5-46.4
			c2.6-3.5,70.9,50.5,73.5,47.1c2.3-3.1-65-44.1-62.7-47.2c2.9-3.9,82.2,50.7,85.1,46.9c2.3-3.1-63.8-43.2-61.5-46.3
			c2.6-3.4,68.7,49.3,71.3,45.9c2.3-3.1-64.4-43.7-62.1-46.8c2.6-3.5,70.4,51.2,73,47.8c2.3-3.1-64.6-43.8-62.2-46.9
			c2.5-3.4,68.2,50.1,70.7,46.7c2.3-3.1-65.1-44.1-62.7-47.3c2.7-3.6,73.1,50.2,75.7,46.6c2.3-3.1-64.2-43.5-61.8-46.6
			c2.8-3.7,77.8,50.6,80.6,46.9c2.3-3.1-64.6-43.8-62.2-46.9c2.9-3.9,82.3,51.1,85.2,47.2c2.3-3.1-64.4-43.6-62-46.7
			c2.5-3.3,67.4,49.5,69.9,46.2c2.3-3.1-64-43.3-61.6-46.4c2.6-3.5,70.7,49.6,73.3,46.2c2.3-3.1-64.5-43.8-62.2-46.9
			c2.7-3.5,72.1,51.5,74.8,47.9c2.3-3.1-64.9-44-62.6-47.2c2.7-3.6,75.4,49.7,78.1,46.1c2.3-3.1-64-43.4-61.7-46.5
			c2.4-3.2,65.2,47.9,67.6,44.7c2.2-3-61-41.3-58.7-44.3c2-2.7,56.6,35.4,58.7,32.7c1.7-2.2-45.6-31-44-33.2
			c1.5-1.9,41.8,23.4,43.2,21.5c1.1-1.5-30.1-20.4-29-21.9c0.9-1.2,28.4,11,29.3,9.7c0.5-0.6-13.3-9-12.8-9.6
			c0.4-0.5,12.5,1,12.9,0.4c0,0-0.3-0.2-0.3-0.2"/>
		<path class="st3" d="M892.3,504.9c0.1-0.1-2.6-1.7-2.5-1.9c0.2-0.3,1.8-6.4,2.1-6.7c0.1-0.1-2.3-1.5-2.2-1.6
			c0.3-0.5,2.7-10.5,3-11c0.1-0.1-4-2.8-3.9-3c0.2-0.2,2.5-5.2,2.7-5.4c0.1-0.1-2.2-1.4-2.1-1.6c0.3-0.4,2.4-9.5,2.7-10
			c0.1-0.1-3.5-2.4-3.4-2.6c0.4-0.5,11.8,0.8,12.2,0.3c0.1-0.2-5.3-3.7-5.2-3.9c0.5-0.7,17.4,4,17.9,3.3c0.1-0.2-4-2.7-3.9-2.9
			c0.4-0.6,13.4,3.8,13.8,3.3c0.1-0.2-4.4-3-4.3-3.2c0.8-1.1,26.7,3.9,27.5,2.8c0.1-0.2-4.1-2.8-3.9-3c0.6-0.8,18.4,3.7,18.9,2.9
			c0.1-0.2-3.4-2.3-3.3-2.5c0.6-0.8,19.5,2.9,20.1,2.1c0.1-0.2-2.9-1.9-2.8-2.1c0.8-1,25.1,3.5,25.9,2.4c0.1-0.2-3.4-2.3-3.2-2.4
			c0.5-0.7,17.4,3.6,18,2.9c0.1-0.2-4.1-2.8-4-3c0.5-0.7,16,3.4,16.5,2.7c0.1-0.2-3.6-2.4-3.5-2.6c0.8-1,24.4,4.1,25.2,3.1
			c0.1-0.2-4.1-2.8-3.9-3c0.7-1,23.1,2.9,23.9,2c0.1-0.2-3.2-2.1-3.1-2.3c0.7-0.9,21.7,4.1,22.4,3.2c0.1-0.2-3.9-2.7-3.8-2.9
			c0.5-0.6,14.7,3.1,15.2,2.5c0.1-0.2-3.3-2.2-3.1-2.4c0.8-1.1,25.9,3.9,26.7,2.8c0.1-0.2-4.7-3.2-4.5-3.4
			c0.4-0.5,12.9,3.4,13.4,2.8c0.1-0.2-3.6-2.4-3.5-2.6c0.8-1,24.1,3.7,24.9,2.7c0.1-0.2-4.1-2.8-3.9-3c0.7-1,23,3.4,23.7,2.4
			c0.1-0.2-3.5-2.3-3.3-2.5c0.7-0.9,21,4.5,21.6,3.6c0.1-0.2-4-2.7-3.9-2.9c0.6-0.8,19.9,2.8,20.5,2c0.1-0.2-3.2-2.1-3-2.3
			c0.6-0.8,19.9,3.3,20.5,2.5c0.1-0.2-4.1-2.8-3.9-3c0.9-1.1,27.6,4.8,28.4,3.6c0.1-0.2-5.4-3.8-5.3-4c0.6-0.8,19.3,4.3,19.9,3.5
			c0.1-0.2-4.4-3-4.2-3.2c0.8-1.1,26.7,4.3,27.5,3.2c0.1-0.2-4.4-3-4.2-3.2c0.7-0.9,22.9,3.8,23.6,2.8c0.1-0.2-3.1-2.1-3-2.2
			c0.4-0.6,13.2,3.3,13.6,2.7c0.1-0.2-4.1-2.8-4-3c0.8-1.1,27,4.4,27.8,3.3c0.1-0.2-4.6-3.2-4.5-3.4c0.5-0.6,14.7,3.8,15.1,3.2
			c0.1-0.2-4-2.7-3.8-2.9"/>
		<path class="st3" d="M889,507.6C889,507.6,888.9,507.6,889,507.6c0.7-1,23,0.8,23.7-0.2c0.1-0.2-2.8-1.8-2.7-2
			c0.6-0.8,18.9,3.1,19.5,2.3c0.1-0.2-3.5-2.3-3.4-2.5c0.8-1.1,25.5,3.3,26.2,2.3c0.1-0.2-2.9-1.9-2.7-2c0.7-1,23.6,3.4,24.3,2.5
			c0.1-0.2-3.6-2.4-3.5-2.6c0.7-0.9,21.9,3,22.6,2.1c0.1-0.2-3.5-2.3-3.4-2.5c0.5-0.6,14.6,3.7,15,3.1c0.1-0.2-4.4-3-4.3-3.2
			c0.8-1.1,26.2,4.7,27.1,3.7c0.1-0.2-4.6-3.1-4.4-3.3c0.7-1,23.2,3.7,23.9,2.7c0.1-0.2-4.6-3.1-4.4-3.3c0.8-1.1,27.1,4.4,27.9,3.2
			c0.1-0.2-4.3-2.9-4.2-3.1c0.7-0.9,22.1,4.5,22.8,3.5c0.1-0.2-3.8-2.6-3.7-2.8c0.8-1,25.4,3.1,26.2,2.1c0.1-0.2-3.1-2-2.9-2.2
			c0.9-1.1,27.5,4.3,28.4,3.1c0.1-0.2-5.2-3.6-5.1-3.8c0.7-0.9,22.1,4.4,22.8,3.5c0.1-0.2-3.5-2.4-3.4-2.6c0.8-1,24.1,3.7,24.8,2.7
			c0.1-0.2-4.2-2.9-4.1-3.1c0.5-0.7,16.3,3.1,16.9,2.4c0.1-0.2-3.2-2.1-3.1-2.3c0.5-0.6,14.6,3.6,15,3c0.1-0.2-4.4-3-4.2-3.2
			c0.8-1.1,25.9,3.9,26.7,2.8c0.1-0.2-3.2-2.1-3-2.3c0.4-0.5,12.4,2.4,12.8,1.9c0.1-0.2-3.8-2.6-3.7-2.8c0.5-0.6,14.1,4.3,14.6,3.7
			c0.1-0.2-4-2.7-3.8-2.9c0.4-0.5,11.9,3.1,12.3,2.6c0.1-0.2-4.4-3-4.3-3.2c0.5-0.7,16.8,3.3,17.3,2.6c0.1-0.2-3.5-2.4-3.4-2.6
			c0.7-0.9,21.5,3.8,22.2,2.9c0.1-0.2-3.9-2.6-3.8-2.8c0.8-1.1,26,4.3,26.8,3.2c0.1-0.2-3.7-2.5-3.6-2.7c0.4-0.5,11.1,2.6,11.4,2.2
			c0.1-0.2-3.4-2.2-3.2-2.4c0.5-0.6,14.4,2.7,14.8,2.1c0.1-0.2-3.9-2.6-3.8-2.8c0.5-0.7,15.9,4.6,16.4,3.9c0.1-0.2-4.3-2.9-4.1-3.1
			c0.6-0.8,19.1,2.8,19.7,2c0.1-0.2-3.4-2.3-3.3-2.5c0.4-0.5,11.8,3.4,12.2,2.9c0.1-0.2-3.4-2.3-3.3-2.5c0.3-0.4,2.9-8.7,3.2-9.1
			c0.1-0.1-3.1-2.1-3-2.3c0.3-0.4,2-9,2.3-9.4c0.1-0.1-2.9-1.9-2.7-2.1c0.3-0.4,2.7-9.7,3.1-10.1c0.1-0.1-3-2.1-2.9-2.2
			c0.3-0.4,2.8-9.1,3.1-9.5c0.1-0.2-3.9-2.7-3.8-2.9"/>
	</g>
</g>
<g>
	<g>
		<g>
			<path class="st6" d="M637.6,458.5c0,0-1.5-1.1-1.5-1.1c0.1-0.1,2,0.1,2,0.1c0.1-0.1-2.5-1.7-2.5-1.8c0.2-0.3,7.3,3.2,7.5,2.9
				c0.2-0.3-6.3-4.3-6.1-4.6c0.3-0.4,7.7,4.2,8,3.8c0.3-0.4-9.6-6.5-9.3-7c0.4-0.6,11.7,7.8,12.1,7.3c0.4-0.6-12.5-8.5-12.1-9.1
				c0.5-0.7,14,9.4,14.5,8.7c0.5-0.7-13.8-9.3-13.2-10c0.5-0.7,14.2,10.5,14.7,9.8c0.6-0.8-15.7-10.6-15.1-11.4
				c0.7-0.9,18.5,12.8,19.2,11.9c0.7-1-19.6-13.2-18.9-14.2c0.8-1.1,22.2,15,23,13.9c0.8-1.1-22.2-15-21.3-16.1
				c0.9-1.2,23,18.1,23.9,16.9c0.8-1.1-23.4-15.8-22.5-17c0.9-1.3,25.8,17.9,26.7,16.7c0.8-1.1-23.6-16-22.7-17.1
				c0.9-1.2,24.8,18.3,25.8,17.1c0.8-1.1-23.6-16.1-22.8-17.2c0.9-1.2,24.1,18.8,25,17.6c0.8-1.1-24.2-16.4-23.3-17.6
				c0.9-1.1,22.2,17.6,23,16.5c0.8-1.1-22-14.8-21.2-16c0.9-1.2,25,17.7,25.9,16.5c0.8-1.1-23.8-16.2-23-17.3
				c1-1.3,26.8,19.2,27.8,17.9c0.8-1.1-23.7-16.1-22.8-17.2c0.9-1.2,24.6,17.5,25.5,16.3c0.8-1.1-22.8-15.4-21.9-16.5
				c0.9-1.2,23.9,17.6,24.8,16.4c0.8-1.1-22.4-15.1-21.5-16.2c0.9-1.2,23.7,18,24.6,16.8c0.8-1.1-23.3-15.8-22.4-16.9
				c0.9-1.2,23,18.5,23.9,17.3c0.8-1.1-24.7-16.8-23.8-18c1-1.3,26.2,19.2,27.2,17.9c0.8-1.1-23.8-16.1-22.9-17.3
				c0.9-1.2,24.4,17.6,25.3,16.4c0.8-1.1-23.2-15.7-22.4-16.8c0.9-1.2,23,18.4,23.9,17.2c0.8-1.1-23.9-16.3-23.1-17.4
				c0.9-1.2,24.1,19.2,25,17.9c0.8-1.1-24.5-16.7-23.6-17.8c0.9-1.2,24.5,18,25.4,16.7c0.8-1.1-22.1-14.9-21.2-16
				c0.9-1.1,22.2,17.8,23,16.7c0.8-1.1-23.6-16.1-22.8-17.2c0.9-1.2,24.6,18.6,25.5,17.4c0.8-1.1-23.4-15.9-22.6-17
				c0.9-1.2,24.7,18.1,25.6,16.9c0.8-1.1-23-15.6-22.2-16.7c0.9-1.2,24,18.2,24.9,17c0.8-1.1-23.2-15.7-22.4-16.9
				c0.9-1.2,23.3,18,24.1,16.9c0.8-1.1-24.4-16.6-23.5-17.7c0.9-1.2,23,18.6,23.9,17.4c0.8-1.1-23.5-16-22.7-17.1
				c0.9-1.2,24.7,18.8,25.7,17.6c0.8-1.1-24-16.3-23.2-17.5c0.9-1.2,23,18,23.9,16.9c0.8-1.1-24.1-16.4-23.3-17.6
				c1-1.3,25.7,18.8,26.7,17.5c0.8-1.1-22.7-15.4-21.9-16.5c0.9-1.2,25.1,17.7,26,16.4c0.8-1.1-23.5-16-22.7-17.1
				c1-1.3,26.8,18.7,27.8,17.4c0.8-1.1-24.1-16.4-23.2-17.5c0.9-1.2,24.5,19,25.5,17.8c0.8-1.1-23.6-16-22.8-17.2
				c0.9-1.2,25.5,17.7,26.4,16.5c0.8-1.1-23.3-15.8-22.5-17c0.9-1.2,23.4,18.4,24.3,17.2c0.8-1.1-23.5-16-22.7-17.1
				c0.9-1.2,25,17.7,25.9,16.4c0.8-1.1-22.6-15.3-21.7-16.4c0.9-1.2,23.4,18.5,24.3,17.3c0.8-1.1-23.9-16.2-23-17.3
				c1-1.3,26.3,18.4,27.3,17.1c0.8-1.1-23.1-15.6-22.2-16.7c0.9-1.2,25.2,18.2,26.1,16.9c0.8-1.1-24.4-16.6-23.6-17.8
				c0.9-1.3,24.9,19,25.8,17.7c0.8-1.1-24.2-16.5-23.4-17.6c0.9-1.1,22.3,18.2,23.1,17c0.8-1.1-22.8-15.5-22-16.5
				c0.8-1,20.9,14.4,21.7,13.4c0.7-0.9-18.3-12.4-17.7-13.3c0.6-0.8,17.2,11.6,17.8,10.8c0.5-0.7-14.2-9.6-13.7-10.3
				c0.5-0.7,13.6,9.4,14.1,8.7c0.4-0.6-12.7-8.7-12.3-9.3c0.4-0.6,11.7,8.1,12.2,7.5c0.3-0.5-11-7.5-10.6-8
				c0.4-0.5,9.8,7.8,10.2,7.3c0.3-0.4-9.4-6.4-9-6.8c0.3-0.4,9.2,4,9.5,3.6c0.2-0.2-4.3-2.9-4.2-3.2c0.1-0.1,3.4,1.1,3.5,1
				c0.1-0.1-2.8-1.9-2.7-2c0.1-0.1,2.6,1,2.7,0.9c0,0-0.4-0.3-0.4-0.3"/>
		</g>
	</g>
</g>
<g>
	<g>
		<path class="st6" d="M740.2,489.8c0,0-0.2-0.1-0.2-0.1c0-0.1,1.4-0.6,1.5-0.7c0-0.1-1-0.7-1-0.7c0.1-0.1,1.8-1.8,1.9-1.9
			c0.1-0.2-3.4-2.3-3.3-2.5c0.2-0.3,5.7,2.5,5.9,2.3c0.2-0.2-5.6-3.9-5.4-4.1c0.2-0.2,5.9,1.5,6,1.3c0.2-0.3-6.4-4.3-6.1-4.6
			c0.2-0.3,7.6,2.9,7.8,2.6c0.3-0.4-8.5-5.7-8.1-6.1c0.3-0.4,9.5,5.7,9.8,5.3c0.4-0.5-10.2-7-9.9-7.4c0.4-0.5,10.6,7.1,11,6.6
			c0.4-0.5-10.4-7-10-7.5c0.4-0.6,12.6,6.7,13,6.1c0.5-0.6-14.4-9.9-13.9-10.5c0.5-0.6,12.7,10.2,13.2,9.5
			c0.5-0.7-12.9-8.7-12.4-9.4c0.5-0.6,12.8,9.9,13.3,9.3c0.5-0.7-14.4-9.8-13.9-10.5c0.5-0.7,15,9.2,15.5,8.5
			c0.6-0.8-16.7-11.4-16.1-12.1c0.6-0.8,16.2,12.3,16.8,11.5c0.6-0.8-16-10.8-15.4-11.6c0.6-0.8,16.8,11,17.5,10.2
			c0.7-0.9-19.2-13-18.5-13.9c0.7-0.9,18.8,13,19.4,12.1c0.7-1-19.6-13.2-18.8-14.2c0.7-1,18.9,15.1,19.6,14.1
			c0.7-1-20.2-13.6-19.4-14.6c0.7-1,19.5,13.7,20.2,12.7c0.8-1.1-22.2-15.1-21.4-16.1c0.8-1.1,21.3,16.3,22.1,15.2
			c0.8-1.1-22.9-15.5-22.1-16.6c0.9-1.1,23.3,16.3,24.1,15.2c0.9-1.2-24.6-16.6-23.7-17.8c0.9-1.2,22.7,18.7,23.6,17.5
			c0.9-1.2-25.2-17.1-24.3-18.3c0.9-1.2,23.5,18.9,24.4,17.7c0.9-1.2-24.8-16.8-23.9-18c0.9-1.2,24.7,18.8,25.6,17.6
			c1-1.3-25.9-17.5-24.9-18.8c0.9-1.2,24.9,18.1,25.8,16.8c1-1.3-27.4-18.5-26.4-19.9c1-1.4,28.1,20.4,29.2,19
			c1.1-1.4-30.8-21-29.8-22.4c1.1-1.5,29.8,21.1,30.9,19.6c1.2-1.5-31.7-21.5-30.6-23c1.2-1.5,30.9,23.2,32.1,21.7
			c1.2-1.6-33.6-22.8-32.4-24.4c1.2-1.6,32.8,23.7,34.1,22.1c1.3-1.7-34.6-23.4-33.3-25.1c1.3-1.7,33.3,25.6,34.5,23.9
			c1.3-1.8-35.7-24.1-34.3-25.9c1.3-1.7,35.1,26.1,36.4,24.3c1.4-1.9-38-25.7-36.6-27.6c1.4-1.8,35.6,28.3,37,26.5
			c1.4-1.9-38.6-26.1-37.1-28c1.4-1.9,36.7,29.3,38.1,27.4c1.5-2-40.5-27.5-39-29.4c1.5-2,38,30.7,39.5,28.8
			c1.5-2-40.2-27.2-38.7-29.2c1.1-1.4,28.4,21,29.5,19.6c1.1-1.5-31.1-21.2-30-22.6c1-1.3,25.4,20.5,26.4,19.2
			c1-1.3-27.4-18.6-26.5-19.9c0.4-0.5,11.2,5.7,11.6,5.2c0.5-0.6-11.8-7.9-11.3-8.5c0.2-0.3,6.7,4.4,6.9,4.1
			c0.3-0.4-7.7-5.2-7.4-5.6c0.1-0.2,3.7,2,3.9,1.8c0.1-0.1-3.5-2.4-3.4-2.6c0,0,0.9,0.4,1,0.3c0-0.1-1.4-1-1.4-1"/>
	</g>
</g>
</svg>
