<?xml version="1.0" encoding="utf-8"?>
<!-- Generator: Adobe Illustrator 22.1.0, SVG Export Plug-In . SVG Version: 6.00 Build 0)  -->
<svg version="1.1" id="Layer_1" xmlns="http://www.w3.org/2000/svg" xmlns:xlink="http://www.w3.org/1999/xlink" x="0px" y="0px"
	 viewBox="0 0 284 100" style="enable-background:new 0 0 284 100;" xml:space="preserve">
<style type="text/css">
	.st0{fill:#333333;}
	.st1{fill:none;stroke:#333333;stroke-linecap:round;stroke-linejoin:round;}
	.st2{fill:none;stroke:#000000;stroke-linecap:round;stroke-linejoin:round;}
</style>
<g>
	<path class="st0" d="M12.4,23.3h-1.5V11.8H6.8v-1.3h9.6v1.3h-4.1V23.3z"/>
	<path class="st0" d="M22.6,13.5c0.4,0,0.8,0,1.2,0.1L23.5,15c-0.4-0.1-0.8-0.1-1.1-0.1c-0.8,0-1.4,0.3-2,0.9s-0.8,1.4-0.8,2.4v5.2
		h-1.5v-9.6h1.2l0.2,1.8h0.1c0.4-0.6,0.8-1.1,1.3-1.5S22,13.5,22.6,13.5z"/>
	<path class="st0" d="M24,13.7h1.6l2.1,5.5c0.5,1.3,0.8,2.2,0.9,2.7h0.1c0.1-0.3,0.2-0.8,0.5-1.5s1-2.9,2.4-6.7H33l-4.1,11
		c-0.4,1.1-0.9,1.9-1.4,2.3s-1.2,0.7-2,0.7c-0.4,0-0.9,0-1.3-0.1v-1.2c0.3,0.1,0.7,0.1,1.1,0.1c1,0,1.7-0.6,2.1-1.7l0.5-1.4L24,13.7
		z"/>
	<path class="st0" d="M39.1,11.1c0-0.3,0.1-0.6,0.2-0.7s0.4-0.2,0.6-0.2c0.2,0,0.4,0.1,0.6,0.2s0.3,0.4,0.3,0.7s-0.1,0.6-0.3,0.7
		s-0.4,0.2-0.6,0.2c-0.2,0-0.5-0.1-0.6-0.2S39.1,11.4,39.1,11.1z M40.7,23.3h-1.5v-9.6h1.5V23.3z"/>
	<path class="st0" d="M46.9,22.3c0.3,0,0.5,0,0.7-0.1s0.4-0.1,0.6-0.1v1.1c-0.2,0.1-0.4,0.1-0.7,0.2c-0.3,0-0.6,0.1-0.8,0.1
		c-1.9,0-2.8-1-2.8-2.9v-5.7h-1.4v-0.7l1.4-0.6l0.6-2.1h0.8v2.2h2.8v1.1h-2.8v5.7c0,0.6,0.1,1,0.4,1.3S46.4,22.3,46.9,22.3z"/>
	<path class="st0" d="M63.2,18.5c0,1.6-0.4,2.8-1.2,3.7s-1.9,1.3-3.3,1.3c-0.9,0-1.6-0.2-2.3-0.6s-1.2-1-1.5-1.7s-0.5-1.6-0.5-2.7
		c0-1.6,0.4-2.8,1.2-3.7s1.9-1.3,3.3-1.3c1.3,0,2.4,0.4,3.2,1.3S63.2,17,63.2,18.5z M55.8,18.5c0,1.2,0.2,2.2,0.7,2.8s1.2,1,2.2,1
		s1.7-0.3,2.2-1c0.5-0.6,0.7-1.6,0.7-2.8c0-1.2-0.2-2.2-0.7-2.8c-0.5-0.6-1.2-1-2.2-1c-1,0-1.7,0.3-2.2,0.9S55.8,17.3,55.8,18.5z"/>
	<path class="st0" d="M67.1,13.7v6.2c0,0.8,0.2,1.4,0.5,1.8s0.9,0.6,1.7,0.6c1,0,1.7-0.3,2.2-0.8c0.5-0.6,0.7-1.5,0.7-2.7v-5.1h1.5
		v9.6h-1.2L72.3,22h-0.1c-0.3,0.5-0.7,0.8-1.2,1.1c-0.5,0.3-1.1,0.4-1.8,0.4c-1.2,0-2-0.3-2.6-0.8c-0.6-0.6-0.9-1.4-0.9-2.7v-6.3
		H67.1z"/>
	<path class="st0" d="M79.9,22.3c0.3,0,0.5,0,0.7-0.1s0.4-0.1,0.6-0.1v1.1c-0.2,0.1-0.4,0.1-0.7,0.2c-0.3,0-0.6,0.1-0.8,0.1
		c-1.9,0-2.8-1-2.8-2.9v-5.7h-1.4v-0.7l1.4-0.6l0.6-2.1h0.8v2.2h2.8v1.1h-2.8v5.7c0,0.6,0.1,1,0.4,1.3S79.4,22.3,79.9,22.3z"/>
	<path class="st0" d="M82.9,22.4c0-0.8,0.4-1.2,1.1-1.2c0.3,0,0.6,0.1,0.8,0.3c0.2,0.2,0.3,0.5,0.3,0.9c0,0.4-0.1,0.7-0.3,0.9
		s-0.4,0.3-0.8,0.3c-0.3,0-0.6-0.1-0.8-0.3S82.9,22.8,82.9,22.4z M84.4,19.8h-0.9l-0.4-9.3h1.8L84.4,19.8z"/>
	<path class="st0" d="M96.8,23.3h-1.5V11.8h-4.1v-1.3h9.6v1.3h-4.1V23.3z"/>
	<path class="st0" d="M109.2,23.3v-6.2c0-0.8-0.2-1.4-0.5-1.8s-0.9-0.6-1.7-0.6c-1,0-1.8,0.3-2.2,0.8c-0.5,0.6-0.7,1.5-0.7,2.7v5
		h-1.5V9.7h1.5v4.1c0,0.5,0,0.9-0.1,1.2h0.1c0.3-0.5,0.7-0.8,1.2-1.1c0.5-0.3,1.1-0.4,1.8-0.4c1.2,0,2.1,0.3,2.7,0.8
		c0.6,0.6,0.9,1.4,0.9,2.7v6.3H109.2z"/>
	<path class="st0" d="M113.5,11.1c0-0.3,0.1-0.6,0.2-0.7s0.4-0.2,0.6-0.2c0.2,0,0.4,0.1,0.6,0.2s0.3,0.4,0.3,0.7s-0.1,0.6-0.3,0.7
		s-0.4,0.2-0.6,0.2c-0.2,0-0.5-0.1-0.6-0.2S113.5,11.4,113.5,11.1z M115.1,23.3h-1.5v-9.6h1.5V23.3z"/>
	<path class="st0" d="M124.4,20.7c0,0.9-0.3,1.6-1,2.1s-1.6,0.7-2.8,0.7c-1.3,0-2.3-0.2-3-0.6v-1.4c0.5,0.2,1,0.4,1.5,0.6
		s1,0.2,1.5,0.2c0.8,0,1.3-0.1,1.8-0.4s0.6-0.6,0.6-1.1c0-0.4-0.2-0.7-0.5-1c-0.3-0.3-1-0.6-1.9-0.9c-0.9-0.3-1.5-0.6-1.9-0.9
		c-0.4-0.2-0.7-0.5-0.8-0.8c-0.2-0.3-0.3-0.7-0.3-1.1c0-0.8,0.3-1.4,1-1.9s1.5-0.7,2.6-0.7c1,0,2.1,0.2,3,0.6l-0.5,1.2
		c-1-0.4-1.8-0.6-2.6-0.6c-0.7,0-1.2,0.1-1.6,0.3s-0.5,0.5-0.5,0.9c0,0.3,0.1,0.5,0.2,0.7c0.1,0.2,0.3,0.4,0.6,0.5s0.9,0.4,1.7,0.7
		c1.1,0.4,1.9,0.8,2.3,1.3S124.4,20.1,124.4,20.7z"/>
	<path class="st0" d="M131.3,11.1c0-0.3,0.1-0.6,0.2-0.7s0.4-0.2,0.6-0.2c0.2,0,0.4,0.1,0.6,0.2s0.3,0.4,0.3,0.7s-0.1,0.6-0.3,0.7
		s-0.4,0.2-0.6,0.2c-0.2,0-0.5-0.1-0.6-0.2S131.3,11.4,131.3,11.1z M132.9,23.3h-1.5v-9.6h1.5V23.3z"/>
	<path class="st0" d="M142.2,20.7c0,0.9-0.3,1.6-1,2.1s-1.6,0.7-2.8,0.7c-1.3,0-2.3-0.2-3-0.6v-1.4c0.5,0.2,1,0.4,1.5,0.6
		s1,0.2,1.5,0.2c0.8,0,1.3-0.1,1.8-0.4s0.6-0.6,0.6-1.1c0-0.4-0.2-0.7-0.5-1c-0.3-0.3-1-0.6-1.9-0.9c-0.9-0.3-1.5-0.6-1.9-0.9
		c-0.4-0.2-0.7-0.5-0.8-0.8c-0.2-0.3-0.3-0.7-0.3-1.1c0-0.8,0.3-1.4,1-1.9s1.5-0.7,2.6-0.7c1,0,2.1,0.2,3,0.6l-0.5,1.2
		c-1-0.4-1.8-0.6-2.6-0.6c-0.7,0-1.2,0.1-1.6,0.3s-0.5,0.5-0.5,0.9c0,0.3,0.1,0.5,0.2,0.7c0.1,0.2,0.3,0.4,0.6,0.5s0.9,0.4,1.7,0.7
		c1.1,0.4,1.9,0.8,2.3,1.3S142.2,20.1,142.2,20.7z"/>
	<path class="st0" d="M155.2,23.3l-0.3-1.4h-0.1c-0.5,0.6-1,1-1.4,1.2c-0.5,0.2-1.1,0.3-1.8,0.3c-1,0-1.7-0.2-2.2-0.7
		s-0.8-1.2-0.8-2.1c0-1.9,1.6-3,4.7-3.1l1.6-0.1V17c0-0.8-0.2-1.3-0.5-1.7c-0.3-0.4-0.8-0.5-1.6-0.5c-0.8,0-1.7,0.2-2.7,0.7
		l-0.4-1.1c0.5-0.3,1-0.5,1.6-0.6s1.1-0.2,1.7-0.2c1.1,0,2,0.3,2.6,0.8c0.6,0.5,0.8,1.3,0.8,2.5v6.6H155.2z M151.9,22.3
		c0.9,0,1.6-0.2,2.1-0.7c0.5-0.5,0.8-1.2,0.8-2.1v-0.9l-1.5,0.1c-1.2,0-2,0.2-2.5,0.5c-0.5,0.3-0.8,0.8-0.8,1.5
		c0,0.5,0.2,0.9,0.5,1.2S151.3,22.3,151.9,22.3z"/>
	<path class="st0" d="M168.3,13.5c0.4,0,0.8,0,1.2,0.1l-0.2,1.4c-0.4-0.1-0.8-0.1-1.1-0.1c-0.8,0-1.4,0.3-2,0.9
		c-0.6,0.6-0.8,1.4-0.8,2.4v5.2h-1.5v-9.6h1.2l0.2,1.8h0.1c0.4-0.6,0.8-1.1,1.3-1.5S167.7,13.5,168.3,13.5z"/>
	<path class="st0" d="M175.3,23.5c-1.4,0-2.5-0.4-3.4-1.3c-0.8-0.9-1.2-2.1-1.2-3.6c0-1.6,0.4-2.8,1.1-3.7c0.8-0.9,1.8-1.4,3.1-1.4
		c1.2,0,2.2,0.4,2.9,1.2s1.1,1.8,1.1,3.1v0.9h-6.6c0,1.1,0.3,2,0.9,2.6s1.3,0.9,2.3,0.9c1,0,2.1-0.2,3.1-0.7v1.3
		c-0.5,0.2-1,0.4-1.5,0.5S176,23.5,175.3,23.5z M175,14.7c-0.8,0-1.4,0.3-1.8,0.8c-0.5,0.5-0.7,1.2-0.8,2.1h5c0-0.9-0.2-1.6-0.6-2.1
		S175.7,14.7,175,14.7z"/>
	<path class="st0" d="M187.3,23.3L187,22h-0.1c-0.5,0.6-1,1-1.4,1.2c-0.5,0.2-1.1,0.3-1.8,0.3c-1,0-1.7-0.2-2.2-0.7
		s-0.8-1.2-0.8-2.1c0-1.9,1.6-3,4.7-3.1l1.6-0.1V17c0-0.8-0.2-1.3-0.5-1.7c-0.3-0.4-0.8-0.5-1.6-0.5c-0.8,0-1.7,0.2-2.7,0.7
		l-0.4-1.1c0.5-0.3,1-0.5,1.6-0.6s1.1-0.2,1.7-0.2c1.1,0,2,0.3,2.6,0.8c0.6,0.5,0.8,1.3,0.8,2.5v6.6H187.3z M184,22.3
		c0.9,0,1.6-0.2,2.1-0.7c0.5-0.5,0.8-1.2,0.8-2.1v-0.9l-1.5,0.1c-1.2,0-2,0.2-2.5,0.5c-0.5,0.3-0.8,0.8-0.8,1.5
		c0,0.5,0.2,0.9,0.5,1.2S183.4,22.3,184,22.3z"/>
	<path class="st0" d="M192.8,23.3h-1.5V9.7h1.5V23.3z"/>
	<path class="st0" d="M205,14.8h-2.5v8.5H201v-8.5h-1.7v-0.7l1.7-0.5v-0.5c0-2.4,1-3.6,3.1-3.6c0.5,0,1.1,0.1,1.8,0.3l-0.4,1.2
		c-0.6-0.2-1-0.3-1.4-0.3c-0.6,0-1,0.2-1.2,0.5s-0.4,1-0.4,1.8v0.6h2.5V14.8z"/>
	<path class="st0" d="M215,18.5c0,1.6-0.4,2.8-1.2,3.7s-1.9,1.3-3.3,1.3c-0.9,0-1.6-0.2-2.3-0.6s-1.2-1-1.5-1.7s-0.5-1.6-0.5-2.7
		c0-1.6,0.4-2.8,1.2-3.7s1.9-1.3,3.3-1.3c1.3,0,2.4,0.4,3.2,1.3S215,17,215,18.5z M207.7,18.5c0,1.2,0.2,2.2,0.7,2.8s1.2,1,2.2,1
		s1.7-0.3,2.2-1c0.5-0.6,0.7-1.6,0.7-2.8c0-1.2-0.2-2.2-0.7-2.8c-0.5-0.6-1.2-1-2.2-1c-1,0-1.7,0.3-2.2,0.9S207.7,17.3,207.7,18.5z"
		/>
	<path class="st0" d="M222,13.5c0.4,0,0.8,0,1.2,0.1l-0.2,1.4c-0.4-0.1-0.8-0.1-1.1-0.1c-0.8,0-1.4,0.3-2,0.9
		c-0.6,0.6-0.8,1.4-0.8,2.4v5.2h-1.5v-9.6h1.2l0.2,1.8h0.1c0.4-0.6,0.8-1.1,1.3-1.5S221.4,13.5,222,13.5z"/>
	<path class="st0" d="M237.2,23.3v-6.3c0-0.8-0.2-1.3-0.5-1.7s-0.8-0.6-1.5-0.6c-0.9,0-1.6,0.3-2,0.8s-0.7,1.3-0.7,2.4v5.4h-1.5
		v-6.3c0-0.8-0.2-1.3-0.5-1.7s-0.8-0.6-1.5-0.6c-0.9,0-1.6,0.3-2,0.8s-0.6,1.4-0.6,2.7v5.1h-1.5v-9.6h1.2l0.2,1.3h0.1
		c0.3-0.5,0.7-0.8,1.2-1.1c0.5-0.3,1.1-0.4,1.7-0.4c1.5,0,2.5,0.5,3,1.6h0.1c0.3-0.5,0.7-0.9,1.2-1.2s1.2-0.4,1.9-0.4
		c1.1,0,1.9,0.3,2.4,0.8s0.8,1.5,0.8,2.7v6.3H237.2z"/>
	<path class="st0" d="M241.5,22.4c0-0.8,0.4-1.2,1.1-1.2c0.3,0,0.6,0.1,0.8,0.3c0.2,0.2,0.3,0.5,0.3,0.9c0,0.4-0.1,0.7-0.3,0.9
		s-0.4,0.3-0.8,0.3c-0.3,0-0.6-0.1-0.8-0.3S241.5,22.8,241.5,22.4z M243,19.8h-0.9l-0.4-9.3h1.8L243,19.8z"/>
</g>
<g>
	<g>
		<g>
			<path class="st1" d="M230.2,67.2c-0.1-0.1-4.8,3-5,2.6c-0.1-0.3-7.7,0.9-7.7,0.9c0,0-2.8,1.7-2.8,1.5c0-0.1,1.5-1.1,1.5-1.2
				c0,0-3.1,1.8-3.2,1.7c0,0,0.3-1,0.3-1c0,0-2.6,1.6-2.7,1.4c0,0-2.3-0.5-2.3-0.7c-0.1-0.1-0.9,0.5-0.9,0.5
				c-0.1-0.1-2.5-0.3-2.5-0.3c0-0.1-2,1.2-2,1.1c0,0-4.5-0.4-4.5-0.5c-0.1-0.2-0.7,0.4-0.7,0.4s-7.9,0.1-8.1-0.2
				c0-0.1-0.7,0.5-0.7,0.4c0,0-2.7-0.5-2.7-0.6c0,0-2.3,1.3-2.3,1.2c-0.1-0.1-1.7-1.6-1.7-1.6c0-0.1-2.4,1.3-2.4,1.3
				c0,0-0.6-0.4-0.6-0.4c0-0.1-1.6,1-1.7,0.9c0-0.1-1.8-1.4-1.9-1.4c0-0.1-1.4,0.9-1.5,0.8c-0.1-0.2-5.6-0.9-5.6-0.9
				c0,0-1.6,0.9-1.6,0.9c-0.1-0.2-5.1-0.9-5.1-0.9c0-0.1-1.5,0.9-1.5,0.8l-4.8-1.5c0-0.1-1.7,1-1.7,0.9c0-0.1,1.4-0.9,1.4-1
				c0-0.1-1.9,1-1.9,1s-3.8-1-3.9-1.2c0-0.1-1.7,0.9-1.7,0.9c-0.1-0.2-3.3-0.9-3.3-0.9c0,0-1,0.7-1,0.5c0,0-0.5-0.7-0.5-0.7
				c0,0-1.2,0.7-1.2,0.6c0-0.1-2.6-1.5-2.6-1.5c0-0.1-2,1.2-2,1.1c-0.1-0.2-2.4-1.2-2.5-1.4c0-0.1-1.6,0.9-1.6,0.8
				c0-0.1-0.8-0.8-0.9-0.8c-0.1-0.1-1.4,0.9-1.5,0.8c0,0-0.8-0.7-0.8-0.8c0-0.1-1.7,0.9-1.7,0.9c0,0-2.9-2.1-3-2.3
				c0-0.1-1.6,1-1.7,0.9c0-0.1-3.1-1.2-3.2-1.4c0,0-1.9,1.1-1.9,1c-0.1-0.1-2.6-1.2-2.6-1.2c-0.1-0.1-2.2,1.1-2.2,1.1
				c0-0.1-1.5-1.9-1.5-1.9c0,0-2.6,1.4-2.6,1.4c0,0-1-0.9-1-0.9c-0.1-0.1-1.4,0.9-1.5,0.8c0-0.1-1.4-1.3-1.4-1.4
				c0-0.1-0.8,0.6-0.9,0.5c0,0,0-0.8,0-0.8c0-0.1-1.8,0.9-1.8,0.9c0,0,0.5-1.2,0.5-1.3c0,0-2.7,1.5-2.8,1.5
				c-0.1-0.2-4.1-2.1-4.2-2.2c0,0-1.2,0.7-1.2,0.7c-0.1-0.2-4.7-1-4.9-1.3c0,0-0.4,0.4-0.5,0.2c-0.1-0.2-5-0.8-5.1-0.9
				c-0.1-0.1-0.5,0.4-0.6,0.3c0,0-2.3-0.9-2.3-1c0,0-0.9,0.5-0.9,0.5c0,0,0.1-0.3,0.1-0.3c0,0-0.7,0.4-0.7,0.4"/>
			<path class="st1" d="M236.2,65.1c-0.1-0.2-6.6,3.5-6.6,3.5c-0.5-0.9,11.4-8.3,11.4-8.3c0-0.1-2,1-2,1c-0.1-0.1,3.1-1.6,3-1.7
				c0,0-3,1.6-3,1.6c-0.1-0.1,8.6-8.2,8.2-8.8c-0.1-0.1-1.9,1-1.9,1c-0.1-0.1,8-6.7,7.7-7.4c0-0.1-3.1,1.8-3.2,1.7
				c-0.2-0.4,6.3-7.1,6.3-7.1c0-0.1-1.4,0.8-1.4,0.8c-0.1-0.2,3.3-3.7,3.2-3.9c0-0.1-0.7,0.5-0.8,0.4c0,0,4.1-5,3.9-5.5
				c-0.1-0.1-0.4,0.3-0.5,0.2c-0.1-0.1,1.4-1.7,1.4-1.7c0,0-0.7,0.4-0.7,0.4c-0.1-0.1,1.7-1.1,1.6-1.2c0,0-1.2,0.7-1.2,0.7
				c0,0,1.3-1.6,1.3-1.6c0,0-2.3,1.3-2.3,1.2c-0.1-0.2,2.3-3.3,2.3-3.3c0,0-0.5,0.3-0.5,0.2"/>
		</g>
	</g>
</g>
<g>
	<g>
		<g>
			<path class="st2" d="M264.2,19.7c0,0,1.9-1.1,1.9-1.1c0.2,0.4-5.7,4.4-5.7,4.4c0.2,0.3,5.4-3.1,5.4-3.1c0.2,0.3-10.5,5.7-10.3,6
				c0,0.1,10.6-6.2,10.6-6.1c0.1,0.1-13.5,8.9-13,9.8c0.6,1,14.8-8.8,14.9-8.6c0.2,0.3-22.3,12.5-21.4,14c0.2,0.3,13.9-8.4,14.1-8.1
				c0.3,0.5-9.8,7.1-9.8,7.1c0,0.1,1.4-0.8,1.4-0.8"/>
		</g>
	</g>
</g>
<g>
	<g>
		<g>
			<path class="st2" d="M261.8,20.2c0,0,1.1-0.7,1.1-0.7c0.1,0.1-1.3,1.9-1.3,1.9c0.1,0.1,1.2-0.7,1.2-0.7c0.1,0.2-6.1,3.3-6,3.5
				c0,0,6.3-3.7,6.3-3.6c0,0,2.5,0.6,2.6,0.8c0.1,0.2,1.6-0.9,1.6-0.9c0.1,0.1-8.1,5.5-7.7,6.1c0.1,0.1,8.6-5.1,8.7-5
				c0.1,0.1-1.7,2.9-1.7,2.9c0.1,0.1,0.9-0.6,0.9-0.5c0.1,0.1-2.3,2.3-2.3,2.4c0.1,0.1,2.7-1.7,2.8-1.6c0,0-1.6,2.4-1.5,2.6
				c0.1,0.2,2.7-1.7,2.8-1.6c0.1,0.2-2.4,1.9-2.4,1.9c0,0,2.8-1.6,2.8-1.6c0.2,0.4-5.8,3.3-5.7,3.4c0.1,0.1,1.8-1.2,1.9-1.1
				c0,0,0.9-0.1,0.9-0.1c0,0,7.3-4.4,7.4-4.2c0.2,0.3-5.8,4.6-5.8,4.7c0,0,2.7-1.7,2.8-1.6c0.1,0.2-2,2.2-2,2.2c0,0,2.8-1.6,2.8-1.6
				c0,0,0.1,0.2,0.1,0.2c0,0,1.3-1,1.4-0.8l-0.8,2.5c0,0,4.1-2.5,4.2-2.4c0.2,0.3-5.9,4.4-5.7,4.7c0,0,3.7-2.2,3.7-2.1
				c0,0-2.5,2.1-2.5,2.1s2.7-1.7,2.8-1.6l-2.3,1.9c0,0,2.7-1.7,2.8-1.6c0,0-1,1.7-1,1.7c0.1,0.1,4.8-2.9,4.8-2.8
				c0.2,0.4-4.9,3.9-4.7,4.2c0.1,0.2,2.7-1.6,2.8-1.6c0,0.1,0,1.8,0,1.9c0,0,3.1-1.8,3.1-1.8"/>
		</g>
	</g>
</g>
</svg>
