<?xml version="1.0" encoding="utf-8"?>
<!-- Generator: Adobe Illustrator 22.1.0, SVG Export Plug-In . SVG Version: 6.00 Build 0)  -->
<svg version="1.1" id="Layer_1" xmlns="http://www.w3.org/2000/svg" xmlns:xlink="http://www.w3.org/1999/xlink" x="0px" y="0px"
	 viewBox="0 0 500 500" style="enable-background:new 0 0 500 500;" xml:space="preserve">
<style type="text/css">
	.st0{fill:#CED1CD;}
	.st1{fill:#FFFFFF;stroke:#000000;stroke-miterlimit:10;}
	.st2{fill:#FFFFFF;}
	.st3{fill:#76A4C4;}
	.st4{fill:#354084;}
	.st5{fill:#EFEFEF;}
	.st6{fill:#B72525;}
	.st7{fill:#BC6464;}
	.st8{fill:#E3E4E5;}
	.st9{fill:none;stroke:#777777;stroke-width:3;stroke-miterlimit:10;}
	.st10{fill:#515151;}
	.st11{fill:#545454;}
	.st12{fill:none;stroke:#777777;stroke-width:6;stroke-miterlimit:10;}
	.st13{fill:#F7F7F7;}
	.st14{fill:#5088B5;}
	.st15{fill:none;stroke:#000000;stroke-miterlimit:10;}
	.st16{fill:#969696;}
	.st17{fill:#AEB4BA;}
	.st18{fill:#898989;}
	.st19{fill:#A0A0A0;}
	.st20{fill:#7F7F7F;}
	.st21{fill:#878787;}
	.st22{font-family:'MyriadPro-Regular';}
	.st23{font-size:12px;}
	.st24{fill:#67AA57;}
	.st25{fill:#EAEA50;}
	.st26{fill:#A34B4B;}
	.st27{fill:#FFFFFF;stroke:#ADADAD;stroke-miterlimit:10;}
	.st28{fill:#FFFFFF;stroke:#3F3F3F;stroke-miterlimit:10;}
</style>
<ellipse class="st0" cx="227.5" cy="365" rx="209.5" ry="6"/>
<path class="st1" d="M410,158h-53.6l16.1-19.5l-8-6L340.3,158H95c-6.6,0-12,5.4-12,12v30h35v35H83v113c0,6.6,5.4,12,12,12h315
	c6.6,0,12-5.4,12-12V170C422,163.4,416.6,158,410,158z"/>
<g>
	<path class="st2" d="M101,234.5c-1.4,0-2.5-1.1-2.5-2.5s1.1-2.5,2.5-2.5h17c1.4,0,2.5,1.1,2.5,2.5s-1.1,2.5-2.5,2.5H101z"/>
	<path d="M118,230c1.1,0,2,0.9,2,2s-0.9,2-2,2h-17c-1.1,0-2-0.9-2-2s0.9-2,2-2H118 M118,229h-17c-1.7,0-3,1.4-3,3s1.3,3,3,3h17
		c1.7,0,3-1.4,3-3S119.7,229,118,229L118,229z"/>
</g>
<g>
	<path class="st2" d="M93,234.5c-1.4,0-2.5-1.1-2.5-2.5s1.1-2.5,2.5-2.5h17c1.4,0,2.5,1.1,2.5,2.5s-1.1,2.5-2.5,2.5H93z"/>
	<path d="M110,230c1.1,0,2,0.9,2,2s-0.9,2-2,2H93c-1.1,0-2-0.9-2-2s0.9-2,2-2H110 M110,229H93c-1.7,0-3,1.4-3,3s1.3,3,3,3h17
		c1.7,0,3-1.4,3-3S111.7,229,110,229L110,229z"/>
</g>
<g>
	<path class="st2" d="M87,234.5c-1.4,0-2.5-1.1-2.5-2.5s1.1-2.5,2.5-2.5h17c1.4,0,2.5,1.1,2.5,2.5s-1.1,2.5-2.5,2.5H87z"/>
	<path d="M104,230c1.1,0,2,0.9,2,2s-0.9,2-2,2H87c-1.1,0-2-0.9-2-2s0.9-2,2-2H104 M104,229H87c-1.7,0-3,1.4-3,3s1.3,3,3,3h17
		c1.7,0,3-1.4,3-3S105.7,229,104,229L104,229z"/>
</g>
<g>
	<path class="st2" d="M79,234.5c-1.4,0-2.5-1.1-2.5-2.5s1.1-2.5,2.5-2.5h17c1.4,0,2.5,1.1,2.5,2.5s-1.1,2.5-2.5,2.5H79z"/>
	<path d="M96,230c1.1,0,2,0.9,2,2s-0.9,2-2,2H79c-1.1,0-2-0.9-2-2s0.9-2,2-2H96 M96,229H79c-1.7,0-3,1.4-3,3s1.3,3,3,3h17
		c1.7,0,3-1.4,3-3S97.7,229,96,229L96,229z"/>
</g>
<g>
	<path class="st2" d="M74,234.5c-1.4,0-2.5-1.1-2.5-2.5s1.1-2.5,2.5-2.5h17c1.4,0,2.5,1.1,2.5,2.5s-1.1,2.5-2.5,2.5H74z"/>
	<path d="M91,230c1.1,0,2,0.9,2,2s-0.9,2-2,2H74c-1.1,0-2-0.9-2-2s0.9-2,2-2H91 M91,229H74c-1.6,0-3,1.4-3,3s1.4,3,3,3h17
		c1.6,0,3-1.4,3-3S92.6,229,91,229L91,229z"/>
</g>
<g>
	<path class="st2" d="M66,234.5c-1.4,0-2.5-1.1-2.5-2.5s1.1-2.5,2.5-2.5h17c1.4,0,2.5,1.1,2.5,2.5s-1.1,2.5-2.5,2.5H66z"/>
	<path d="M83,230c1.1,0,2,0.9,2,2s-0.9,2-2,2H66c-1.1,0-2-0.9-2-2s0.9-2,2-2H83 M83,229H66c-1.6,0-3,1.4-3,3s1.4,3,3,3h17
		c1.6,0,3-1.4,3-3S84.6,229,83,229L83,229z"/>
</g>
<g>
	<path class="st2" d="M68,234.5c-1.4,0-2.5-1.1-2.5-2.5s1.1-2.5,2.5-2.5h9c1.4,0,2.5,1.1,2.5,2.5s-1.1,2.5-2.5,2.5H68z"/>
	<path d="M77,230c1.1,0,2,0.9,2,2s-0.9,2-2,2h-9c-1.1,0-2-0.9-2-2s0.9-2,2-2H77 M77,229h-9c-1.7,0-3,1.4-3,3s1.3,3,3,3h9
		c1.7,0,3-1.4,3-3S78.7,229,77,229L77,229z"/>
</g>
<g>
	<path class="st2" d="M63,234.5c-1.4,0-2.5-1.1-2.5-2.5s1.1-2.5,2.5-2.5h6c1.4,0,2.5,1.1,2.5,2.5s-1.1,2.5-2.5,2.5H63z"/>
	<path d="M69,230c1.1,0,2,0.9,2,2s-0.9,2-2,2h-6c-1.1,0-2-0.9-2-2s0.9-2,2-2H69 M69,229h-6c-1.7,0-3,1.3-3,3c0,1.6,1.3,3,3,3h6
		c1.7,0,3-1.4,3-3C72,230.3,70.7,229,69,229L69,229z"/>
</g>
<g>
	<rect x="59.5" y="223.5" class="st2" width="56" height="5"/>
	<path class="st3" d="M115,224v4H60v-4H115 M116,223H59v6h57V223L116,223z"/>
</g>
<g>
	<rect x="103" y="223" class="st4" width="12" height="6"/>
</g>
<g>
	
		<rect x="-0.5" y="278.5" transform="matrix(0.5129 -0.8584 0.8584 0.5129 -227.8246 160.4737)" class="st5" width="56" height="5"/>
	<path class="st6" d="M39.9,256.4l3.4,2.1l-28.2,47.2l-3.4-2.1L39.9,256.4 M39.5,255l-29.2,48.9l5.2,3.1l29.2-48.9L39.5,255
		L39.5,255z"/>
</g>
<g>
	
		<rect x="32.5" y="259.5" transform="matrix(0.5129 -0.8584 0.8584 0.5129 -206.6103 160.9522)" class="st7" width="12" height="6"/>
</g>
<g>
	<path class="st8" d="M151.5,228.5c-6.1,0-11-4.9-11-11s4.9-11,11-11h234c6.1,0,11,4.9,11,11s-4.9,11-11,11H151.5z"/>
	<path d="M385.5,207c5.8,0,10.5,4.7,10.5,10.5s-4.7,10.5-10.5,10.5h-234c-5.8,0-10.5-4.7-10.5-10.5s4.7-10.5,10.5-10.5H385.5
		 M385.5,206h-234c-6.3,0-11.5,5.2-11.5,11.5s5.2,11.5,11.5,11.5h234c6.3,0,11.5-5.2,11.5-11.5S391.8,206,385.5,206L385.5,206z"/>
</g>
<g>
	<path class="st9" d="M363.5,302.5l5-15L363.5,302.5z"/>
</g>
<g>
	<circle class="st2" cx="368.5" cy="287.5" r="3"/>
	<path class="st10" d="M368.5,285c1.4,0,2.5,1.1,2.5,2.5s-1.1,2.5-2.5,2.5s-2.5-1.1-2.5-2.5S367.1,285,368.5,285 M368.5,284
		c-1.9,0-3.5,1.6-3.5,3.5s1.6,3.5,3.5,3.5s3.5-1.6,3.5-3.5S370.4,284,368.5,284L368.5,284z"/>
</g>
<g>
	<path class="st9" d="M359.8,302.5L366,317L359.8,302.5z"/>
</g>
<g>
	<path class="st2" d="M366,320c-0.9,0-1.7-0.4-2.2-1c-0.5-0.6-0.8-1.4-0.8-2.2s0.4-1.5,1-2.1c0.5-0.5,1.3-0.8,2-0.8
		c0.9,0,1.7,0.4,2.2,1c0.5,0.6,0.8,1.4,0.8,2.2s-0.4,1.5-1,2.1C367.4,319.8,366.7,320,366,320z"/>
	<path class="st11" d="M366,314.5L366,314.5c0.7,0,1.4,0.3,1.9,0.8c0.4,0.5,0.7,1.1,0.6,1.8c0,0.7-0.3,1.3-0.8,1.7
		c-0.5,0.4-1,0.6-1.7,0.6c-0.7,0-1.4-0.3-1.9-0.8c-0.9-1-0.8-2.6,0.2-3.5C364.8,314.8,365.4,314.5,366,314.5 M366,313.5
		c-0.8,0-1.7,0.3-2.3,0.9c-1.4,1.3-1.6,3.5-0.3,4.9c0.7,0.8,1.7,1.2,2.6,1.2c0.8,0,1.7-0.3,2.3-0.9c1.4-1.3,1.6-3.5,0.3-4.9
		C367.9,313.9,367,313.5,366,313.5L366,313.5z"/>
</g>
<line class="st12" x1="350.5" y1="302.5" x2="377.5" y2="302.5"/>
<g>
	<rect x="121.5" y="295.5" class="st13" width="61" height="25"/>
	<path d="M182,296v24h-60v-24H182 M183,295h-62v26h62V295L183,295z"/>
</g>
<g>
	<circle class="st14" cx="128.5" cy="301.5" r="3.5"/>
</g>
<g>
	<circle class="st14" cx="139.5" cy="311.5" r="2.5"/>
</g>
<g>
	<circle class="st14" cx="152.5" cy="304.5" r="3.5"/>
</g>
<g>
	<circle class="st14" cx="171.5" cy="313.5" r="1.5"/>
</g>
<path class="st15" d="M126.5,305.5c-2.3-1.4-3-4.1-2-6c1-1.9,3.4-2.3,5-2c0.7,0.2,1.8,0.6,3,2c4,4.8,0.6,11.3,4,14
	c1.1,0.9,2.8,1.5,4,1c1.2-0.5,1.6-1.9,2-3c0.4-1.1,3.3-9.4,8-11c0.5-0.2,2.3-0.8,4,0c0.3,0.1,1.5,0.7,2,2c0.5,1.2,0.1,2.2,0,3
	c-0.5,5.4,13.3,9.8,14,10c0.5,0.2,1.3,0.3,2,0c0.6-0.3,0.9-0.8,1-1c0-0.1,0.5-1,0-2c-0.3-0.6-0.8-0.9-1-1c-1.2-0.7-2.7-0.1-3,0
	c-3.5,1.2-11.5-3.9-20-4c-6.4-0.1-7,2.7-13,2C132.1,309,128.7,307,126.5,305.5z"/>
<g>
	<g>
		<rect x="239" y="286" class="st2" width="45" height="34.6"/>
		<path class="st16" d="M280,290v26.6h-37V290H280 M284,286h-45v34.6h45V286L284,286z"/>
	</g>
	<g>
		<rect x="239" y="308.5" class="st17" width="45" height="12.1"/>
		<path class="st18" d="M283,309.5v10.1h-43v-10.1H283 M284,308.5h-45v12.1h45V308.5L284,308.5z"/>
	</g>
	<g>
		<rect x="254.6" y="308.5" class="st19" width="15.6" height="12.1"/>
		<path class="st20" d="M269.2,309.5v10.1h-13.6v-10.1H269.2 M270.2,308.5h-15.6v12.1h15.6V308.5L270.2,308.5z"/>
	</g>
	<text transform="matrix(1 0 0 1 168.751 183)"><tspan x="0" y="0" class="st21 st22 st23">Form Widget Generator</tspan><tspan x="26" y="14.4" class="st21 st22 st23">C.R.O.W 3000</tspan></text>
	<rect x="339" y="157.5" class="st16" width="20" height="1"/>
</g>
<ellipse transform="matrix(0.7071 -0.7071 0.7071 0.7071 12.2646 300.6094)" class="st1" cx="369" cy="135.5" rx="3" ry="5.3"/>
<circle class="st24" cx="93" cy="165" r="3.5"/>
<circle class="st25" cx="102" cy="165" r="3.5"/>
<circle class="st26" cx="111" cy="165" r="3.5"/>
<path class="st27" d="M464.5,107c0-12.4-10.1-22.5-22.5-22.5c-1.6,0-3.2,0.2-4.8,0.5c-4.2-5.2-10.6-8.5-17.7-8.5
	c-8.2,0-15.3,4.4-19.4,10.9c-2.4-0.6-4.9-0.9-7.6-0.9c-2,0-3.9,0.2-5.7,0.5c-1.2-0.3-2.5-0.5-3.8-0.5c-8,0-14.5,6.5-14.5,14.5
	c0,3.2,1,6.1,2.7,8.5c-2.9,2-4.7,5.3-4.7,9c0,6.1,4.9,11,11,11c3.7,0,7-1.9,9-4.7c4,2.8,10.6,4.7,18,4.7c3.2,0,6.3-0.4,9.1-1
	c0.6,9.5,5,17,10.4,17c2.1,0,4-1.1,5.6-3c2.1,1.8,4.9,3,7.9,3c6.6,0,12-5.4,12-12c0-1.8-0.4-3.4-1.1-4.9
	C457.7,125.8,464.5,117.2,464.5,107z"/>
<g>
	<path class="st28" d="M393.6,186.9l1.4-0.7l-0.8-1.6l-1.6,0.7c-0.4-0.5-0.9-0.9-1.4-1.2l0.1-0.1l0.6-1.4l-1.7-0.7l-0.6,1.6
		c-0.7-0.1-1.4,0-2.1,0.2l0,0l-0.7-1.4L385,183l0.7,1.5c-0.5,0.4-0.9,0.9-1.2,1.5l-0.5-0.2l-1.5-0.5l-0.6,1.7l2.1,0.7
		c-0.1,0.7,0,1.3,0.2,2l-0.4,0.2l-1.4,0.7l0.8,1.6l1.8-0.9c0.4,0.4,0.8,0.8,1.3,1.1l-0.1,0.4l-0.5,1.5l1.7,0.6l0.6-1.8
		c0.7,0.1,1.4,0,2-0.2l0,0.1l0.7,1.4l1.6-0.8l-0.8-1.5c0.5-0.4,1-1,1.3-1.6l0.2,0.1l1.5,0.4l0.4-1.8l-1.6-0.4c0.1-0.6,0-1.2-0.2-1.8
		L393.6,186.9z"/>
	<circle class="st28" cx="388.7" cy="188" r="2.7"/>
</g>
<g>
	<path class="st1" d="M382.9,183.6h2.8v-3.2h-3.2c-0.3-1.1-0.7-2.2-1.4-3.1l0.2-0.2l2-1.9l-2.2-2.3l-2.3,2.2
		c-1.1-0.7-2.3-1.1-3.6-1.3v0V171H372v3c-1.2,0.3-2.2,0.8-3.1,1.6l-0.7-0.7l-2-1.9l-2.3,2.3l2.8,2.8c-0.6,1-1,2.2-1.1,3.4l-0.8,0
		l-2.8,0.1l0.1,3.2l3.7-0.1c0.3,1,0.7,1.9,1.3,2.8l-0.5,0.5l-1.9,2l2.3,2.2l2.4-2.5c1,0.6,2.2,1.1,3.4,1.3l0,0.1l0.1,2.8l3.2-0.1
		l-0.1-2.9c1.2-0.3,2.3-0.8,3.3-1.6l0.3,0.2l2.1,1.7l2-2.5l-2.3-1.9c0.5-0.9,0.9-1.9,1.1-3H382.9z"/>
	<circle class="st1" cx="374.1" cy="181.8" r="4.8"/>
</g>
<g>
	<circle class="st1" cx="414.8" cy="166.2" r="2.2"/>
	<line class="st15" x1="415.9" y1="166.2" x2="413.6" y2="166.2"/>
	<line class="st15" x1="414.8" y1="165.1" x2="414.8" y2="167.4"/>
</g>
<g>
	<circle class="st1" cx="413.8" cy="352.2" r="2.2"/>
	<line class="st15" x1="414.9" y1="352.2" x2="412.6" y2="352.2"/>
	<line class="st15" x1="413.8" y1="351.1" x2="413.8" y2="353.4"/>
</g>
<g>
	<circle class="st1" cx="89.8" cy="351.2" r="2.2"/>
	<line class="st15" x1="90.9" y1="351.2" x2="88.6" y2="351.2"/>
	<line class="st15" x1="89.8" y1="350.1" x2="89.8" y2="352.4"/>
</g>
<g>
	<circle class="st1" cx="91.8" cy="194.2" r="2.2"/>
	<line class="st15" x1="92.9" y1="194.2" x2="90.6" y2="194.2"/>
	<line class="st15" x1="91.8" y1="193.1" x2="91.8" y2="195.4"/>
</g>
<g>
	<circle class="st1" cx="259.8" cy="163.2" r="2.2"/>
	<line class="st15" x1="260.9" y1="163.2" x2="258.6" y2="163.2"/>
	<line class="st15" x1="259.8" y1="162.1" x2="259.8" y2="164.4"/>
</g>
<g>
	<circle class="st1" cx="259.8" cy="353.2" r="2.2"/>
	<line class="st15" x1="260.9" y1="353.2" x2="258.6" y2="353.2"/>
	<line class="st15" x1="259.8" y1="352.1" x2="259.8" y2="354.4"/>
</g>
<polyline class="st1" points="91.8,158.5 115.5,152.5 347,151 "/>
<path class="st15" d="M361.1,152.3l52.4,0.2c0,0,13,0,14,13s0,34,0,34v22v117c0,0,0.3,13.6-8.9,17.8"/>
</svg>
