<?xml version="1.0" standalone="no"?>
<!DOCTYPE svg PUBLIC "-//W3C//DTD SVG 20010904//EN"
 "http://www.w3.org/TR/2001/REC-SVG-20010904/DTD/svg10.dtd">
<svg version="1.0" xmlns="http://www.w3.org/2000/svg"
 width="700.000000pt" height="700.000000pt" viewBox="0 0 700.000000 700.000000"
 preserveAspectRatio="xMidYMid meet">
<metadata>
Created by potrace 1.11, written by Peter Selinger 2001-2013
</metadata>
<g transform="translate(0.000000,700.000000) scale(0.100000,-0.100000)"
fill="#000000" stroke="none">
<path d="M1560 6207 c-3 -3 -32 -8 -65 -12 -70 -7 -120 -14 -155 -20 -77 -14
-160 -18 -285 -16 -375 9 -458 1 -622 -54 -122 -41 -216 -103 -310 -204 -35
-37 -48 -57 -38 -59 8 -2 48 6 90 18 92 26 92 26 185 35 128 14 352 6 465 -15
28 -5 61 -12 75 -14 54 -9 118 -26 170 -45 58 -20 149 -65 115 -57 -192 50
-320 68 -475 69 -92 0 -232 -9 -279 -18 -9 -1 -36 -6 -61 -10 -81 -12 -281
-68 -273 -75 8 -8 124 -46 167 -54 11 -3 53 -12 92 -20 39 -9 88 -18 110 -21
21 -3 62 -10 89 -15 28 -5 75 -12 105 -15 30 -4 66 -8 80 -10 14 -2 48 -7 75
-10 28 -3 64 -8 80 -10 64 -10 90 -14 130 -20 38 -6 45 -13 85 -73 113 -173
159 -265 181 -360 11 -49 14 -189 4 -232 -3 -14 -8 -41 -11 -60 -3 -19 -10
-48 -14 -65 -43 -146 -45 -265 -6 -351 22 -47 79 -138 97 -154 40 -36 144
-201 213 -342 133 -268 231 -386 526 -632 190 -159 303 -273 399 -401 125
-169 185 -279 237 -433 30 -88 33 -125 12 -150 -8 -9 -60 -107 -115 -217 -167
-334 -343 -577 -472 -652 -45 -26 -49 -27 -246 -29 -259 -3 -342 -20 -418 -89
-15 -14 -34 -40 -42 -60 l-15 -34 43 29 c47 31 86 49 127 56 21 4 19 0 -16
-25 -40 -30 -64 -67 -64 -98 0 -14 2 -14 18 -2 39 33 128 65 209 75 58 7 205
8 401 1 119 -5 170 3 287 41 185 62 276 63 352 6 l31 -24 -6 24 c-9 34 -47 75
-80 87 -15 6 -63 18 -107 26 -149 28 -167 54 -117 166 20 44 86 144 103 157
23 17 162 200 179 236 11 24 41 65 67 91 66 66 216 232 226 249 15 25 15 122
1 194 -7 38 -32 115 -55 172 -53 131 -89 236 -89 260 0 17 3 16 38 -6 39 -26
87 -41 162 -51 161 -22 227 -81 334 -298 82 -164 119 -324 117 -507 0 -92 -3
-119 -27 -220 -9 -36 -17 -69 -18 -75 -1 -5 -4 -14 -7 -20 -4 -5 -14 -35 -24
-65 -43 -136 -131 -288 -222 -384 -113 -118 -205 -157 -413 -171 -162 -11
-224 -25 -280 -60 -40 -25 -82 -81 -92 -123 -6 -22 -5 -22 45 7 86 49 184 71
347 77 129 4 142 3 120 -9 -14 -8 -79 -27 -145 -42 -66 -14 -144 -35 -172 -46
-48 -17 -133 -64 -133 -73 0 -2 -7 -21 -15 -42 -16 -39 -16 -39 4 -17 24 29
60 43 97 38 110 -14 178 -5 277 36 175 73 219 89 308 113 157 42 271 49 362
22 54 -16 114 -63 135 -106 11 -24 12 -23 10 15 -3 83 -44 129 -180 204 -69
39 -84 51 -86 74 -6 47 149 351 298 587 192 304 209 382 136 635 -19 65 -115
311 -140 360 -8 16 -14 31 -12 33 2 2 33 -2 67 -9 154 -28 308 -6 380 55 22
19 38 25 62 21 18 -2 93 -7 167 -10 74 -4 151 -8 170 -10 19 -2 74 -6 123 -10
83 -6 108 -8 202 -20 22 -2 63 -7 90 -10 28 -3 73 -10 100 -15 49 -9 72 -13
146 -25 39 -6 301 -73 384 -97 270 -81 398 -117 440 -123 28 -5 52 -9 55 -10
19 -6 108 -15 175 -19 51 -3 114 -15 175 -35 52 -16 109 -32 125 -35 17 -3 50
-9 75 -14 70 -13 210 -1 210 17 0 4 -20 18 -44 31 -24 12 -95 62 -158 112
-222 175 -274 212 -363 254 -49 23 -103 46 -118 50 -16 3 -32 16 -37 28 -27
73 -61 127 -114 184 -93 99 -188 158 -403 250 -258 111 -323 156 -493 336
-330 350 -450 440 -960 723 -30 16 -77 43 -105 58 -112 62 -230 136 -430 269
-305 203 -448 281 -800 436 -131 58 -198 99 -237 145 -19 23 -78 122 -163 275
-187 336 -377 509 -617 563 -61 13 -307 24 -318 14z m-27 -212 c20 -8 47 -55
47 -80 0 -33 -34 -75 -67 -84 -69 -19 -133 21 -133 82 0 75 73 114 153 82z"/>
</g>
</svg>
